<?xml version="1.0" encoding="UTF-8" standalone="no"?>
<!DOCTYPE svg PUBLIC "-//W3C//DTD SVG 1.1//EN"
 "http://www.w3.org/Graphics/SVG/1.1/DTD/svg11.dtd">
<!-- Generated by graphviz version 2.40.1 (20161225.0304)
 -->
<!-- Title: G Pages: 1 -->
<svg width="2174pt" height="471pt"
 viewBox="0.00 0.00 2173.50 471.00" xmlns="http://www.w3.org/2000/svg" xmlns:xlink="http://www.w3.org/1999/xlink">
<g id="graph0" class="graph" transform="scale(1 1) rotate(0) translate(4 467)">
<title>G</title>
<polygon fill="#ffffff" stroke="transparent" points="-4,4 -4,-467 2169.5,-467 2169.5,4 -4,4"/>
<text text-anchor="middle" x="1082.75" y="-6.6" font-family="Bitstream Vera Sans" font-size="8.00" fill="#000000">generated by sadisplay v0.4.9</text>
<!-- altSpellings -->
<g id="node1" class="node">
<title>altSpellings</title>
<polygon fill="#ffffe0" stroke="transparent" points="29.5,-105.5 29.5,-148.5 111.5,-148.5 111.5,-105.5 29.5,-105.5"/>
<polygon fill="#eee8aa" stroke="transparent" points="29.5,-131 29.5,-148 111.5,-148 111.5,-131 29.5,-131"/>
<text text-anchor="start" x="47" y="-137.6" font-family="Helvetica Bold" font-size="8.00" fill="#000000">altSpellings</text>
<text text-anchor="start" x="31.5" y="-122.6" font-family="Bitstream Vera Sans" font-size="8.00" fill="#000000">★ _id</text>
<text text-anchor="start" x="66.5" y="-122.6" font-family="Bitstream Vera Sans" font-size="8.00" fill="#000000">INTEGER</text>
<text text-anchor="start" x="31.5" y="-109.6" font-family="Bitstream Vera Sans" font-size="8.00" fill="#000000">⚪ value</text>
<text text-anchor="start" x="66.5" y="-109.6" font-family="Bitstream Vera Sans" font-size="8.00" fill="#000000">VARCHAR</text>
</g>
<!-- borders -->
<g id="node2" class="node">
<title>borders</title>
<polygon fill="#ffffe0" stroke="transparent" points="360.5,-105.5 360.5,-148.5 442.5,-148.5 442.5,-105.5 360.5,-105.5"/>
<polygon fill="#eee8aa" stroke="transparent" points="360.5,-131 360.5,-148 442.5,-148 442.5,-131 360.5,-131"/>
<text text-anchor="start" x="386" y="-137.6" font-family="Helvetica Bold" font-size="8.00" fill="#000000">borders</text>
<text text-anchor="start" x="362.5" y="-122.6" font-family="Bitstream Vera Sans" font-size="8.00" fill="#000000">★ _id</text>
<text text-anchor="start" x="397.5" y="-122.6" font-family="Bitstream Vera Sans" font-size="8.00" fill="#000000">INTEGER</text>
<text text-anchor="start" x="362.5" y="-109.6" font-family="Bitstream Vera Sans" font-size="8.00" fill="#000000">⚪ value</text>
<text text-anchor="start" x="397.5" y="-109.6" font-family="Bitstream Vera Sans" font-size="8.00" fill="#000000">VARCHAR</text>
</g>
<!-- bridge_main_array_altSpellings -->
<g id="node3" class="node">
<title>bridge_main_array_altSpellings</title>
<polygon fill="#ffffe0" stroke="transparent" points="8,-351 8,-394 141,-394 141,-351 8,-351"/>
<polygon fill="#eee8aa" stroke="transparent" points="8.5,-376.5 8.5,-393.5 141.5,-393.5 141.5,-376.5 8.5,-376.5"/>
<text text-anchor="start" x="12.5" y="-383.1" font-family="Helvetica Bold" font-size="8.00" fill="#000000">bridge_main_array_altSpellings</text>
<text text-anchor="start" x="10.5" y="-368.1" font-family="Bitstream Vera Sans" font-size="8.00" fill="#000000">☆ altSpellings_id</text>
<text text-anchor="start" x="94.5" y="-368.1" font-family="Bitstream Vera Sans" font-size="8.00" fill="#000000">INTEGER</text>
<text text-anchor="start" x="10.5" y="-355.1" font-family="Bitstream Vera Sans" font-size="8.00" fill="#000000">☆ main_array_id</text>
<text text-anchor="start" x="94.5" y="-355.1" font-family="Bitstream Vera Sans" font-size="8.00" fill="#000000">INTEGER</text>
</g>
<!-- bridge_main_array_altSpellings&#45;&gt;altSpellings -->
<g id="edge2" class="edge">
<title>bridge_main_array_altSpellings&#45;&gt;altSpellings</title>
<path fill="none" stroke="#000000" d="M73.6369,-346.6348C72.9389,-324.6547 71.9938,-292.2617 71.5,-264 70.9135,-230.4329 70.6697,-192.2338 70.5691,-164.7145"/>
<polygon fill="none" stroke="#000000" points="70.5685,-164.504 66.5499,-158.5165 70.5312,-152.5041 74.5499,-158.4916 70.5685,-164.504"/>
<text text-anchor="middle" x="102" y="-257.6" font-family="Bitstream Vera Sans" font-size="8.00" fill="#000000">altSpellings_id</text>
</g>
<!-- main_array -->
<g id="node20" class="node">
<title>main_array</title>
<polygon fill="#ffffe0" stroke="transparent" points="701,-21 701,-233 816,-233 816,-21 701,-21"/>
<polygon fill="#eee8aa" stroke="transparent" points="701.5,-216 701.5,-233 816.5,-233 816.5,-216 701.5,-216"/>
<text text-anchor="start" x="737" y="-222.6" font-family="Helvetica Bold" font-size="8.00" fill="#000000">main_array</text>
<text text-anchor="start" x="703.5" y="-207.6" font-family="Bitstream Vera Sans" font-size="8.00" fill="#000000">★ _id</text>
<text text-anchor="start" x="771.5" y="-207.6" font-family="Bitstream Vera Sans" font-size="8.00" fill="#000000">INTEGER</text>
<text text-anchor="start" x="703.5" y="-194.6" font-family="Bitstream Vera Sans" font-size="8.00" fill="#000000">⚪ alpha2Code</text>
<text text-anchor="start" x="771.5" y="-194.6" font-family="Bitstream Vera Sans" font-size="8.00" fill="#000000">VARCHAR</text>
<text text-anchor="start" x="703.5" y="-181.6" font-family="Bitstream Vera Sans" font-size="8.00" fill="#000000">⚪ alpha3Code</text>
<text text-anchor="start" x="771.5" y="-181.6" font-family="Bitstream Vera Sans" font-size="8.00" fill="#000000">VARCHAR</text>
<text text-anchor="start" x="703.5" y="-168.6" font-family="Bitstream Vera Sans" font-size="8.00" fill="#000000">⚪ area</text>
<text text-anchor="start" x="771.5" y="-168.6" font-family="Bitstream Vera Sans" font-size="8.00" fill="#000000">FLOAT</text>
<text text-anchor="start" x="703.5" y="-155.6" font-family="Bitstream Vera Sans" font-size="8.00" fill="#000000">⚪ capital</text>
<text text-anchor="start" x="771.5" y="-155.6" font-family="Bitstream Vera Sans" font-size="8.00" fill="#000000">VARCHAR</text>
<text text-anchor="start" x="703.5" y="-142.6" font-family="Bitstream Vera Sans" font-size="8.00" fill="#000000">⚪ cioc</text>
<text text-anchor="start" x="771.5" y="-142.6" font-family="Bitstream Vera Sans" font-size="8.00" fill="#000000">VARCHAR</text>
<text text-anchor="start" x="703.5" y="-129.6" font-family="Bitstream Vera Sans" font-size="8.00" fill="#000000">⚪ demonym</text>
<text text-anchor="start" x="771.5" y="-129.6" font-family="Bitstream Vera Sans" font-size="8.00" fill="#000000">VARCHAR</text>
<text text-anchor="start" x="703.5" y="-116.6" font-family="Bitstream Vera Sans" font-size="8.00" fill="#000000">⚪ flag</text>
<text text-anchor="start" x="771.5" y="-116.6" font-family="Bitstream Vera Sans" font-size="8.00" fill="#000000">VARCHAR</text>
<text text-anchor="start" x="703.5" y="-103.6" font-family="Bitstream Vera Sans" font-size="8.00" fill="#000000">⚪ gini</text>
<text text-anchor="start" x="771.5" y="-103.6" font-family="Bitstream Vera Sans" font-size="8.00" fill="#000000">FLOAT</text>
<text text-anchor="start" x="703.5" y="-90.6" font-family="Bitstream Vera Sans" font-size="8.00" fill="#000000">⚪ name</text>
<text text-anchor="start" x="771.5" y="-90.6" font-family="Bitstream Vera Sans" font-size="8.00" fill="#000000">VARCHAR</text>
<text text-anchor="start" x="703.5" y="-77.6" font-family="Bitstream Vera Sans" font-size="8.00" fill="#000000">⚪ nativeName</text>
<text text-anchor="start" x="771.5" y="-77.6" font-family="Bitstream Vera Sans" font-size="8.00" fill="#000000">VARCHAR</text>
<text text-anchor="start" x="703.5" y="-64.6" font-family="Bitstream Vera Sans" font-size="8.00" fill="#000000">⚪ numericCode</text>
<text text-anchor="start" x="771.5" y="-64.6" font-family="Bitstream Vera Sans" font-size="8.00" fill="#000000">VARCHAR</text>
<text text-anchor="start" x="703.5" y="-51.6" font-family="Bitstream Vera Sans" font-size="8.00" fill="#000000">⚪ population</text>
<text text-anchor="start" x="771.5" y="-51.6" font-family="Bitstream Vera Sans" font-size="8.00" fill="#000000">INTEGER</text>
<text text-anchor="start" x="703.5" y="-38.6" font-family="Bitstream Vera Sans" font-size="8.00" fill="#000000">⚪ region</text>
<text text-anchor="start" x="771.5" y="-38.6" font-family="Bitstream Vera Sans" font-size="8.00" fill="#000000">VARCHAR</text>
<text text-anchor="start" x="703.5" y="-25.6" font-family="Bitstream Vera Sans" font-size="8.00" fill="#000000">⚪ subregion</text>
<text text-anchor="start" x="771.5" y="-25.6" font-family="Bitstream Vera Sans" font-size="8.00" fill="#000000">VARCHAR</text>
</g>
<!-- bridge_main_array_altSpellings&#45;&gt;main_array -->
<g id="edge1" class="edge">
<title>bridge_main_array_altSpellings&#45;&gt;main_array</title>
<path fill="none" stroke="#000000" d="M87.7739,-346.8743C103.9829,-318.6262 134.2852,-274.5938 174.5,-255 262.0738,-212.3315 520.7715,-269.7971 612.5,-237 637.5076,-228.0587 661.7668,-213.2088 683.0947,-197.2686"/>
<polygon fill="none" stroke="#000000" points="683.1732,-197.2082 685.4856,-190.3779 692.6799,-189.8854 690.3675,-196.7157 683.1732,-197.2082"/>
<text text-anchor="middle" x="205" y="-257.6" font-family="Bitstream Vera Sans" font-size="8.00" fill="#000000">main_array_id</text>
</g>
<!-- bridge_main_array_borders -->
<g id="node4" class="node">
<title>bridge_main_array_borders</title>
<polygon fill="#ffffe0" stroke="transparent" points="342,-351 342,-394 459,-394 459,-351 342,-351"/>
<polygon fill="#eee8aa" stroke="transparent" points="342.5,-376.5 342.5,-393.5 459.5,-393.5 459.5,-376.5 342.5,-376.5"/>
<text text-anchor="start" x="346.5" y="-383.1" font-family="Helvetica Bold" font-size="8.00" fill="#000000">bridge_main_array_borders</text>
<text text-anchor="start" x="344.5" y="-368.1" font-family="Bitstream Vera Sans" font-size="8.00" fill="#000000">☆ borders_id</text>
<text text-anchor="start" x="420.5" y="-368.1" font-family="Bitstream Vera Sans" font-size="8.00" fill="#000000">INTEGER</text>
<text text-anchor="start" x="344.5" y="-355.1" font-family="Bitstream Vera Sans" font-size="8.00" fill="#000000">☆ main_array_id</text>
<text text-anchor="start" x="420.5" y="-355.1" font-family="Bitstream Vera Sans" font-size="8.00" fill="#000000">INTEGER</text>
</g>
<!-- bridge_main_array_borders&#45;&gt;borders -->
<g id="edge4" class="edge">
<title>bridge_main_array_borders&#45;&gt;borders</title>
<path fill="none" stroke="#000000" d="M400.6051,-346.6912C400.7818,-303.3166 401.1391,-215.6048 401.3447,-165.1163"/>
<polygon fill="none" stroke="#000000" points="401.3458,-164.8313 397.3703,-158.815 401.3948,-152.8314 405.3703,-158.8476 401.3458,-164.8313"/>
<text text-anchor="middle" x="424.5" y="-257.6" font-family="Bitstream Vera Sans" font-size="8.00" fill="#000000">borders_id</text>
</g>
<!-- bridge_main_array_borders&#45;&gt;main_array -->
<g id="edge3" class="edge">
<title>bridge_main_array_borders&#45;&gt;main_array</title>
<path fill="none" stroke="#000000" d="M412.6795,-346.6643C427.1329,-319.0972 453.9578,-276.5002 490.5,-255 537.7392,-227.206 561.9342,-258.146 612.5,-237 637.2557,-226.6475 661.585,-211.1342 683.0692,-194.9985"/>
<polygon fill="none" stroke="#000000" points="683.224,-194.8793 685.537,-188.0492 692.7314,-187.5573 690.4183,-194.3874 683.224,-194.8793"/>
<text text-anchor="middle" x="521" y="-257.6" font-family="Bitstream Vera Sans" font-size="8.00" fill="#000000">main_array_id</text>
</g>
<!-- bridge_main_array_callingCodes -->
<g id="node5" class="node">
<title>bridge_main_array_callingCodes</title>
<polygon fill="#ffffe0" stroke="transparent" points="493.5,-351 493.5,-394 631.5,-394 631.5,-351 493.5,-351"/>
<polygon fill="#eee8aa" stroke="transparent" points="493.5,-376.5 493.5,-393.5 631.5,-393.5 631.5,-376.5 493.5,-376.5"/>
<text text-anchor="start" x="497.5" y="-383.1" font-family="Helvetica Bold" font-size="8.00" fill="#000000">bridge_main_array_callingCodes</text>
<text text-anchor="start" x="495.5" y="-368.1" font-family="Bitstream Vera Sans" font-size="8.00" fill="#000000">☆ callingCodes_id</text>
<text text-anchor="start" x="583.5" y="-368.1" font-family="Bitstream Vera Sans" font-size="8.00" fill="#000000">INTEGER</text>
<text text-anchor="start" x="495.5" y="-355.1" font-family="Bitstream Vera Sans" font-size="8.00" fill="#000000">☆ main_array_id</text>
<text text-anchor="start" x="583.5" y="-355.1" font-family="Bitstream Vera Sans" font-size="8.00" fill="#000000">INTEGER</text>
</g>
<!-- callingCodes -->
<g id="node15" class="node">
<title>callingCodes</title>
<polygon fill="#ffffe0" stroke="transparent" points="513.5,-105.5 513.5,-148.5 595.5,-148.5 595.5,-105.5 513.5,-105.5"/>
<polygon fill="#eee8aa" stroke="transparent" points="513.5,-131 513.5,-148 595.5,-148 595.5,-131 513.5,-131"/>
<text text-anchor="start" x="528.5" y="-137.6" font-family="Helvetica Bold" font-size="8.00" fill="#000000">callingCodes</text>
<text text-anchor="start" x="515.5" y="-122.6" font-family="Bitstream Vera Sans" font-size="8.00" fill="#000000">★ _id</text>
<text text-anchor="start" x="550.5" y="-122.6" font-family="Bitstream Vera Sans" font-size="8.00" fill="#000000">INTEGER</text>
<text text-anchor="start" x="515.5" y="-109.6" font-family="Bitstream Vera Sans" font-size="8.00" fill="#000000">⚪ value</text>
<text text-anchor="start" x="550.5" y="-109.6" font-family="Bitstream Vera Sans" font-size="8.00" fill="#000000">VARCHAR</text>
</g>
<!-- bridge_main_array_callingCodes&#45;&gt;callingCodes -->
<g id="edge6" class="edge">
<title>bridge_main_array_callingCodes&#45;&gt;callingCodes</title>
<path fill="none" stroke="#000000" d="M560.4156,-346.6523C558.744,-324.6829 556.5152,-292.2957 555.5,-264 554.2963,-230.4494 554.1159,-192.2486 554.1964,-164.7244"/>
<polygon fill="none" stroke="#000000" points="554.1972,-164.5114 550.2242,-158.4935 554.2512,-152.5116 558.2242,-158.5295 554.1972,-164.5114"/>
<text text-anchor="middle" x="588.5" y="-257.6" font-family="Bitstream Vera Sans" font-size="8.00" fill="#000000">callingCodes_id</text>
</g>
<!-- bridge_main_array_callingCodes&#45;&gt;main_array -->
<g id="edge5" class="edge">
<title>bridge_main_array_callingCodes&#45;&gt;main_array</title>
<path fill="none" stroke="#000000" d="M583.105,-346.6912C607.2834,-316.4065 648.7184,-264.5071 685.2455,-218.755"/>
<polygon fill="none" stroke="#000000" points="685.4705,-218.4732 686.0881,-211.2885 692.9575,-209.0953 692.34,-216.2799 685.4705,-218.4732"/>
<text text-anchor="middle" x="685" y="-257.6" font-family="Bitstream Vera Sans" font-size="8.00" fill="#000000">main_array_id</text>
</g>
<!-- bridge_main_array_currencies -->
<g id="node6" class="node">
<title>bridge_main_array_currencies</title>
<polygon fill="#ffffe0" stroke="transparent" points="823.5,-351 823.5,-394 951.5,-394 951.5,-351 823.5,-351"/>
<polygon fill="#eee8aa" stroke="transparent" points="823.5,-376.5 823.5,-393.5 951.5,-393.5 951.5,-376.5 823.5,-376.5"/>
<text text-anchor="start" x="827.5" y="-383.1" font-family="Helvetica Bold" font-size="8.00" fill="#000000">bridge_main_array_currencies</text>
<text text-anchor="start" x="825.5" y="-368.1" font-family="Bitstream Vera Sans" font-size="8.00" fill="#000000">☆ currencies_id</text>
<text text-anchor="start" x="906.5" y="-368.1" font-family="Bitstream Vera Sans" font-size="8.00" fill="#000000">INTEGER</text>
<text text-anchor="start" x="825.5" y="-355.1" font-family="Bitstream Vera Sans" font-size="8.00" fill="#000000">☆ main_array_id</text>
<text text-anchor="start" x="906.5" y="-355.1" font-family="Bitstream Vera Sans" font-size="8.00" fill="#000000">INTEGER</text>
</g>
<!-- currencies -->
<g id="node16" class="node">
<title>currencies</title>
<polygon fill="#ffffe0" stroke="transparent" points="850.5,-92.5 850.5,-161.5 940.5,-161.5 940.5,-92.5 850.5,-92.5"/>
<polygon fill="#eee8aa" stroke="transparent" points="850.5,-144 850.5,-161 940.5,-161 940.5,-144 850.5,-144"/>
<text text-anchor="start" x="874.5" y="-150.6" font-family="Helvetica Bold" font-size="8.00" fill="#000000">currencies</text>
<text text-anchor="start" x="852.5" y="-135.6" font-family="Bitstream Vera Sans" font-size="8.00" fill="#000000">★ _id</text>
<text text-anchor="start" x="895.5" y="-135.6" font-family="Bitstream Vera Sans" font-size="8.00" fill="#000000">INTEGER</text>
<text text-anchor="start" x="852.5" y="-122.6" font-family="Bitstream Vera Sans" font-size="8.00" fill="#000000">⚪ code</text>
<text text-anchor="start" x="895.5" y="-122.6" font-family="Bitstream Vera Sans" font-size="8.00" fill="#000000">VARCHAR</text>
<text text-anchor="start" x="852.5" y="-109.6" font-family="Bitstream Vera Sans" font-size="8.00" fill="#000000">⚪ name</text>
<text text-anchor="start" x="895.5" y="-109.6" font-family="Bitstream Vera Sans" font-size="8.00" fill="#000000">VARCHAR</text>
<text text-anchor="start" x="852.5" y="-96.6" font-family="Bitstream Vera Sans" font-size="8.00" fill="#000000">⚪ symbol</text>
<text text-anchor="start" x="895.5" y="-96.6" font-family="Bitstream Vera Sans" font-size="8.00" fill="#000000">VARCHAR</text>
</g>
<!-- bridge_main_array_currencies&#45;&gt;currencies -->
<g id="edge8" class="edge">
<title>bridge_main_array_currencies&#45;&gt;currencies</title>
<path fill="none" stroke="#000000" d="M888.341,-346.6912C889.6419,-306.7718 892.1665,-229.2976 893.843,-177.8493"/>
<polygon fill="none" stroke="#000000" points="893.8483,-177.6833 890.0459,-171.5562 894.2392,-165.6897 898.0417,-171.8168 893.8483,-177.6833"/>
<text text-anchor="middle" x="919" y="-257.6" font-family="Bitstream Vera Sans" font-size="8.00" fill="#000000">currencies_id</text>
</g>
<!-- bridge_main_array_currencies&#45;&gt;main_array -->
<g id="edge7" class="edge">
<title>bridge_main_array_currencies&#45;&gt;main_array</title>
<path fill="none" stroke="#000000" d="M872.2466,-346.8909C859.3978,-325.067 840.7293,-292.7596 825.5,-264 822.778,-258.8596 820.0297,-253.5926 817.2798,-248.2585"/>
<polygon fill="none" stroke="#000000" points="817.1056,-247.9179 810.812,-244.3978 811.6407,-237.2345 817.9343,-240.7545 817.1056,-247.9179"/>
<text text-anchor="middle" x="856" y="-257.6" font-family="Bitstream Vera Sans" font-size="8.00" fill="#000000">main_array_id</text>
</g>
<!-- bridge_main_array_languages -->
<g id="node7" class="node">
<title>bridge_main_array_languages</title>
<polygon fill="#ffffe0" stroke="transparent" points="176.5,-351 176.5,-394 304.5,-394 304.5,-351 176.5,-351"/>
<polygon fill="#eee8aa" stroke="transparent" points="176.5,-376.5 176.5,-393.5 304.5,-393.5 304.5,-376.5 176.5,-376.5"/>
<text text-anchor="start" x="180.5" y="-383.1" font-family="Helvetica Bold" font-size="8.00" fill="#000000">bridge_main_array_languages</text>
<text text-anchor="start" x="178.5" y="-368.1" font-family="Bitstream Vera Sans" font-size="8.00" fill="#000000">☆ languages_id</text>
<text text-anchor="start" x="259.5" y="-368.1" font-family="Bitstream Vera Sans" font-size="8.00" fill="#000000">INTEGER</text>
<text text-anchor="start" x="178.5" y="-355.1" font-family="Bitstream Vera Sans" font-size="8.00" fill="#000000">☆ main_array_id</text>
<text text-anchor="start" x="259.5" y="-355.1" font-family="Bitstream Vera Sans" font-size="8.00" fill="#000000">INTEGER</text>
</g>
<!-- languages -->
<g id="node17" class="node">
<title>languages</title>
<polygon fill="#ffffe0" stroke="transparent" points="183.5,-86 183.5,-168 293.5,-168 293.5,-86 183.5,-86"/>
<polygon fill="#eee8aa" stroke="transparent" points="183.5,-151 183.5,-168 293.5,-168 293.5,-151 183.5,-151"/>
<text text-anchor="start" x="217.5" y="-157.6" font-family="Helvetica Bold" font-size="8.00" fill="#000000">languages</text>
<text text-anchor="start" x="185.5" y="-142.6" font-family="Bitstream Vera Sans" font-size="8.00" fill="#000000">★ _id</text>
<text text-anchor="start" x="248.5" y="-142.6" font-family="Bitstream Vera Sans" font-size="8.00" fill="#000000">INTEGER</text>
<text text-anchor="start" x="185.5" y="-129.6" font-family="Bitstream Vera Sans" font-size="8.00" fill="#000000">⚪ iso639_1</text>
<text text-anchor="start" x="248.5" y="-129.6" font-family="Bitstream Vera Sans" font-size="8.00" fill="#000000">VARCHAR</text>
<text text-anchor="start" x="185.5" y="-116.6" font-family="Bitstream Vera Sans" font-size="8.00" fill="#000000">⚪ iso639_2</text>
<text text-anchor="start" x="248.5" y="-116.6" font-family="Bitstream Vera Sans" font-size="8.00" fill="#000000">VARCHAR</text>
<text text-anchor="start" x="185.5" y="-103.6" font-family="Bitstream Vera Sans" font-size="8.00" fill="#000000">⚪ name</text>
<text text-anchor="start" x="248.5" y="-103.6" font-family="Bitstream Vera Sans" font-size="8.00" fill="#000000">VARCHAR</text>
<text text-anchor="start" x="185.5" y="-90.6" font-family="Bitstream Vera Sans" font-size="8.00" fill="#000000">⚪ nativeName</text>
<text text-anchor="start" x="248.5" y="-90.6" font-family="Bitstream Vera Sans" font-size="8.00" fill="#000000">VARCHAR</text>
</g>
<!-- bridge_main_array_languages&#45;&gt;languages -->
<g id="edge10" class="edge">
<title>bridge_main_array_languages&#45;&gt;languages</title>
<path fill="none" stroke="#000000" d="M240.2476,-346.6316C240.0366,-324.6496 239.7333,-292.2554 239.5,-264 239.2832,-237.7525 239.0675,-208.676 238.8923,-184.0872"/>
<polygon fill="none" stroke="#000000" points="238.8921,-184.0436 234.8497,-178.0721 238.8071,-172.0439 242.8495,-178.0154 238.8921,-184.0436"/>
<text text-anchor="middle" x="267.5" y="-257.6" font-family="Bitstream Vera Sans" font-size="8.00" fill="#000000">languages_id</text>
</g>
<!-- bridge_main_array_languages&#45;&gt;main_array -->
<g id="edge9" class="edge">
<title>bridge_main_array_languages&#45;&gt;main_array</title>
<path fill="none" stroke="#000000" d="M253.1981,-346.8185C268.6251,-318.741 297.5048,-275.076 336.5,-255 391.1467,-226.8661 554.8775,-258.3876 612.5,-237 637.5272,-227.7107 661.8706,-212.6496 683.2773,-196.6128"/>
<polygon fill="none" stroke="#000000" points="683.3957,-196.5215 685.7041,-189.6898 692.8981,-189.1931 690.5897,-196.0248 683.3957,-196.5215"/>
<text text-anchor="middle" x="367" y="-257.6" font-family="Bitstream Vera Sans" font-size="8.00" fill="#000000">main_array_id</text>
</g>
<!-- bridge_main_array_latlng -->
<g id="node8" class="node">
<title>bridge_main_array_latlng</title>
<polygon fill="#ffffe0" stroke="transparent" points="986,-351 986,-394 1103,-394 1103,-351 986,-351"/>
<polygon fill="#eee8aa" stroke="transparent" points="986.5,-376.5 986.5,-393.5 1103.5,-393.5 1103.5,-376.5 986.5,-376.5"/>
<text text-anchor="start" x="994.5" y="-383.1" font-family="Helvetica Bold" font-size="8.00" fill="#000000">bridge_main_array_latlng</text>
<text text-anchor="start" x="988.5" y="-368.1" font-family="Bitstream Vera Sans" font-size="8.00" fill="#000000">☆ latlng_id</text>
<text text-anchor="start" x="1064.5" y="-368.1" font-family="Bitstream Vera Sans" font-size="8.00" fill="#000000">INTEGER</text>
<text text-anchor="start" x="988.5" y="-355.1" font-family="Bitstream Vera Sans" font-size="8.00" fill="#000000">☆ main_array_id</text>
<text text-anchor="start" x="1064.5" y="-355.1" font-family="Bitstream Vera Sans" font-size="8.00" fill="#000000">INTEGER</text>
</g>
<!-- latlng -->
<g id="node18" class="node">
<title>latlng</title>
<polygon fill="#ffffe0" stroke="transparent" points="1021.5,-105.5 1021.5,-148.5 1097.5,-148.5 1097.5,-105.5 1021.5,-105.5"/>
<polygon fill="#eee8aa" stroke="transparent" points="1021.5,-131 1021.5,-148 1097.5,-148 1097.5,-131 1021.5,-131"/>
<text text-anchor="start" x="1048" y="-137.6" font-family="Helvetica Bold" font-size="8.00" fill="#000000">latlng</text>
<text text-anchor="start" x="1023.5" y="-122.6" font-family="Bitstream Vera Sans" font-size="8.00" fill="#000000">★ _id</text>
<text text-anchor="start" x="1058.5" y="-122.6" font-family="Bitstream Vera Sans" font-size="8.00" fill="#000000">INTEGER</text>
<text text-anchor="start" x="1023.5" y="-109.6" font-family="Bitstream Vera Sans" font-size="8.00" fill="#000000">⚪ value</text>
<text text-anchor="start" x="1058.5" y="-109.6" font-family="Bitstream Vera Sans" font-size="8.00" fill="#000000">FLOAT</text>
</g>
<!-- bridge_main_array_latlng&#45;&gt;latlng -->
<g id="edge12" class="edge">
<title>bridge_main_array_latlng&#45;&gt;latlng</title>
<path fill="none" stroke="#000000" d="M1046.0769,-346.6912C1048.7271,-303.3166 1054.0863,-215.6048 1057.1711,-165.1163"/>
<polygon fill="none" stroke="#000000" points="1057.1898,-164.809 1053.5632,-158.5762 1057.9217,-152.8314 1061.5483,-159.0642 1057.1898,-164.809"/>
<text text-anchor="middle" x="1069.5" y="-257.6" font-family="Bitstream Vera Sans" font-size="8.00" fill="#000000">latlng_id</text>
</g>
<!-- bridge_main_array_latlng&#45;&gt;main_array -->
<g id="edge11" class="edge">
<title>bridge_main_array_latlng&#45;&gt;main_array</title>
<path fill="none" stroke="#000000" d="M1031.6704,-346.6885C1016.5216,-319.1427 988.6164,-276.5641 951.5,-255 908.6749,-230.1192 882.0941,-260.6419 834.5972,-236.3973"/>
<polygon fill="none" stroke="#000000" points="834.5226,-236.3542 827.3264,-236.8174 824.1311,-230.3528 831.3273,-229.8897 834.5226,-236.3542"/>
<text text-anchor="middle" x="995" y="-257.6" font-family="Bitstream Vera Sans" font-size="8.00" fill="#000000">main_array_id</text>
</g>
<!-- bridge_main_array_regionalBlocs -->
<g id="node9" class="node">
<title>bridge_main_array_regionalBlocs</title>
<polygon fill="#ffffe0" stroke="transparent" points="1637,-351 1637,-394 1778,-394 1778,-351 1637,-351"/>
<polygon fill="#eee8aa" stroke="transparent" points="1637.5,-376.5 1637.5,-393.5 1778.5,-393.5 1778.5,-376.5 1637.5,-376.5"/>
<text text-anchor="start" x="1641.5" y="-383.1" font-family="Helvetica Bold" font-size="8.00" fill="#000000">bridge_main_array_regionalBlocs</text>
<text text-anchor="start" x="1639.5" y="-368.1" font-family="Bitstream Vera Sans" font-size="8.00" fill="#000000">☆ main_array_id</text>
<text text-anchor="start" x="1731.5" y="-368.1" font-family="Bitstream Vera Sans" font-size="8.00" fill="#000000">INTEGER</text>
<text text-anchor="start" x="1639.5" y="-355.1" font-family="Bitstream Vera Sans" font-size="8.00" fill="#000000">☆ regionalBlocs_id</text>
<text text-anchor="start" x="1731.5" y="-355.1" font-family="Bitstream Vera Sans" font-size="8.00" fill="#000000">INTEGER</text>
</g>
<!-- bridge_main_array_regionalBlocs&#45;&gt;main_array -->
<g id="edge13" class="edge">
<title>bridge_main_array_regionalBlocs&#45;&gt;main_array</title>
<path fill="none" stroke="#000000" d="M1691.3294,-346.7805C1671.3257,-317.759 1634.2452,-272.3412 1588.5,-255 1512.9476,-226.3594 951.2348,-273.3557 835.4393,-235.8303"/>
<polygon fill="none" stroke="#000000" points="835.1697,-235.7182 828.0932,-237.1048 824.0915,-231.1059 831.168,-229.7193 835.1697,-235.7182"/>
<text text-anchor="middle" x="1635" y="-257.6" font-family="Bitstream Vera Sans" font-size="8.00" fill="#000000">main_array_id</text>
</g>
<!-- regionalBlocs -->
<g id="node23" class="node">
<title>regionalBlocs</title>
<polygon fill="#ffffe0" stroke="transparent" points="1876,-99 1876,-155 1973,-155 1973,-99 1876,-99"/>
<polygon fill="#eee8aa" stroke="transparent" points="1876.5,-138 1876.5,-155 1973.5,-155 1973.5,-138 1876.5,-138"/>
<text text-anchor="start" x="1897.5" y="-144.6" font-family="Helvetica Bold" font-size="8.00" fill="#000000">regionalBlocs</text>
<text text-anchor="start" x="1878.5" y="-129.6" font-family="Bitstream Vera Sans" font-size="8.00" fill="#000000">★ _id</text>
<text text-anchor="start" x="1928.5" y="-129.6" font-family="Bitstream Vera Sans" font-size="8.00" fill="#000000">INTEGER</text>
<text text-anchor="start" x="1878.5" y="-116.6" font-family="Bitstream Vera Sans" font-size="8.00" fill="#000000">⚪ acronym</text>
<text text-anchor="start" x="1928.5" y="-116.6" font-family="Bitstream Vera Sans" font-size="8.00" fill="#000000">VARCHAR</text>
<text text-anchor="start" x="1878.5" y="-103.6" font-family="Bitstream Vera Sans" font-size="8.00" fill="#000000">⚪ name</text>
<text text-anchor="start" x="1928.5" y="-103.6" font-family="Bitstream Vera Sans" font-size="8.00" fill="#000000">VARCHAR</text>
</g>
<!-- bridge_main_array_regionalBlocs&#45;&gt;regionalBlocs -->
<g id="edge14" class="edge">
<title>bridge_main_array_regionalBlocs&#45;&gt;regionalBlocs</title>
<path fill="none" stroke="#000000" d="M1707.6225,-346.7756C1709.234,-319.7209 1716.2016,-277.9549 1742.5,-255 1781.8054,-220.6917 1815.2105,-266.1204 1858.5,-237 1882.0825,-221.1363 1898.5544,-193.7531 1909.1448,-170.2777"/>
<polygon fill="none" stroke="#000000" points="1909.1861,-170.1803 1907.8495,-163.0941 1913.8765,-159.1349 1915.2131,-166.2211 1909.1861,-170.1803"/>
<text text-anchor="middle" x="1777.5" y="-257.6" font-family="Bitstream Vera Sans" font-size="8.00" fill="#000000">regionalBlocs_id</text>
</g>
<!-- bridge_main_array_timezones -->
<g id="node10" class="node">
<title>bridge_main_array_timezones</title>
<polygon fill="#ffffe0" stroke="transparent" points="1137.5,-351 1137.5,-394 1265.5,-394 1265.5,-351 1137.5,-351"/>
<polygon fill="#eee8aa" stroke="transparent" points="1137.5,-376.5 1137.5,-393.5 1265.5,-393.5 1265.5,-376.5 1137.5,-376.5"/>
<text text-anchor="start" x="1141.5" y="-383.1" font-family="Helvetica Bold" font-size="8.00" fill="#000000">bridge_main_array_timezones</text>
<text text-anchor="start" x="1139.5" y="-368.1" font-family="Bitstream Vera Sans" font-size="8.00" fill="#000000">☆ main_array_id</text>
<text text-anchor="start" x="1220.5" y="-368.1" font-family="Bitstream Vera Sans" font-size="8.00" fill="#000000">INTEGER</text>
<text text-anchor="start" x="1139.5" y="-355.1" font-family="Bitstream Vera Sans" font-size="8.00" fill="#000000">☆ timezones_id</text>
<text text-anchor="start" x="1220.5" y="-355.1" font-family="Bitstream Vera Sans" font-size="8.00" fill="#000000">INTEGER</text>
</g>
<!-- bridge_main_array_timezones&#45;&gt;main_array -->
<g id="edge15" class="edge">
<title>bridge_main_array_timezones&#45;&gt;main_array</title>
<path fill="none" stroke="#000000" d="M1186.5434,-346.7657C1168.275,-318.1922 1134.4321,-273.6431 1091.5,-255 1041.7691,-233.4045 900.6254,-261.9937 835.1413,-236.1729"/>
<polygon fill="none" stroke="#000000" points="835.0147,-236.1121 827.8738,-237.1163 824.2004,-230.9109 831.3413,-229.9068 835.0147,-236.1121"/>
<text text-anchor="middle" x="1137" y="-257.6" font-family="Bitstream Vera Sans" font-size="8.00" fill="#000000">main_array_id</text>
</g>
<!-- timezones -->
<g id="node24" class="node">
<title>timezones</title>
<polygon fill="#ffffe0" stroke="transparent" points="1161.5,-105.5 1161.5,-148.5 1243.5,-148.5 1243.5,-105.5 1161.5,-105.5"/>
<polygon fill="#eee8aa" stroke="transparent" points="1161.5,-131 1161.5,-148 1243.5,-148 1243.5,-131 1161.5,-131"/>
<text text-anchor="start" x="1181.5" y="-137.6" font-family="Helvetica Bold" font-size="8.00" fill="#000000">timezones</text>
<text text-anchor="start" x="1163.5" y="-122.6" font-family="Bitstream Vera Sans" font-size="8.00" fill="#000000">★ _id</text>
<text text-anchor="start" x="1198.5" y="-122.6" font-family="Bitstream Vera Sans" font-size="8.00" fill="#000000">INTEGER</text>
<text text-anchor="start" x="1163.5" y="-109.6" font-family="Bitstream Vera Sans" font-size="8.00" fill="#000000">⚪ value</text>
<text text-anchor="start" x="1198.5" y="-109.6" font-family="Bitstream Vera Sans" font-size="8.00" fill="#000000">VARCHAR</text>
</g>
<!-- bridge_main_array_timezones&#45;&gt;timezones -->
<g id="edge16" class="edge">
<title>bridge_main_array_timezones&#45;&gt;timezones</title>
<path fill="none" stroke="#000000" d="M1201.6051,-346.6912C1201.7818,-303.3166 1202.1391,-215.6048 1202.3447,-165.1163"/>
<polygon fill="none" stroke="#000000" points="1202.3458,-164.8313 1198.3703,-158.815 1202.3948,-152.8314 1206.3703,-158.8476 1202.3458,-164.8313"/>
<text text-anchor="middle" x="1229.5" y="-257.6" font-family="Bitstream Vera Sans" font-size="8.00" fill="#000000">timezones_id</text>
</g>
<!-- bridge_main_array_topLevelDomain -->
<g id="node11" class="node">
<title>bridge_main_array_topLevelDomain</title>
<polygon fill="#ffffe0" stroke="transparent" points="1299.5,-351 1299.5,-394 1451.5,-394 1451.5,-351 1299.5,-351"/>
<polygon fill="#eee8aa" stroke="transparent" points="1299.5,-376.5 1299.5,-393.5 1451.5,-393.5 1451.5,-376.5 1299.5,-376.5"/>
<text text-anchor="start" x="1303.5" y="-383.1" font-family="Helvetica Bold" font-size="8.00" fill="#000000">bridge_main_array_topLevelDomain</text>
<text text-anchor="start" x="1301.5" y="-368.1" font-family="Bitstream Vera Sans" font-size="8.00" fill="#000000">☆ main_array_id</text>
<text text-anchor="start" x="1404.5" y="-368.1" font-family="Bitstream Vera Sans" font-size="8.00" fill="#000000">INTEGER</text>
<text text-anchor="start" x="1301.5" y="-355.1" font-family="Bitstream Vera Sans" font-size="8.00" fill="#000000">☆ topLevelDomain_id</text>
<text text-anchor="start" x="1404.5" y="-355.1" font-family="Bitstream Vera Sans" font-size="8.00" fill="#000000">INTEGER</text>
</g>
<!-- bridge_main_array_topLevelDomain&#45;&gt;main_array -->
<g id="edge17" class="edge">
<title>bridge_main_array_topLevelDomain&#45;&gt;main_array</title>
<path fill="none" stroke="#000000" d="M1359.4507,-346.8076C1340.1309,-318.4983 1304.8157,-274.4098 1261.5,-255 1177.8516,-217.5171 935.6174,-278.4007 835.1065,-236.3591"/>
<polygon fill="none" stroke="#000000" points="834.9277,-236.2723 827.7829,-237.2481 824.1342,-231.0282 831.279,-230.0524 834.9277,-236.2723"/>
<text text-anchor="middle" x="1307" y="-257.6" font-family="Bitstream Vera Sans" font-size="8.00" fill="#000000">main_array_id</text>
</g>
<!-- topLevelDomain -->
<g id="node25" class="node">
<title>topLevelDomain</title>
<polygon fill="#ffffe0" stroke="transparent" points="1329.5,-105.5 1329.5,-148.5 1411.5,-148.5 1411.5,-105.5 1329.5,-105.5"/>
<polygon fill="#eee8aa" stroke="transparent" points="1329.5,-131 1329.5,-148 1411.5,-148 1411.5,-131 1329.5,-131"/>
<text text-anchor="start" x="1337.5" y="-137.6" font-family="Helvetica Bold" font-size="8.00" fill="#000000">topLevelDomain</text>
<text text-anchor="start" x="1331.5" y="-122.6" font-family="Bitstream Vera Sans" font-size="8.00" fill="#000000">★ _id</text>
<text text-anchor="start" x="1366.5" y="-122.6" font-family="Bitstream Vera Sans" font-size="8.00" fill="#000000">INTEGER</text>
<text text-anchor="start" x="1331.5" y="-109.6" font-family="Bitstream Vera Sans" font-size="8.00" fill="#000000">⚪ value</text>
<text text-anchor="start" x="1366.5" y="-109.6" font-family="Bitstream Vera Sans" font-size="8.00" fill="#000000">VARCHAR</text>
</g>
<!-- bridge_main_array_topLevelDomain&#45;&gt;topLevelDomain -->
<g id="edge18" class="edge">
<title>bridge_main_array_topLevelDomain&#45;&gt;topLevelDomain</title>
<path fill="none" stroke="#000000" d="M1374.3315,-346.6378C1373.3901,-324.6596 1372.1241,-292.2675 1371.5,-264 1370.759,-230.436 1370.5311,-192.2365 1370.4758,-164.7163"/>
<polygon fill="none" stroke="#000000" points="1370.4756,-164.5055 1366.4684,-158.5103 1370.4611,-152.5055 1374.4684,-158.5006 1370.4756,-164.5055"/>
<text text-anchor="middle" x="1412" y="-257.6" font-family="Bitstream Vera Sans" font-size="8.00" fill="#000000">topLevelDomain_id</text>
</g>
<!-- bridge_main_main_array -->
<g id="node12" class="node">
<title>bridge_main_main_array</title>
<polygon fill="#ffffe0" stroke="transparent" points="1486,-351 1486,-394 1603,-394 1603,-351 1486,-351"/>
<polygon fill="#eee8aa" stroke="transparent" points="1486.5,-376.5 1486.5,-393.5 1603.5,-393.5 1603.5,-376.5 1486.5,-376.5"/>
<text text-anchor="start" x="1496" y="-383.1" font-family="Helvetica Bold" font-size="8.00" fill="#000000">bridge_main_main_array</text>
<text text-anchor="start" x="1488.5" y="-368.1" font-family="Bitstream Vera Sans" font-size="8.00" fill="#000000">☆ main_array_id</text>
<text text-anchor="start" x="1564.5" y="-368.1" font-family="Bitstream Vera Sans" font-size="8.00" fill="#000000">INTEGER</text>
<text text-anchor="start" x="1488.5" y="-355.1" font-family="Bitstream Vera Sans" font-size="8.00" fill="#000000">☆ main_id</text>
<text text-anchor="start" x="1564.5" y="-355.1" font-family="Bitstream Vera Sans" font-size="8.00" fill="#000000">INTEGER</text>
</g>
<!-- main -->
<g id="node19" class="node">
<title>main</title>
<polygon fill="#ffffe0" stroke="transparent" points="1524.5,-112 1524.5,-142 1592.5,-142 1592.5,-112 1524.5,-112"/>
<polygon fill="#eee8aa" stroke="transparent" points="1524.5,-125 1524.5,-142 1592.5,-142 1592.5,-125 1524.5,-125"/>
<text text-anchor="start" x="1548.5" y="-131.6" font-family="Helvetica Bold" font-size="8.00" fill="#000000">main</text>
<text text-anchor="start" x="1526.5" y="-116.6" font-family="Bitstream Vera Sans" font-size="8.00" fill="#000000">★ _id</text>
<text text-anchor="start" x="1553.5" y="-116.6" font-family="Bitstream Vera Sans" font-size="8.00" fill="#000000">INTEGER</text>
</g>
<!-- bridge_main_main_array&#45;&gt;main -->
<g id="edge19" class="edge">
<title>bridge_main_main_array&#45;&gt;main</title>
<path fill="none" stroke="#000000" d="M1545.9718,-346.6912C1548.5625,-301.2616 1553.9268,-207.1937 1556.7208,-158.1992"/>
<polygon fill="none" stroke="#000000" points="1556.7211,-158.1918 1553.0693,-151.9737 1557.4045,-146.2112 1561.0563,-152.4293 1556.7211,-158.1918"/>
<text text-anchor="middle" x="1567.5" y="-257.6" font-family="Bitstream Vera Sans" font-size="8.00" fill="#000000">main_id</text>
</g>
<!-- bridge_main_main_array&#45;&gt;main_array -->
<g id="edge20" class="edge">
<title>bridge_main_main_array&#45;&gt;main_array</title>
<path fill="none" stroke="#000000" d="M1532.8758,-346.8439C1518.5028,-318.5679 1491.1186,-274.5099 1452.5,-255 1393.7244,-225.3068 935.7855,-266.2157 835.3949,-235.6462"/>
<polygon fill="none" stroke="#000000" points="835.2297,-235.5794 828.168,-237.0401 824.1037,-231.0835 831.1653,-229.6228 835.2297,-235.5794"/>
<text text-anchor="middle" x="1496" y="-257.6" font-family="Bitstream Vera Sans" font-size="8.00" fill="#000000">main_array_id</text>
</g>
<!-- bridge_regionalBlocs_otherAcronyms -->
<g id="node13" class="node">
<title>bridge_regionalBlocs_otherAcronyms</title>
<polygon fill="#ffffe0" stroke="transparent" points="1816,-351 1816,-394 1975,-394 1975,-351 1816,-351"/>
<polygon fill="#eee8aa" stroke="transparent" points="1816.5,-376.5 1816.5,-393.5 1975.5,-393.5 1975.5,-376.5 1816.5,-376.5"/>
<text text-anchor="start" x="1820.5" y="-383.1" font-family="Helvetica Bold" font-size="8.00" fill="#000000">bridge_regionalBlocs_otherAcronyms</text>
<text text-anchor="start" x="1818.5" y="-368.1" font-family="Bitstream Vera Sans" font-size="8.00" fill="#000000">☆ otherAcronyms_id</text>
<text text-anchor="start" x="1923.5" y="-368.1" font-family="Bitstream Vera Sans" font-size="8.00" fill="#000000">INTEGER</text>
<text text-anchor="start" x="1818.5" y="-355.1" font-family="Bitstream Vera Sans" font-size="8.00" fill="#000000">☆ regionalBlocs_id</text>
<text text-anchor="start" x="1923.5" y="-355.1" font-family="Bitstream Vera Sans" font-size="8.00" fill="#000000">INTEGER</text>
</g>
<!-- otherAcronyms -->
<g id="node21" class="node">
<title>otherAcronyms</title>
<polygon fill="#ffffe0" stroke="transparent" points="1759.5,-105.5 1759.5,-148.5 1841.5,-148.5 1841.5,-105.5 1759.5,-105.5"/>
<polygon fill="#eee8aa" stroke="transparent" points="1759.5,-131 1759.5,-148 1841.5,-148 1841.5,-131 1759.5,-131"/>
<text text-anchor="start" x="1769.5" y="-137.6" font-family="Helvetica Bold" font-size="8.00" fill="#000000">otherAcronyms</text>
<text text-anchor="start" x="1761.5" y="-122.6" font-family="Bitstream Vera Sans" font-size="8.00" fill="#000000">★ _id</text>
<text text-anchor="start" x="1796.5" y="-122.6" font-family="Bitstream Vera Sans" font-size="8.00" fill="#000000">INTEGER</text>
<text text-anchor="start" x="1761.5" y="-109.6" font-family="Bitstream Vera Sans" font-size="8.00" fill="#000000">⚪ value</text>
<text text-anchor="start" x="1796.5" y="-109.6" font-family="Bitstream Vera Sans" font-size="8.00" fill="#000000">VARCHAR</text>
</g>
<!-- bridge_regionalBlocs_otherAcronyms&#45;&gt;otherAcronyms -->
<g id="edge22" class="edge">
<title>bridge_regionalBlocs_otherAcronyms&#45;&gt;otherAcronyms</title>
<path fill="none" stroke="#000000" d="M1872.2648,-346.9278C1854.7729,-326.1468 1831.7804,-295.2512 1819.5,-264 1806.934,-232.022 1802.4794,-192.9918 1800.9944,-164.7828"/>
<polygon fill="none" stroke="#000000" points="1800.9886,-164.6377 1796.7489,-158.8046 1800.5026,-152.6475 1804.7423,-158.4806 1800.9886,-164.6377"/>
<text text-anchor="middle" x="1858.5" y="-257.6" font-family="Bitstream Vera Sans" font-size="8.00" fill="#000000">otherAcronyms_id</text>
</g>
<!-- bridge_regionalBlocs_otherAcronyms&#45;&gt;regionalBlocs -->
<g id="edge21" class="edge">
<title>bridge_regionalBlocs_otherAcronyms&#45;&gt;regionalBlocs</title>
<path fill="none" stroke="#000000" d="M1896.2139,-346.7568C1897.0695,-322.9035 1898.8699,-286.4663 1902.5,-255 1905.7386,-226.9276 1911.0789,-195.6641 1915.6869,-171.0619"/>
<polygon fill="none" stroke="#000000" points="1915.699,-170.998 1912.8933,-164.3551 1917.9461,-159.2103 1920.7518,-165.8532 1915.699,-170.998"/>
<text text-anchor="middle" x="1937.5" y="-257.6" font-family="Bitstream Vera Sans" font-size="8.00" fill="#000000">regionalBlocs_id</text>
</g>
<!-- bridge_regionalBlocs_otherNames -->
<g id="node14" class="node">
<title>bridge_regionalBlocs_otherNames</title>
<polygon fill="#ffffe0" stroke="transparent" points="2011.5,-351 2011.5,-394 2157.5,-394 2157.5,-351 2011.5,-351"/>
<polygon fill="#eee8aa" stroke="transparent" points="2011.5,-376.5 2011.5,-393.5 2157.5,-393.5 2157.5,-376.5 2011.5,-376.5"/>
<text text-anchor="start" x="2015.5" y="-383.1" font-family="Helvetica Bold" font-size="8.00" fill="#000000">bridge_regionalBlocs_otherNames</text>
<text text-anchor="start" x="2013.5" y="-368.1" font-family="Bitstream Vera Sans" font-size="8.00" fill="#000000">☆ otherNames_id</text>
<text text-anchor="start" x="2107.5" y="-368.1" font-family="Bitstream Vera Sans" font-size="8.00" fill="#000000">INTEGER</text>
<text text-anchor="start" x="2013.5" y="-355.1" font-family="Bitstream Vera Sans" font-size="8.00" fill="#000000">☆ regionalBlocs_id</text>
<text text-anchor="start" x="2107.5" y="-355.1" font-family="Bitstream Vera Sans" font-size="8.00" fill="#000000">INTEGER</text>
</g>
<!-- otherNames -->
<g id="node22" class="node">
<title>otherNames</title>
<polygon fill="#ffffe0" stroke="transparent" points="2046.5,-105.5 2046.5,-148.5 2128.5,-148.5 2128.5,-105.5 2046.5,-105.5"/>
<polygon fill="#eee8aa" stroke="transparent" points="2046.5,-131 2046.5,-148 2128.5,-148 2128.5,-131 2046.5,-131"/>
<text text-anchor="start" x="2063" y="-137.6" font-family="Helvetica Bold" font-size="8.00" fill="#000000">otherNames</text>
<text text-anchor="start" x="2048.5" y="-122.6" font-family="Bitstream Vera Sans" font-size="8.00" fill="#000000">★ _id</text>
<text text-anchor="start" x="2083.5" y="-122.6" font-family="Bitstream Vera Sans" font-size="8.00" fill="#000000">INTEGER</text>
<text text-anchor="start" x="2048.5" y="-109.6" font-family="Bitstream Vera Sans" font-size="8.00" fill="#000000">⚪ value</text>
<text text-anchor="start" x="2083.5" y="-109.6" font-family="Bitstream Vera Sans" font-size="8.00" fill="#000000">VARCHAR</text>
</g>
<!-- bridge_regionalBlocs_otherNames&#45;&gt;otherNames -->
<g id="edge24" class="edge">
<title>bridge_regionalBlocs_otherNames&#45;&gt;otherNames</title>
<path fill="none" stroke="#000000" d="M2084.8154,-346.6912C2085.3454,-303.3166 2086.4173,-215.6048 2087.0342,-165.1163"/>
<polygon fill="none" stroke="#000000" points="2087.0376,-164.8305 2083.1113,-158.782 2087.1843,-152.8314 2091.1107,-158.8798 2087.0376,-164.8305"/>
<text text-anchor="middle" x="2117.5" y="-257.6" font-family="Bitstream Vera Sans" font-size="8.00" fill="#000000">otherNames_id</text>
</g>
<!-- bridge_regionalBlocs_otherNames&#45;&gt;regionalBlocs -->
<g id="edge23" class="edge">
<title>bridge_regionalBlocs_otherNames&#45;&gt;regionalBlocs</title>
<path fill="none" stroke="#000000" d="M2066.9023,-346.7596C2051.9946,-324.8556 2030.1349,-292.5042 2011.5,-264 1990.9477,-232.563 1968.2094,-196.7182 1951.1343,-169.5802"/>
<polygon fill="none" stroke="#000000" points="1951.0367,-169.4247 1944.4576,-166.4725 1944.6523,-159.264 1951.2314,-162.2162 1951.0367,-169.4247"/>
<text text-anchor="middle" x="2046.5" y="-257.6" font-family="Bitstream Vera Sans" font-size="8.00" fill="#000000">regionalBlocs_id</text>
</g>
<!-- translations -->
<g id="node26" class="node">
<title>translations</title>
<polygon fill="#ffffe0" stroke="transparent" points="666,-286 666,-459 789,-459 789,-286 666,-286"/>
<polygon fill="#eee8aa" stroke="transparent" points="666.5,-441.5 666.5,-458.5 789.5,-458.5 789.5,-441.5 666.5,-441.5"/>
<text text-anchor="start" x="704" y="-448.1" font-family="Helvetica Bold" font-size="8.00" fill="#000000">translations</text>
<text text-anchor="start" x="668.5" y="-433.1" font-family="Bitstream Vera Sans" font-size="8.00" fill="#000000">★ _id</text>
<text text-anchor="start" x="744.5" y="-433.1" font-family="Bitstream Vera Sans" font-size="8.00" fill="#000000">INTEGER</text>
<text text-anchor="start" x="668.5" y="-420.1" font-family="Bitstream Vera Sans" font-size="8.00" fill="#000000">☆ main_array_id</text>
<text text-anchor="start" x="744.5" y="-420.1" font-family="Bitstream Vera Sans" font-size="8.00" fill="#000000">INTEGER</text>
<text text-anchor="start" x="668.5" y="-407.1" font-family="Bitstream Vera Sans" font-size="8.00" fill="#000000">⚪ br</text>
<text text-anchor="start" x="744.5" y="-407.1" font-family="Bitstream Vera Sans" font-size="8.00" fill="#000000">VARCHAR</text>
<text text-anchor="start" x="668.5" y="-394.1" font-family="Bitstream Vera Sans" font-size="8.00" fill="#000000">⚪ de</text>
<text text-anchor="start" x="744.5" y="-394.1" font-family="Bitstream Vera Sans" font-size="8.00" fill="#000000">VARCHAR</text>
<text text-anchor="start" x="668.5" y="-381.1" font-family="Bitstream Vera Sans" font-size="8.00" fill="#000000">⚪ es</text>
<text text-anchor="start" x="744.5" y="-381.1" font-family="Bitstream Vera Sans" font-size="8.00" fill="#000000">VARCHAR</text>
<text text-anchor="start" x="668.5" y="-368.1" font-family="Bitstream Vera Sans" font-size="8.00" fill="#000000">⚪ fa</text>
<text text-anchor="start" x="744.5" y="-368.1" font-family="Bitstream Vera Sans" font-size="8.00" fill="#000000">VARCHAR</text>
<text text-anchor="start" x="668.5" y="-355.1" font-family="Bitstream Vera Sans" font-size="8.00" fill="#000000">⚪ fr</text>
<text text-anchor="start" x="744.5" y="-355.1" font-family="Bitstream Vera Sans" font-size="8.00" fill="#000000">VARCHAR</text>
<text text-anchor="start" x="668.5" y="-342.1" font-family="Bitstream Vera Sans" font-size="8.00" fill="#000000">⚪ hr</text>
<text text-anchor="start" x="744.5" y="-342.1" font-family="Bitstream Vera Sans" font-size="8.00" fill="#000000">VARCHAR</text>
<text text-anchor="start" x="668.5" y="-329.1" font-family="Bitstream Vera Sans" font-size="8.00" fill="#000000">⚪ it</text>
<text text-anchor="start" x="744.5" y="-329.1" font-family="Bitstream Vera Sans" font-size="8.00" fill="#000000">VARCHAR</text>
<text text-anchor="start" x="668.5" y="-316.1" font-family="Bitstream Vera Sans" font-size="8.00" fill="#000000">⚪ ja</text>
<text text-anchor="start" x="744.5" y="-316.1" font-family="Bitstream Vera Sans" font-size="8.00" fill="#000000">VARCHAR</text>
<text text-anchor="start" x="668.5" y="-303.1" font-family="Bitstream Vera Sans" font-size="8.00" fill="#000000">⚪ nl</text>
<text text-anchor="start" x="744.5" y="-303.1" font-family="Bitstream Vera Sans" font-size="8.00" fill="#000000">VARCHAR</text>
<text text-anchor="start" x="668.5" y="-290.1" font-family="Bitstream Vera Sans" font-size="8.00" fill="#000000">⚪ pt</text>
<text text-anchor="start" x="744.5" y="-290.1" font-family="Bitstream Vera Sans" font-size="8.00" fill="#000000">VARCHAR</text>
</g>
<!-- translations&#45;&gt;main_array -->
<g id="edge25" class="edge">
<title>translations&#45;&gt;main_array</title>
<path fill="none" stroke="#000000" d="M726.2554,-281.9199C726.7335,-272.8084 727.4554,-263.7096 728.5,-255 728.7319,-253.0666 728.9816,-251.12 729.2478,-249.1631"/>
<polygon fill="none" stroke="#000000" points="729.2867,-248.9048 726.2264,-242.3752 731.0767,-237.0391 734.1369,-243.5686 729.2867,-248.9048"/>
<text text-anchor="middle" x="759" y="-257.6" font-family="Bitstream Vera Sans" font-size="8.00" fill="#000000">main_array_id</text>
</g>
</g>
</svg>
