<?xml version="1.0" encoding="UTF-8" standalone="no"?>
<!DOCTYPE svg PUBLIC "-//W3C//DTD SVG 1.1//EN"
 "http://www.w3.org/Graphics/SVG/1.1/DTD/svg11.dtd">
<!-- Generated by graphviz version 2.40.1 (20161225.0304)
 -->
<!-- Title: G Pages: 1 -->
<svg width="1801pt" height="632pt"
 viewBox="0.00 0.00 1800.50 632.00" xmlns="http://www.w3.org/2000/svg" xmlns:xlink="http://www.w3.org/1999/xlink">
<g id="graph0" class="graph" transform="scale(1 1) rotate(0) translate(4 628)">
<title>G</title>
<polygon fill="#ffffff" stroke="transparent" points="-4,4 -4,-628 1796.5,-628 1796.5,4 -4,4"/>
<text text-anchor="middle" x="896.25" y="-6.6" font-family="Bitstream Vera Sans" font-size="8.00" fill="#000000">generated by sadisplay v0.4.9</text>
<!-- altSpellings -->
<g id="node1" class="node">
<title>altSpellings</title>
<polygon fill="#ffffe0" stroke="transparent" points="141,-227.5 141,-270.5 223,-270.5 223,-227.5 141,-227.5"/>
<polygon fill="#eee8aa" stroke="transparent" points="141,-253 141,-270 223,-270 223,-253 141,-253"/>
<text text-anchor="start" x="158.5" y="-259.6" font-family="Helvetica Bold" font-size="8.00" fill="#000000">altSpellings</text>
<text text-anchor="start" x="143" y="-244.6" font-family="Bitstream Vera Sans" font-size="8.00" fill="#000000">★ _id</text>
<text text-anchor="start" x="178" y="-244.6" font-family="Bitstream Vera Sans" font-size="8.00" fill="#000000">INTEGER</text>
<text text-anchor="start" x="143" y="-231.6" font-family="Bitstream Vera Sans" font-size="8.00" fill="#000000">⚪ value</text>
<text text-anchor="start" x="178" y="-231.6" font-family="Bitstream Vera Sans" font-size="8.00" fill="#000000">VARCHAR</text>
</g>
<!-- borders -->
<g id="node2" class="node">
<title>borders</title>
<polygon fill="#ffffe0" stroke="transparent" points="1134,-227.5 1134,-270.5 1216,-270.5 1216,-227.5 1134,-227.5"/>
<polygon fill="#eee8aa" stroke="transparent" points="1134,-253 1134,-270 1216,-270 1216,-253 1134,-253"/>
<text text-anchor="start" x="1159.5" y="-259.6" font-family="Helvetica Bold" font-size="8.00" fill="#000000">borders</text>
<text text-anchor="start" x="1136" y="-244.6" font-family="Bitstream Vera Sans" font-size="8.00" fill="#000000">★ _id</text>
<text text-anchor="start" x="1171" y="-244.6" font-family="Bitstream Vera Sans" font-size="8.00" fill="#000000">INTEGER</text>
<text text-anchor="start" x="1136" y="-231.6" font-family="Bitstream Vera Sans" font-size="8.00" fill="#000000">⚪ value</text>
<text text-anchor="start" x="1171" y="-231.6" font-family="Bitstream Vera Sans" font-size="8.00" fill="#000000">VARCHAR</text>
</g>
<!-- bridge_main_main_array -->
<g id="node3" class="node">
<title>bridge_main_main_array</title>
<polygon fill="#ffffe0" stroke="transparent" points="674.5,-227.5 674.5,-270.5 791.5,-270.5 791.5,-227.5 674.5,-227.5"/>
<polygon fill="#eee8aa" stroke="transparent" points="675,-253 675,-270 792,-270 792,-253 675,-253"/>
<text text-anchor="start" x="684.5" y="-259.6" font-family="Helvetica Bold" font-size="8.00" fill="#000000">bridge_main_main_array</text>
<text text-anchor="start" x="677" y="-244.6" font-family="Bitstream Vera Sans" font-size="8.00" fill="#000000">☆ main_array_id</text>
<text text-anchor="start" x="753" y="-244.6" font-family="Bitstream Vera Sans" font-size="8.00" fill="#000000">INTEGER</text>
<text text-anchor="start" x="677" y="-231.6" font-family="Bitstream Vera Sans" font-size="8.00" fill="#000000">☆ main_id</text>
<text text-anchor="start" x="753" y="-231.6" font-family="Bitstream Vera Sans" font-size="8.00" fill="#000000">INTEGER</text>
</g>
<!-- main -->
<g id="node19" class="node">
<title>main</title>
<polygon fill="#ffffe0" stroke="transparent" points="699,-21 699,-51 767,-51 767,-21 699,-21"/>
<polygon fill="#eee8aa" stroke="transparent" points="699,-34 699,-51 767,-51 767,-34 699,-34"/>
<text text-anchor="start" x="723" y="-40.6" font-family="Helvetica Bold" font-size="8.00" fill="#000000">main</text>
<text text-anchor="start" x="701" y="-25.6" font-family="Bitstream Vera Sans" font-size="8.00" fill="#000000">★ _id</text>
<text text-anchor="start" x="728" y="-25.6" font-family="Bitstream Vera Sans" font-size="8.00" fill="#000000">INTEGER</text>
</g>
<!-- bridge_main_main_array&#45;&gt;main -->
<g id="edge1" class="edge">
<title>bridge_main_main_array&#45;&gt;main</title>
<path fill="none" stroke="#000000" d="M733,-223.3072C733,-184.1845 733,-109.7685 733,-67.4632"/>
<polygon fill="none" stroke="#000000" points="733.0001,-67.1904 729,-61.1904 733,-55.1904 737,-61.1904 733.0001,-67.1904"/>
<text text-anchor="middle" x="750" y="-75.6" font-family="Bitstream Vera Sans" font-size="8.00" fill="#000000">main_id</text>
</g>
<!-- main_array -->
<g id="node20" class="node">
<title>main_array</title>
<polygon fill="#ffffe0" stroke="transparent" points="825,-21 825,-51 893,-51 893,-21 825,-21"/>
<polygon fill="#eee8aa" stroke="transparent" points="825,-34 825,-51 893,-51 893,-34 825,-34"/>
<text text-anchor="start" x="837" y="-40.6" font-family="Helvetica Bold" font-size="8.00" fill="#000000">main_array</text>
<text text-anchor="start" x="827" y="-25.6" font-family="Bitstream Vera Sans" font-size="8.00" fill="#000000">★ _id</text>
<text text-anchor="start" x="854" y="-25.6" font-family="Bitstream Vera Sans" font-size="8.00" fill="#000000">INTEGER</text>
</g>
<!-- bridge_main_main_array&#45;&gt;main_array -->
<g id="edge2" class="edge">
<title>bridge_main_main_array&#45;&gt;main_array</title>
<path fill="none" stroke="#000000" d="M737.1881,-223.3614C744.308,-186.563 761.7819,-118.2334 799,-73 802.1929,-69.1195 805.9052,-65.5319 809.8882,-62.2431"/>
<polygon fill="none" stroke="#000000" points="809.8977,-62.2361 812.3528,-55.4558 819.5558,-55.1142 817.1007,-61.8946 809.8977,-62.2361"/>
<text text-anchor="middle" x="829.5" y="-75.6" font-family="Bitstream Vera Sans" font-size="8.00" fill="#000000">main_array_id</text>
</g>
<!-- bridge_value_altSpellings -->
<g id="node4" class="node">
<title>bridge_value_altSpellings</title>
<polygon fill="#ffffe0" stroke="transparent" points="165,-512 165,-555 281,-555 281,-512 165,-512"/>
<polygon fill="#eee8aa" stroke="transparent" points="165,-537.5 165,-554.5 281,-554.5 281,-537.5 165,-537.5"/>
<text text-anchor="start" x="171.5" y="-544.1" font-family="Helvetica Bold" font-size="8.00" fill="#000000">bridge_value_altSpellings</text>
<text text-anchor="start" x="167" y="-529.1" font-family="Bitstream Vera Sans" font-size="8.00" fill="#000000">☆ altSpellings_id</text>
<text text-anchor="start" x="242" y="-529.1" font-family="Bitstream Vera Sans" font-size="8.00" fill="#000000">INTEGER</text>
<text text-anchor="start" x="167" y="-516.1" font-family="Bitstream Vera Sans" font-size="8.00" fill="#000000">☆ value_id</text>
<text text-anchor="start" x="242" y="-516.1" font-family="Bitstream Vera Sans" font-size="8.00" fill="#000000">INTEGER</text>
</g>
<!-- bridge_value_altSpellings&#45;&gt;altSpellings -->
<g id="edge4" class="edge">
<title>bridge_value_altSpellings&#45;&gt;altSpellings</title>
<path fill="none" stroke="#000000" d="M210.6758,-507.9065C201.0135,-486.3597 188.339,-454.4331 183,-425 174.4756,-378.0063 175.9878,-322.7871 178.4585,-286.9055"/>
<polygon fill="none" stroke="#000000" points="178.4834,-286.5772 174.9509,-280.2906 179.3952,-274.6119 182.9277,-280.8985 178.4834,-286.5772"/>
<text text-anchor="middle" x="213.5" y="-418.6" font-family="Bitstream Vera Sans" font-size="8.00" fill="#000000">altSpellings_id</text>
</g>
<!-- value -->
<g id="node27" class="node">
<title>value</title>
<polygon fill="#ffffe0" stroke="transparent" points="825.5,-104 825.5,-394 948.5,-394 948.5,-104 825.5,-104"/>
<polygon fill="#eee8aa" stroke="transparent" points="826,-377 826,-394 949,-394 949,-377 826,-377"/>
<text text-anchor="start" x="876.5" y="-383.6" font-family="Helvetica Bold" font-size="8.00" fill="#000000">value</text>
<text text-anchor="start" x="828" y="-368.6" font-family="Bitstream Vera Sans" font-size="8.00" fill="#000000">★ _id</text>
<text text-anchor="start" x="904" y="-368.6" font-family="Bitstream Vera Sans" font-size="8.00" fill="#000000">INTEGER</text>
<text text-anchor="start" x="828" y="-355.6" font-family="Bitstream Vera Sans" font-size="8.00" fill="#000000">☆ main_array_id</text>
<text text-anchor="start" x="904" y="-355.6" font-family="Bitstream Vera Sans" font-size="8.00" fill="#000000">INTEGER</text>
<text text-anchor="start" x="828" y="-342.6" font-family="Bitstream Vera Sans" font-size="8.00" fill="#000000">⚪ acronym</text>
<text text-anchor="start" x="904" y="-342.6" font-family="Bitstream Vera Sans" font-size="8.00" fill="#000000">VARCHAR</text>
<text text-anchor="start" x="828" y="-329.6" font-family="Bitstream Vera Sans" font-size="8.00" fill="#000000">⚪ alpha2Code</text>
<text text-anchor="start" x="904" y="-329.6" font-family="Bitstream Vera Sans" font-size="8.00" fill="#000000">VARCHAR</text>
<text text-anchor="start" x="828" y="-316.6" font-family="Bitstream Vera Sans" font-size="8.00" fill="#000000">⚪ alpha3Code</text>
<text text-anchor="start" x="904" y="-316.6" font-family="Bitstream Vera Sans" font-size="8.00" fill="#000000">VARCHAR</text>
<text text-anchor="start" x="828" y="-303.6" font-family="Bitstream Vera Sans" font-size="8.00" fill="#000000">⚪ area</text>
<text text-anchor="start" x="904" y="-303.6" font-family="Bitstream Vera Sans" font-size="8.00" fill="#000000">FLOAT</text>
<text text-anchor="start" x="828" y="-290.6" font-family="Bitstream Vera Sans" font-size="8.00" fill="#000000">⚪ capital</text>
<text text-anchor="start" x="904" y="-290.6" font-family="Bitstream Vera Sans" font-size="8.00" fill="#000000">VARCHAR</text>
<text text-anchor="start" x="828" y="-277.6" font-family="Bitstream Vera Sans" font-size="8.00" fill="#000000">⚪ cioc</text>
<text text-anchor="start" x="904" y="-277.6" font-family="Bitstream Vera Sans" font-size="8.00" fill="#000000">VARCHAR</text>
<text text-anchor="start" x="828" y="-264.6" font-family="Bitstream Vera Sans" font-size="8.00" fill="#000000">⚪ code</text>
<text text-anchor="start" x="904" y="-264.6" font-family="Bitstream Vera Sans" font-size="8.00" fill="#000000">VARCHAR</text>
<text text-anchor="start" x="828" y="-251.6" font-family="Bitstream Vera Sans" font-size="8.00" fill="#000000">⚪ demonym</text>
<text text-anchor="start" x="904" y="-251.6" font-family="Bitstream Vera Sans" font-size="8.00" fill="#000000">VARCHAR</text>
<text text-anchor="start" x="828" y="-238.6" font-family="Bitstream Vera Sans" font-size="8.00" fill="#000000">⚪ flag</text>
<text text-anchor="start" x="904" y="-238.6" font-family="Bitstream Vera Sans" font-size="8.00" fill="#000000">VARCHAR</text>
<text text-anchor="start" x="828" y="-225.6" font-family="Bitstream Vera Sans" font-size="8.00" fill="#000000">⚪ gini</text>
<text text-anchor="start" x="904" y="-225.6" font-family="Bitstream Vera Sans" font-size="8.00" fill="#000000">FLOAT</text>
<text text-anchor="start" x="828" y="-212.6" font-family="Bitstream Vera Sans" font-size="8.00" fill="#000000">⚪ iso639_1</text>
<text text-anchor="start" x="904" y="-212.6" font-family="Bitstream Vera Sans" font-size="8.00" fill="#000000">VARCHAR</text>
<text text-anchor="start" x="828" y="-199.6" font-family="Bitstream Vera Sans" font-size="8.00" fill="#000000">⚪ iso639_2</text>
<text text-anchor="start" x="904" y="-199.6" font-family="Bitstream Vera Sans" font-size="8.00" fill="#000000">VARCHAR</text>
<text text-anchor="start" x="828" y="-186.6" font-family="Bitstream Vera Sans" font-size="8.00" fill="#000000">⚪ name</text>
<text text-anchor="start" x="904" y="-186.6" font-family="Bitstream Vera Sans" font-size="8.00" fill="#000000">VARCHAR</text>
<text text-anchor="start" x="828" y="-173.6" font-family="Bitstream Vera Sans" font-size="8.00" fill="#000000">⚪ nativeName</text>
<text text-anchor="start" x="904" y="-173.6" font-family="Bitstream Vera Sans" font-size="8.00" fill="#000000">VARCHAR</text>
<text text-anchor="start" x="828" y="-160.6" font-family="Bitstream Vera Sans" font-size="8.00" fill="#000000">⚪ numericCode</text>
<text text-anchor="start" x="904" y="-160.6" font-family="Bitstream Vera Sans" font-size="8.00" fill="#000000">VARCHAR</text>
<text text-anchor="start" x="828" y="-147.6" font-family="Bitstream Vera Sans" font-size="8.00" fill="#000000">⚪ population</text>
<text text-anchor="start" x="904" y="-147.6" font-family="Bitstream Vera Sans" font-size="8.00" fill="#000000">INTEGER</text>
<text text-anchor="start" x="828" y="-134.6" font-family="Bitstream Vera Sans" font-size="8.00" fill="#000000">⚪ region</text>
<text text-anchor="start" x="904" y="-134.6" font-family="Bitstream Vera Sans" font-size="8.00" fill="#000000">VARCHAR</text>
<text text-anchor="start" x="828" y="-121.6" font-family="Bitstream Vera Sans" font-size="8.00" fill="#000000">⚪ subregion</text>
<text text-anchor="start" x="904" y="-121.6" font-family="Bitstream Vera Sans" font-size="8.00" fill="#000000">VARCHAR</text>
<text text-anchor="start" x="828" y="-108.6" font-family="Bitstream Vera Sans" font-size="8.00" fill="#000000">⚪ symbol</text>
<text text-anchor="start" x="904" y="-108.6" font-family="Bitstream Vera Sans" font-size="8.00" fill="#000000">VARCHAR</text>
</g>
<!-- bridge_value_altSpellings&#45;&gt;value -->
<g id="edge3" class="edge">
<title>bridge_value_altSpellings&#45;&gt;value</title>
<path fill="none" stroke="#000000" d="M237.9924,-507.7788C257.1536,-478.0363 293.4856,-431.2131 340,-416 386.852,-400.6765 725.3426,-423.0699 806.2755,-396.3481"/>
<polygon fill="none" stroke="#000000" points="806.3494,-396.3151 810.1923,-390.2133 817.3028,-391.4137 813.4599,-397.5155 806.3494,-396.3151"/>
<text text-anchor="middle" x="358" y="-418.6" font-family="Bitstream Vera Sans" font-size="8.00" fill="#000000">value_id</text>
</g>
<!-- bridge_value_borders -->
<g id="node5" class="node">
<title>bridge_value_borders</title>
<polygon fill="#ffffe0" stroke="transparent" points="1088.5,-512 1088.5,-555 1189.5,-555 1189.5,-512 1088.5,-512"/>
<polygon fill="#eee8aa" stroke="transparent" points="1089,-537.5 1089,-554.5 1190,-554.5 1190,-537.5 1089,-537.5"/>
<text text-anchor="start" x="1096" y="-544.1" font-family="Helvetica Bold" font-size="8.00" fill="#000000">bridge_value_borders</text>
<text text-anchor="start" x="1091" y="-529.1" font-family="Bitstream Vera Sans" font-size="8.00" fill="#000000">☆ borders_id</text>
<text text-anchor="start" x="1151" y="-529.1" font-family="Bitstream Vera Sans" font-size="8.00" fill="#000000">INTEGER</text>
<text text-anchor="start" x="1091" y="-516.1" font-family="Bitstream Vera Sans" font-size="8.00" fill="#000000">☆ value_id</text>
<text text-anchor="start" x="1151" y="-516.1" font-family="Bitstream Vera Sans" font-size="8.00" fill="#000000">INTEGER</text>
</g>
<!-- bridge_value_borders&#45;&gt;borders -->
<g id="edge6" class="edge">
<title>bridge_value_borders&#45;&gt;borders</title>
<path fill="none" stroke="#000000" d="M1142.3667,-507.6352C1145.2207,-485.6553 1149.4102,-453.2624 1153,-425 1159.0474,-377.3882 1165.8859,-322.5133 1170.3106,-286.8674"/>
<polygon fill="none" stroke="#000000" points="1170.3484,-286.5625 1167.1174,-280.1157 1171.8256,-274.6538 1175.0566,-281.1006 1170.3484,-286.5625"/>
<text text-anchor="middle" x="1176" y="-418.6" font-family="Bitstream Vera Sans" font-size="8.00" fill="#000000">borders_id</text>
</g>
<!-- bridge_value_borders&#45;&gt;value -->
<g id="edge5" class="edge">
<title>bridge_value_borders&#45;&gt;value</title>
<path fill="none" stroke="#000000" d="M1126.6879,-507.5906C1115.2906,-486.6122 1096.2917,-458.1444 1071,-443 1025.8617,-415.9716 994.9144,-458.0758 954,-425 947.8264,-420.0091 942.2211,-414.3817 937.1319,-408.2833"/>
<polygon fill="none" stroke="#000000" points="936.8253,-407.8809 930.0071,-405.533 929.5519,-398.3363 936.3701,-400.6841 936.8253,-407.8809"/>
<text text-anchor="middle" x="972" y="-418.6" font-family="Bitstream Vera Sans" font-size="8.00" fill="#000000">value_id</text>
</g>
<!-- bridge_value_callingCodes -->
<g id="node6" class="node">
<title>bridge_value_callingCodes</title>
<polygon fill="#ffffe0" stroke="transparent" points="484.5,-512 484.5,-555 605.5,-555 605.5,-512 484.5,-512"/>
<polygon fill="#eee8aa" stroke="transparent" points="485,-537.5 485,-554.5 606,-554.5 606,-537.5 485,-537.5"/>
<text text-anchor="start" x="491.5" y="-544.1" font-family="Helvetica Bold" font-size="8.00" fill="#000000">bridge_value_callingCodes</text>
<text text-anchor="start" x="487" y="-529.1" font-family="Bitstream Vera Sans" font-size="8.00" fill="#000000">☆ callingCodes_id</text>
<text text-anchor="start" x="567" y="-529.1" font-family="Bitstream Vera Sans" font-size="8.00" fill="#000000">INTEGER</text>
<text text-anchor="start" x="487" y="-516.1" font-family="Bitstream Vera Sans" font-size="8.00" fill="#000000">☆ value_id</text>
<text text-anchor="start" x="567" y="-516.1" font-family="Bitstream Vera Sans" font-size="8.00" fill="#000000">INTEGER</text>
</g>
<!-- callingCodes -->
<g id="node15" class="node">
<title>callingCodes</title>
<polygon fill="#ffffe0" stroke="transparent" points="448,-227.5 448,-270.5 530,-270.5 530,-227.5 448,-227.5"/>
<polygon fill="#eee8aa" stroke="transparent" points="448,-253 448,-270 530,-270 530,-253 448,-253"/>
<text text-anchor="start" x="463" y="-259.6" font-family="Helvetica Bold" font-size="8.00" fill="#000000">callingCodes</text>
<text text-anchor="start" x="450" y="-244.6" font-family="Bitstream Vera Sans" font-size="8.00" fill="#000000">★ _id</text>
<text text-anchor="start" x="485" y="-244.6" font-family="Bitstream Vera Sans" font-size="8.00" fill="#000000">INTEGER</text>
<text text-anchor="start" x="450" y="-231.6" font-family="Bitstream Vera Sans" font-size="8.00" fill="#000000">⚪ value</text>
<text text-anchor="start" x="485" y="-231.6" font-family="Bitstream Vera Sans" font-size="8.00" fill="#000000">VARCHAR</text>
</g>
<!-- bridge_value_callingCodes&#45;&gt;callingCodes -->
<g id="edge8" class="edge">
<title>bridge_value_callingCodes&#45;&gt;callingCodes</title>
<path fill="none" stroke="#000000" d="M527.5492,-507.6509C514.3528,-486.4702 497.3016,-455.1737 490,-425 478.7348,-378.447 480.8902,-322.9179 484.2547,-286.8583"/>
<polygon fill="none" stroke="#000000" points="484.2972,-286.4437 480.9328,-280.0656 485.5263,-274.5068 488.8907,-280.885 484.2972,-286.4437"/>
<text text-anchor="middle" x="523" y="-418.6" font-family="Bitstream Vera Sans" font-size="8.00" fill="#000000">callingCodes_id</text>
</g>
<!-- bridge_value_callingCodes&#45;&gt;value -->
<g id="edge7" class="edge">
<title>bridge_value_callingCodes&#45;&gt;value</title>
<path fill="none" stroke="#000000" d="M560.6714,-507.7387C574.5383,-487.1402 596.6363,-459.1285 623,-443 641.0458,-431.9601 791.3,-410.9862 808,-398 808.1011,-397.9214 808.2021,-397.8426 808.303,-397.7636"/>
<polygon fill="none" stroke="#000000" points="808.2647,-397.7966 810.2011,-390.8503 817.3578,-389.9662 815.4214,-396.9124 808.2647,-397.7966"/>
<text text-anchor="middle" x="759" y="-418.6" font-family="Bitstream Vera Sans" font-size="8.00" fill="#000000">value_id</text>
</g>
<!-- bridge_value_currencies -->
<g id="node7" class="node">
<title>bridge_value_currencies</title>
<polygon fill="#ffffe0" stroke="transparent" points="640,-512 640,-555 752,-555 752,-512 640,-512"/>
<polygon fill="#eee8aa" stroke="transparent" points="640,-537.5 640,-554.5 752,-554.5 752,-537.5 640,-537.5"/>
<text text-anchor="start" x="647.5" y="-544.1" font-family="Helvetica Bold" font-size="8.00" fill="#000000">bridge_value_currencies</text>
<text text-anchor="start" x="642" y="-529.1" font-family="Bitstream Vera Sans" font-size="8.00" fill="#000000">☆ currencies_id</text>
<text text-anchor="start" x="713" y="-529.1" font-family="Bitstream Vera Sans" font-size="8.00" fill="#000000">INTEGER</text>
<text text-anchor="start" x="642" y="-516.1" font-family="Bitstream Vera Sans" font-size="8.00" fill="#000000">☆ value_id</text>
<text text-anchor="start" x="713" y="-516.1" font-family="Bitstream Vera Sans" font-size="8.00" fill="#000000">INTEGER</text>
</g>
<!-- currencies -->
<g id="node16" class="node">
<title>currencies</title>
<polygon fill="#ffffe0" stroke="transparent" points="564,-234 564,-264 632,-264 632,-234 564,-234"/>
<polygon fill="#eee8aa" stroke="transparent" points="564,-247 564,-264 632,-264 632,-247 564,-247"/>
<text text-anchor="start" x="577" y="-253.6" font-family="Helvetica Bold" font-size="8.00" fill="#000000">currencies</text>
<text text-anchor="start" x="566" y="-238.6" font-family="Bitstream Vera Sans" font-size="8.00" fill="#000000">★ _id</text>
<text text-anchor="start" x="593" y="-238.6" font-family="Bitstream Vera Sans" font-size="8.00" fill="#000000">INTEGER</text>
</g>
<!-- bridge_value_currencies&#45;&gt;currencies -->
<g id="edge10" class="edge">
<title>bridge_value_currencies&#45;&gt;currencies</title>
<path fill="none" stroke="#000000" d="M680.1839,-507.9531C666.7641,-488.0311 645.914,-460.8387 622,-443 605.3934,-430.6123 590.478,-442.2479 579,-425 549.732,-381.0194 568.3358,-316.7485 583.7185,-279.2657"/>
<polygon fill="none" stroke="#000000" points="583.783,-279.116 582.486,-272.0225 588.5349,-268.0969 589.832,-275.1904 583.783,-279.116"/>
<text text-anchor="middle" x="607.5" y="-418.6" font-family="Bitstream Vera Sans" font-size="8.00" fill="#000000">currencies_id</text>
</g>
<!-- bridge_value_currencies&#45;&gt;value -->
<g id="edge9" class="edge">
<title>bridge_value_currencies&#45;&gt;value</title>
<path fill="none" stroke="#000000" d="M716.2155,-507.9487C730.7386,-489.7133 750.8713,-464.6798 769,-443 785.9774,-422.697 793.0387,-419.8312 808,-398 808.8845,-396.7094 809.7665,-395.4077 810.6456,-394.0961"/>
<polygon fill="none" stroke="#000000" points="810.7675,-393.9093 810.6976,-386.6986 817.3269,-383.8607 817.3967,-391.0715 810.7675,-393.9093"/>
<text text-anchor="middle" x="812" y="-418.6" font-family="Bitstream Vera Sans" font-size="8.00" fill="#000000">value_id</text>
</g>
<!-- bridge_value_languages -->
<g id="node8" class="node">
<title>bridge_value_languages</title>
<polygon fill="#ffffe0" stroke="transparent" points="1224,-512 1224,-555 1336,-555 1336,-512 1224,-512"/>
<polygon fill="#eee8aa" stroke="transparent" points="1224,-537.5 1224,-554.5 1336,-554.5 1336,-537.5 1224,-537.5"/>
<text text-anchor="start" x="1231.5" y="-544.1" font-family="Helvetica Bold" font-size="8.00" fill="#000000">bridge_value_languages</text>
<text text-anchor="start" x="1226" y="-529.1" font-family="Bitstream Vera Sans" font-size="8.00" fill="#000000">☆ languages_id</text>
<text text-anchor="start" x="1297" y="-529.1" font-family="Bitstream Vera Sans" font-size="8.00" fill="#000000">INTEGER</text>
<text text-anchor="start" x="1226" y="-516.1" font-family="Bitstream Vera Sans" font-size="8.00" fill="#000000">☆ value_id</text>
<text text-anchor="start" x="1297" y="-516.1" font-family="Bitstream Vera Sans" font-size="8.00" fill="#000000">INTEGER</text>
</g>
<!-- languages -->
<g id="node17" class="node">
<title>languages</title>
<polygon fill="#ffffe0" stroke="transparent" points="1250,-234 1250,-264 1318,-264 1318,-234 1250,-234"/>
<polygon fill="#eee8aa" stroke="transparent" points="1250,-247 1250,-264 1318,-264 1318,-247 1250,-247"/>
<text text-anchor="start" x="1263" y="-253.6" font-family="Helvetica Bold" font-size="8.00" fill="#000000">languages</text>
<text text-anchor="start" x="1252" y="-238.6" font-family="Bitstream Vera Sans" font-size="8.00" fill="#000000">★ _id</text>
<text text-anchor="start" x="1279" y="-238.6" font-family="Bitstream Vera Sans" font-size="8.00" fill="#000000">INTEGER</text>
</g>
<!-- bridge_value_languages&#45;&gt;languages -->
<g id="edge12" class="edge">
<title>bridge_value_languages&#45;&gt;languages</title>
<path fill="none" stroke="#000000" d="M1278.4731,-507.643C1277.2559,-485.668 1275.6512,-453.2777 1275,-425 1273.8351,-374.4167 1277.9309,-315.7409 1280.9769,-280.5363"/>
<polygon fill="none" stroke="#000000" points="1281.006,-280.2108 1277.5589,-273.8769 1282.0797,-268.2589 1285.5268,-274.5927 1281.006,-280.2108"/>
<text text-anchor="middle" x="1303" y="-418.6" font-family="Bitstream Vera Sans" font-size="8.00" fill="#000000">languages_id</text>
</g>
<!-- bridge_value_languages&#45;&gt;value -->
<g id="edge11" class="edge">
<title>bridge_value_languages&#45;&gt;value</title>
<path fill="none" stroke="#000000" d="M1267.0398,-507.995C1254.7161,-486.667 1234.0532,-457.4765 1207,-443 1129.0904,-401.3095 1085.3444,-469.4919 1009,-425 992.5074,-415.3885 977.7229,-402.5527 964.6248,-388.1728"/>
<polygon fill="none" stroke="#000000" points="964.5565,-388.0941 957.602,-386.1875 956.6871,-379.0346 963.6416,-380.9412 964.5565,-388.0941"/>
<text text-anchor="middle" x="1027" y="-418.6" font-family="Bitstream Vera Sans" font-size="8.00" fill="#000000">value_id</text>
</g>
<!-- bridge_value_latlng -->
<g id="node9" class="node">
<title>bridge_value_latlng</title>
<polygon fill="#ffffe0" stroke="transparent" points="1693.5,-512 1693.5,-555 1784.5,-555 1784.5,-512 1693.5,-512"/>
<polygon fill="#eee8aa" stroke="transparent" points="1694,-537.5 1694,-554.5 1785,-554.5 1785,-537.5 1694,-537.5"/>
<text text-anchor="start" x="1700" y="-544.1" font-family="Helvetica Bold" font-size="8.00" fill="#000000">bridge_value_latlng</text>
<text text-anchor="start" x="1696" y="-529.1" font-family="Bitstream Vera Sans" font-size="8.00" fill="#000000">☆ latlng_id</text>
<text text-anchor="start" x="1746" y="-529.1" font-family="Bitstream Vera Sans" font-size="8.00" fill="#000000">INTEGER</text>
<text text-anchor="start" x="1696" y="-516.1" font-family="Bitstream Vera Sans" font-size="8.00" fill="#000000">☆ value_id</text>
<text text-anchor="start" x="1746" y="-516.1" font-family="Bitstream Vera Sans" font-size="8.00" fill="#000000">INTEGER</text>
</g>
<!-- latlng -->
<g id="node18" class="node">
<title>latlng</title>
<polygon fill="#ffffe0" stroke="transparent" points="1706,-227.5 1706,-270.5 1782,-270.5 1782,-227.5 1706,-227.5"/>
<polygon fill="#eee8aa" stroke="transparent" points="1706,-253 1706,-270 1782,-270 1782,-253 1706,-253"/>
<text text-anchor="start" x="1732.5" y="-259.6" font-family="Helvetica Bold" font-size="8.00" fill="#000000">latlng</text>
<text text-anchor="start" x="1708" y="-244.6" font-family="Bitstream Vera Sans" font-size="8.00" fill="#000000">★ _id</text>
<text text-anchor="start" x="1743" y="-244.6" font-family="Bitstream Vera Sans" font-size="8.00" fill="#000000">INTEGER</text>
<text text-anchor="start" x="1708" y="-231.6" font-family="Bitstream Vera Sans" font-size="8.00" fill="#000000">⚪ value</text>
<text text-anchor="start" x="1743" y="-231.6" font-family="Bitstream Vera Sans" font-size="8.00" fill="#000000">FLOAT</text>
</g>
<!-- bridge_value_latlng&#45;&gt;latlng -->
<g id="edge14" class="edge">
<title>bridge_value_latlng&#45;&gt;latlng</title>
<path fill="none" stroke="#000000" d="M1739.4525,-507.7507C1740.3372,-457.4153 1742.2993,-345.7671 1743.3331,-286.9458"/>
<polygon fill="none" stroke="#000000" points="1743.3339,-286.8942 1739.44,-280.8248 1743.5449,-274.896 1747.4388,-280.9654 1743.3339,-286.8942"/>
<text text-anchor="middle" x="1759" y="-418.6" font-family="Bitstream Vera Sans" font-size="8.00" fill="#000000">latlng_id</text>
</g>
<!-- bridge_value_latlng&#45;&gt;value -->
<g id="edge13" class="edge">
<title>bridge_value_latlng&#45;&gt;value</title>
<path fill="none" stroke="#000000" d="M1727.9767,-507.6086C1717.4378,-486.3413 1699.3845,-457.4517 1674,-443 1634.0659,-420.2651 1512.3509,-437.0249 1468,-425 1458.9817,-422.5549 1458.0733,-418.2326 1449,-416 1400.625,-404.0969 1045.2129,-420.9575 1001,-398 988.1276,-391.316 976.2841,-382.4489 965.5009,-372.3603"/>
<polygon fill="none" stroke="#000000" points="965.2109,-372.0725 958.1345,-370.6854 956.6932,-363.6197 963.7696,-365.0069 965.2109,-372.0725"/>
<text text-anchor="middle" x="1486" y="-418.6" font-family="Bitstream Vera Sans" font-size="8.00" fill="#000000">value_id</text>
</g>
<!-- bridge_value_otherAcronyms -->
<g id="node10" class="node">
<title>bridge_value_otherAcronyms</title>
<polygon fill="#ffffe0" stroke="transparent" points="317.5,-512 317.5,-555 450.5,-555 450.5,-512 317.5,-512"/>
<polygon fill="#eee8aa" stroke="transparent" points="318,-537.5 318,-554.5 451,-554.5 451,-537.5 318,-537.5"/>
<text text-anchor="start" x="325.5" y="-544.1" font-family="Helvetica Bold" font-size="8.00" fill="#000000">bridge_value_otherAcronyms</text>
<text text-anchor="start" x="320" y="-529.1" font-family="Bitstream Vera Sans" font-size="8.00" fill="#000000">☆ otherAcronyms_id</text>
<text text-anchor="start" x="412" y="-529.1" font-family="Bitstream Vera Sans" font-size="8.00" fill="#000000">INTEGER</text>
<text text-anchor="start" x="320" y="-516.1" font-family="Bitstream Vera Sans" font-size="8.00" fill="#000000">☆ value_id</text>
<text text-anchor="start" x="412" y="-516.1" font-family="Bitstream Vera Sans" font-size="8.00" fill="#000000">INTEGER</text>
</g>
<!-- otherAcronyms -->
<g id="node21" class="node">
<title>otherAcronyms</title>
<polygon fill="#ffffe0" stroke="transparent" points="332,-227.5 332,-270.5 414,-270.5 414,-227.5 332,-227.5"/>
<polygon fill="#eee8aa" stroke="transparent" points="332,-253 332,-270 414,-270 414,-253 332,-253"/>
<text text-anchor="start" x="342" y="-259.6" font-family="Helvetica Bold" font-size="8.00" fill="#000000">otherAcronyms</text>
<text text-anchor="start" x="334" y="-244.6" font-family="Bitstream Vera Sans" font-size="8.00" fill="#000000">★ _id</text>
<text text-anchor="start" x="369" y="-244.6" font-family="Bitstream Vera Sans" font-size="8.00" fill="#000000">INTEGER</text>
<text text-anchor="start" x="334" y="-231.6" font-family="Bitstream Vera Sans" font-size="8.00" fill="#000000">⚪ value</text>
<text text-anchor="start" x="369" y="-231.6" font-family="Bitstream Vera Sans" font-size="8.00" fill="#000000">VARCHAR</text>
</g>
<!-- bridge_value_otherAcronyms&#45;&gt;otherAcronyms -->
<g id="edge16" class="edge">
<title>bridge_value_otherAcronyms&#45;&gt;otherAcronyms</title>
<path fill="none" stroke="#000000" d="M383.0044,-507.7507C381.0582,-457.4153 376.7414,-345.7671 374.4671,-286.9458"/>
<polygon fill="none" stroke="#000000" points="374.465,-286.8871 370.2361,-281.0461 374.0013,-274.896 378.2301,-280.737 374.465,-286.8871"/>
<text text-anchor="middle" x="419" y="-418.6" font-family="Bitstream Vera Sans" font-size="8.00" fill="#000000">otherAcronyms_id</text>
</g>
<!-- bridge_value_otherAcronyms&#45;&gt;value -->
<g id="edge15" class="edge">
<title>bridge_value_otherAcronyms&#45;&gt;value</title>
<path fill="none" stroke="#000000" d="M399.9304,-507.6346C414.5475,-486.3835 438.2604,-457.5032 467,-443 534.4357,-408.9691 562.3821,-441.9138 636,-425 647.5093,-422.3557 649.5118,-418.7347 661,-416 690.2646,-409.0336 766.1953,-415.3476 806.9181,-396.7179"/>
<polygon fill="none" stroke="#000000" points="806.9649,-396.6914 810.2099,-390.2516 817.4024,-390.7702 814.1574,-397.2099 806.9649,-396.6914"/>
<text text-anchor="middle" x="679" y="-418.6" font-family="Bitstream Vera Sans" font-size="8.00" fill="#000000">value_id</text>
</g>
<!-- bridge_value_otherNames -->
<g id="node11" class="node">
<title>bridge_value_otherNames</title>
<polygon fill="#ffffe0" stroke="transparent" points="8,-512 8,-555 128,-555 128,-512 8,-512"/>
<polygon fill="#eee8aa" stroke="transparent" points="8,-537.5 8,-554.5 128,-554.5 128,-537.5 8,-537.5"/>
<text text-anchor="start" x="16" y="-544.1" font-family="Helvetica Bold" font-size="8.00" fill="#000000">bridge_value_otherNames</text>
<text text-anchor="start" x="10" y="-529.1" font-family="Bitstream Vera Sans" font-size="8.00" fill="#000000">☆ otherNames_id</text>
<text text-anchor="start" x="89" y="-529.1" font-family="Bitstream Vera Sans" font-size="8.00" fill="#000000">INTEGER</text>
<text text-anchor="start" x="10" y="-516.1" font-family="Bitstream Vera Sans" font-size="8.00" fill="#000000">☆ value_id</text>
<text text-anchor="start" x="89" y="-516.1" font-family="Bitstream Vera Sans" font-size="8.00" fill="#000000">INTEGER</text>
</g>
<!-- otherNames -->
<g id="node22" class="node">
<title>otherNames</title>
<polygon fill="#ffffe0" stroke="transparent" points="25,-227.5 25,-270.5 107,-270.5 107,-227.5 25,-227.5"/>
<polygon fill="#eee8aa" stroke="transparent" points="25,-253 25,-270 107,-270 107,-253 25,-253"/>
<text text-anchor="start" x="41.5" y="-259.6" font-family="Helvetica Bold" font-size="8.00" fill="#000000">otherNames</text>
<text text-anchor="start" x="27" y="-244.6" font-family="Bitstream Vera Sans" font-size="8.00" fill="#000000">★ _id</text>
<text text-anchor="start" x="62" y="-244.6" font-family="Bitstream Vera Sans" font-size="8.00" fill="#000000">INTEGER</text>
<text text-anchor="start" x="27" y="-231.6" font-family="Bitstream Vera Sans" font-size="8.00" fill="#000000">⚪ value</text>
<text text-anchor="start" x="62" y="-231.6" font-family="Bitstream Vera Sans" font-size="8.00" fill="#000000">VARCHAR</text>
</g>
<!-- bridge_value_otherNames&#45;&gt;otherNames -->
<g id="edge18" class="edge">
<title>bridge_value_otherNames&#45;&gt;otherNames</title>
<path fill="none" stroke="#000000" d="M67.819,-507.7507C67.4651,-457.4153 66.6803,-345.7671 66.2668,-286.9458"/>
<polygon fill="none" stroke="#000000" points="66.2665,-286.8958 62.2244,-280.9241 66.182,-274.896 70.2242,-280.8677 66.2665,-286.8958"/>
<text text-anchor="middle" x="100" y="-418.6" font-family="Bitstream Vera Sans" font-size="8.00" fill="#000000">otherNames_id</text>
</g>
<!-- bridge_value_otherNames&#45;&gt;value -->
<g id="edge17" class="edge">
<title>bridge_value_otherNames&#45;&gt;value</title>
<path fill="none" stroke="#000000" d="M83.7175,-507.7857C97.8781,-486.9264 120.6417,-458.5239 148,-443 185.7555,-421.5764 201.5908,-434.2684 244,-425 260.1121,-421.4788 263.6679,-418.2937 280,-416 335.2919,-408.2348 718.0625,-427.1075 806.161,-396.5412"/>
<polygon fill="none" stroke="#000000" points="806.4046,-396.4297 810.194,-390.2945 817.3147,-391.4327 813.5253,-397.5679 806.4046,-396.4297"/>
<text text-anchor="middle" x="298" y="-418.6" font-family="Bitstream Vera Sans" font-size="8.00" fill="#000000">value_id</text>
</g>
<!-- bridge_value_regionalBlocs -->
<g id="node12" class="node">
<title>bridge_value_regionalBlocs</title>
<polygon fill="#ffffe0" stroke="transparent" points="1380.5,-512 1380.5,-555 1505.5,-555 1505.5,-512 1380.5,-512"/>
<polygon fill="#eee8aa" stroke="transparent" points="1381,-537.5 1381,-554.5 1506,-554.5 1506,-537.5 1381,-537.5"/>
<text text-anchor="start" x="1388" y="-544.1" font-family="Helvetica Bold" font-size="8.00" fill="#000000">bridge_value_regionalBlocs</text>
<text text-anchor="start" x="1383" y="-529.1" font-family="Bitstream Vera Sans" font-size="8.00" fill="#000000">☆ regionalBlocs_id</text>
<text text-anchor="start" x="1467" y="-529.1" font-family="Bitstream Vera Sans" font-size="8.00" fill="#000000">INTEGER</text>
<text text-anchor="start" x="1383" y="-516.1" font-family="Bitstream Vera Sans" font-size="8.00" fill="#000000">☆ value_id</text>
<text text-anchor="start" x="1467" y="-516.1" font-family="Bitstream Vera Sans" font-size="8.00" fill="#000000">INTEGER</text>
</g>
<!-- regionalBlocs -->
<g id="node23" class="node">
<title>regionalBlocs</title>
<polygon fill="#ffffe0" stroke="transparent" points="1488,-234 1488,-264 1556,-264 1556,-234 1488,-234"/>
<polygon fill="#eee8aa" stroke="transparent" points="1488,-247 1488,-264 1556,-264 1556,-247 1488,-247"/>
<text text-anchor="start" x="1494.5" y="-253.6" font-family="Helvetica Bold" font-size="8.00" fill="#000000">regionalBlocs</text>
<text text-anchor="start" x="1490" y="-238.6" font-family="Bitstream Vera Sans" font-size="8.00" fill="#000000">★ _id</text>
<text text-anchor="start" x="1517" y="-238.6" font-family="Bitstream Vera Sans" font-size="8.00" fill="#000000">INTEGER</text>
</g>
<!-- bridge_value_regionalBlocs&#45;&gt;regionalBlocs -->
<g id="edge20" class="edge">
<title>bridge_value_regionalBlocs&#45;&gt;regionalBlocs</title>
<path fill="none" stroke="#000000" d="M1462.9687,-507.9614C1478.194,-486.9563 1498.1666,-455.7445 1508,-425 1523.635,-376.1164 1524.8068,-315.8876 1523.7463,-280.0659"/>
<polygon fill="none" stroke="#000000" points="1523.745,-280.0299 1519.5142,-274.1903 1523.2773,-268.039 1527.5081,-273.8785 1523.745,-280.0299"/>
<text text-anchor="middle" x="1544" y="-418.6" font-family="Bitstream Vera Sans" font-size="8.00" fill="#000000">regionalBlocs_id</text>
</g>
<!-- bridge_value_regionalBlocs&#45;&gt;value -->
<g id="edge19" class="edge">
<title>bridge_value_regionalBlocs&#45;&gt;value</title>
<path fill="none" stroke="#000000" d="M1427.2996,-507.9135C1408.3805,-479.7013 1373.7415,-435.7018 1331,-416 1264.3025,-385.2556 1065.935,-432.3106 1001,-398 988.1759,-391.2239 976.3638,-382.2967 965.5997,-372.1718"/>
<polygon fill="none" stroke="#000000" points="965.3043,-371.8774 958.2309,-370.4748 956.8051,-363.4061 963.8785,-364.8087 965.3043,-371.8774"/>
<text text-anchor="middle" x="1364" y="-418.6" font-family="Bitstream Vera Sans" font-size="8.00" fill="#000000">value_id</text>
</g>
<!-- bridge_value_timezones -->
<g id="node13" class="node">
<title>bridge_value_timezones</title>
<polygon fill="#ffffe0" stroke="transparent" points="1545,-512 1545,-555 1657,-555 1657,-512 1545,-512"/>
<polygon fill="#eee8aa" stroke="transparent" points="1545,-537.5 1545,-554.5 1657,-554.5 1657,-537.5 1545,-537.5"/>
<text text-anchor="start" x="1552.5" y="-544.1" font-family="Helvetica Bold" font-size="8.00" fill="#000000">bridge_value_timezones</text>
<text text-anchor="start" x="1547" y="-529.1" font-family="Bitstream Vera Sans" font-size="8.00" fill="#000000">☆ timezones_id</text>
<text text-anchor="start" x="1618" y="-529.1" font-family="Bitstream Vera Sans" font-size="8.00" fill="#000000">INTEGER</text>
<text text-anchor="start" x="1547" y="-516.1" font-family="Bitstream Vera Sans" font-size="8.00" fill="#000000">☆ value_id</text>
<text text-anchor="start" x="1618" y="-516.1" font-family="Bitstream Vera Sans" font-size="8.00" fill="#000000">INTEGER</text>
</g>
<!-- timezones -->
<g id="node24" class="node">
<title>timezones</title>
<polygon fill="#ffffe0" stroke="transparent" points="1590,-227.5 1590,-270.5 1672,-270.5 1672,-227.5 1590,-227.5"/>
<polygon fill="#eee8aa" stroke="transparent" points="1590,-253 1590,-270 1672,-270 1672,-253 1590,-253"/>
<text text-anchor="start" x="1610" y="-259.6" font-family="Helvetica Bold" font-size="8.00" fill="#000000">timezones</text>
<text text-anchor="start" x="1592" y="-244.6" font-family="Bitstream Vera Sans" font-size="8.00" fill="#000000">★ _id</text>
<text text-anchor="start" x="1627" y="-244.6" font-family="Bitstream Vera Sans" font-size="8.00" fill="#000000">INTEGER</text>
<text text-anchor="start" x="1592" y="-231.6" font-family="Bitstream Vera Sans" font-size="8.00" fill="#000000">⚪ value</text>
<text text-anchor="start" x="1627" y="-231.6" font-family="Bitstream Vera Sans" font-size="8.00" fill="#000000">VARCHAR</text>
</g>
<!-- bridge_value_timezones&#45;&gt;timezones -->
<g id="edge22" class="edge">
<title>bridge_value_timezones&#45;&gt;timezones</title>
<path fill="none" stroke="#000000" d="M1603.7152,-507.7507C1609.023,-457.4153 1620.7961,-345.7671 1626.9987,-286.9458"/>
<polygon fill="none" stroke="#000000" points="1627.0108,-286.8299 1623.6621,-280.4435 1628.2693,-274.896 1631.618,-281.2825 1627.0108,-286.8299"/>
<text text-anchor="middle" x="1641" y="-418.6" font-family="Bitstream Vera Sans" font-size="8.00" fill="#000000">timezones_id</text>
</g>
<!-- bridge_value_timezones&#45;&gt;value -->
<g id="edge21" class="edge">
<title>bridge_value_timezones&#45;&gt;value</title>
<path fill="none" stroke="#000000" d="M1585.9157,-507.6249C1572.2557,-486.6674 1550.1414,-458.2111 1523,-443 1479.7849,-418.7806 1461.0959,-436.8706 1413,-425 1400.7194,-421.969 1398.435,-418.3172 1386,-416 1343.9002,-408.1548 1038.9413,-417.8594 1001,-398 988.1496,-391.2738 976.3204,-382.3791 965.546,-372.2739"/>
<polygon fill="none" stroke="#000000" points="965.2535,-371.9831 958.1784,-370.5889 956.7442,-363.5218 963.8193,-364.916 965.2535,-371.9831"/>
<text text-anchor="middle" x="1431" y="-418.6" font-family="Bitstream Vera Sans" font-size="8.00" fill="#000000">value_id</text>
</g>
<!-- bridge_value_topLevelDomain -->
<g id="node14" class="node">
<title>bridge_value_topLevelDomain</title>
<polygon fill="#ffffe0" stroke="transparent" points="918,-512 918,-555 1054,-555 1054,-512 918,-512"/>
<polygon fill="#eee8aa" stroke="transparent" points="918,-537.5 918,-554.5 1054,-554.5 1054,-537.5 918,-537.5"/>
<text text-anchor="start" x="925.5" y="-544.1" font-family="Helvetica Bold" font-size="8.00" fill="#000000">bridge_value_topLevelDomain</text>
<text text-anchor="start" x="920" y="-529.1" font-family="Bitstream Vera Sans" font-size="8.00" fill="#000000">☆ topLevelDomain_id</text>
<text text-anchor="start" x="1015" y="-529.1" font-family="Bitstream Vera Sans" font-size="8.00" fill="#000000">INTEGER</text>
<text text-anchor="start" x="920" y="-516.1" font-family="Bitstream Vera Sans" font-size="8.00" fill="#000000">☆ value_id</text>
<text text-anchor="start" x="1015" y="-516.1" font-family="Bitstream Vera Sans" font-size="8.00" fill="#000000">INTEGER</text>
</g>
<!-- topLevelDomain -->
<g id="node25" class="node">
<title>topLevelDomain</title>
<polygon fill="#ffffe0" stroke="transparent" points="1018,-227.5 1018,-270.5 1100,-270.5 1100,-227.5 1018,-227.5"/>
<polygon fill="#eee8aa" stroke="transparent" points="1018,-253 1018,-270 1100,-270 1100,-253 1018,-253"/>
<text text-anchor="start" x="1026" y="-259.6" font-family="Helvetica Bold" font-size="8.00" fill="#000000">topLevelDomain</text>
<text text-anchor="start" x="1020" y="-244.6" font-family="Bitstream Vera Sans" font-size="8.00" fill="#000000">★ _id</text>
<text text-anchor="start" x="1055" y="-244.6" font-family="Bitstream Vera Sans" font-size="8.00" fill="#000000">INTEGER</text>
<text text-anchor="start" x="1020" y="-231.6" font-family="Bitstream Vera Sans" font-size="8.00" fill="#000000">⚪ value</text>
<text text-anchor="start" x="1055" y="-231.6" font-family="Bitstream Vera Sans" font-size="8.00" fill="#000000">VARCHAR</text>
</g>
<!-- bridge_value_topLevelDomain&#45;&gt;topLevelDomain -->
<g id="edge24" class="edge">
<title>bridge_value_topLevelDomain&#45;&gt;topLevelDomain</title>
<path fill="none" stroke="#000000" d="M1005.5346,-507.9206C1020.3934,-486.8924 1039.8006,-455.6695 1049,-425 1062.7829,-379.0495 1063.4363,-323.385 1061.8713,-287.13"/>
<polygon fill="none" stroke="#000000" points="1061.848,-286.6883 1057.5368,-280.9078 1061.2145,-274.705 1065.5257,-280.4855 1061.848,-286.6883"/>
<text text-anchor="middle" x="1090.5" y="-418.6" font-family="Bitstream Vera Sans" font-size="8.00" fill="#000000">topLevelDomain_id</text>
</g>
<!-- bridge_value_topLevelDomain&#45;&gt;value -->
<g id="edge23" class="edge">
<title>bridge_value_topLevelDomain&#45;&gt;value</title>
<path fill="none" stroke="#000000" d="M955.9244,-507.8891C934.6659,-487.7725 907.7676,-457.7562 895,-425 893.1255,-420.1908 891.4634,-415.2509 889.9937,-410.2184"/>
<polygon fill="none" stroke="#000000" points="889.9216,-409.9404 884.5416,-405.1388 886.9046,-398.3258 892.2846,-403.1275 889.9216,-409.9404"/>
<text text-anchor="middle" x="913" y="-418.6" font-family="Bitstream Vera Sans" font-size="8.00" fill="#000000">value_id</text>
</g>
<!-- translations -->
<g id="node26" class="node">
<title>translations</title>
<polygon fill="#ffffe0" stroke="transparent" points="786.5,-447 786.5,-620 883.5,-620 883.5,-447 786.5,-447"/>
<polygon fill="#eee8aa" stroke="transparent" points="787,-602.5 787,-619.5 884,-619.5 884,-602.5 787,-602.5"/>
<text text-anchor="start" x="811.5" y="-609.1" font-family="Helvetica Bold" font-size="8.00" fill="#000000">translations</text>
<text text-anchor="start" x="789" y="-594.1" font-family="Bitstream Vera Sans" font-size="8.00" fill="#000000">★ _id</text>
<text text-anchor="start" x="839" y="-594.1" font-family="Bitstream Vera Sans" font-size="8.00" fill="#000000">INTEGER</text>
<text text-anchor="start" x="789" y="-581.1" font-family="Bitstream Vera Sans" font-size="8.00" fill="#000000">☆ value_id</text>
<text text-anchor="start" x="839" y="-581.1" font-family="Bitstream Vera Sans" font-size="8.00" fill="#000000">INTEGER</text>
<text text-anchor="start" x="789" y="-568.1" font-family="Bitstream Vera Sans" font-size="8.00" fill="#000000">⚪ br</text>
<text text-anchor="start" x="839" y="-568.1" font-family="Bitstream Vera Sans" font-size="8.00" fill="#000000">VARCHAR</text>
<text text-anchor="start" x="789" y="-555.1" font-family="Bitstream Vera Sans" font-size="8.00" fill="#000000">⚪ de</text>
<text text-anchor="start" x="839" y="-555.1" font-family="Bitstream Vera Sans" font-size="8.00" fill="#000000">VARCHAR</text>
<text text-anchor="start" x="789" y="-542.1" font-family="Bitstream Vera Sans" font-size="8.00" fill="#000000">⚪ es</text>
<text text-anchor="start" x="839" y="-542.1" font-family="Bitstream Vera Sans" font-size="8.00" fill="#000000">VARCHAR</text>
<text text-anchor="start" x="789" y="-529.1" font-family="Bitstream Vera Sans" font-size="8.00" fill="#000000">⚪ fa</text>
<text text-anchor="start" x="839" y="-529.1" font-family="Bitstream Vera Sans" font-size="8.00" fill="#000000">VARCHAR</text>
<text text-anchor="start" x="789" y="-516.1" font-family="Bitstream Vera Sans" font-size="8.00" fill="#000000">⚪ fr</text>
<text text-anchor="start" x="839" y="-516.1" font-family="Bitstream Vera Sans" font-size="8.00" fill="#000000">VARCHAR</text>
<text text-anchor="start" x="789" y="-503.1" font-family="Bitstream Vera Sans" font-size="8.00" fill="#000000">⚪ hr</text>
<text text-anchor="start" x="839" y="-503.1" font-family="Bitstream Vera Sans" font-size="8.00" fill="#000000">VARCHAR</text>
<text text-anchor="start" x="789" y="-490.1" font-family="Bitstream Vera Sans" font-size="8.00" fill="#000000">⚪ it</text>
<text text-anchor="start" x="839" y="-490.1" font-family="Bitstream Vera Sans" font-size="8.00" fill="#000000">VARCHAR</text>
<text text-anchor="start" x="789" y="-477.1" font-family="Bitstream Vera Sans" font-size="8.00" fill="#000000">⚪ ja</text>
<text text-anchor="start" x="839" y="-477.1" font-family="Bitstream Vera Sans" font-size="8.00" fill="#000000">VARCHAR</text>
<text text-anchor="start" x="789" y="-464.1" font-family="Bitstream Vera Sans" font-size="8.00" fill="#000000">⚪ nl</text>
<text text-anchor="start" x="839" y="-464.1" font-family="Bitstream Vera Sans" font-size="8.00" fill="#000000">VARCHAR</text>
<text text-anchor="start" x="789" y="-451.1" font-family="Bitstream Vera Sans" font-size="8.00" fill="#000000">⚪ pt</text>
<text text-anchor="start" x="839" y="-451.1" font-family="Bitstream Vera Sans" font-size="8.00" fill="#000000">VARCHAR</text>
</g>
<!-- translations&#45;&gt;value -->
<g id="edge25" class="edge">
<title>translations&#45;&gt;value</title>
<path fill="none" stroke="#000000" d="M833.1582,-442.8383C833.755,-433.743 834.6679,-424.6703 836,-416 836.2946,-414.0828 836.6063,-412.1571 836.9341,-410.2246"/>
<polygon fill="none" stroke="#000000" points="836.9605,-410.0811 834.1174,-403.4541 839.1411,-398.2809 841.9842,-404.9079 836.9605,-410.0811"/>
<text text-anchor="middle" x="854" y="-418.6" font-family="Bitstream Vera Sans" font-size="8.00" fill="#000000">value_id</text>
</g>
<!-- value&#45;&gt;main_array -->
<g id="edge26" class="edge">
<title>value&#45;&gt;main_array</title>
<path fill="none" stroke="#000000" d="M867.4009,-99.907C865.8086,-87.7942 864.332,-76.5614 863.0751,-67.0001"/>
<polygon fill="none" stroke="#000000" points="863.0712,-66.9698 858.3233,-61.5424 861.5071,-55.0722 866.2551,-60.4996 863.0712,-66.9698"/>
<text text-anchor="middle" x="894.5" y="-75.6" font-family="Bitstream Vera Sans" font-size="8.00" fill="#000000">main_array_id</text>
</g>
</g>
</svg>
