<?xml version="1.0" encoding="UTF-8" standalone="no"?>
<!DOCTYPE svg PUBLIC "-//W3C//DTD SVG 1.1//EN"
 "http://www.w3.org/Graphics/SVG/1.1/DTD/svg11.dtd">
<!-- Generated by graphviz version 2.40.1 (20161225.0304)
 -->
<!-- Title: G Pages: 1 -->
<svg width="372pt" height="198pt"
 viewBox="0.00 0.00 371.50 198.00" xmlns="http://www.w3.org/2000/svg" xmlns:xlink="http://www.w3.org/1999/xlink">
<g id="graph0" class="graph" transform="scale(1 1) rotate(0) translate(4 194)">
<title>G</title>
<polygon fill="#ffffff" stroke="transparent" points="-4,4 -4,-194 367.5,-194 367.5,4 -4,4"/>
<text text-anchor="middle" x="181.75" y="-6.6" font-family="Bitstream Vera Sans" font-size="8.00" fill="#000000">generated by sadisplay v0.4.9</text>
<!-- bridge_main_results -->
<g id="node1" class="node">
<title>bridge_main_results</title>
<polygon fill="#ffffe0" stroke="transparent" points="39,-143 39,-186 136,-186 136,-143 39,-143"/>
<polygon fill="#eee8aa" stroke="transparent" points="39.5,-168.5 39.5,-185.5 136.5,-185.5 136.5,-168.5 39.5,-168.5"/>
<text text-anchor="start" x="47" y="-175.1" font-family="Helvetica Bold" font-size="8.00" fill="#000000">bridge_main_results</text>
<text text-anchor="start" x="41.5" y="-160.1" font-family="Bitstream Vera Sans" font-size="8.00" fill="#000000">☆ main_id</text>
<text text-anchor="start" x="97.5" y="-160.1" font-family="Bitstream Vera Sans" font-size="8.00" fill="#000000">INTEGER</text>
<text text-anchor="start" x="41.5" y="-147.1" font-family="Bitstream Vera Sans" font-size="8.00" fill="#000000">☆ results_id</text>
<text text-anchor="start" x="97.5" y="-147.1" font-family="Bitstream Vera Sans" font-size="8.00" fill="#000000">INTEGER</text>
</g>
<!-- main -->
<g id="node4" class="node">
<title>main</title>
<polygon fill="#ffffe0" stroke="transparent" points="8,-27.5 8,-83.5 99,-83.5 99,-27.5 8,-27.5"/>
<polygon fill="#eee8aa" stroke="transparent" points="8.5,-66.5 8.5,-83.5 99.5,-83.5 99.5,-66.5 8.5,-66.5"/>
<text text-anchor="start" x="44" y="-73.1" font-family="Helvetica Bold" font-size="8.00" fill="#000000">main</text>
<text text-anchor="start" x="10.5" y="-58.1" font-family="Bitstream Vera Sans" font-size="8.00" fill="#000000">★ _id</text>
<text text-anchor="start" x="60.5" y="-58.1" font-family="Bitstream Vera Sans" font-size="8.00" fill="#000000">INTEGER</text>
<text text-anchor="start" x="10.5" y="-45.1" font-family="Bitstream Vera Sans" font-size="8.00" fill="#000000">⚪ available</text>
<text text-anchor="start" x="60.5" y="-45.1" font-family="Bitstream Vera Sans" font-size="8.00" fill="#000000">INTEGER</text>
<text text-anchor="start" x="10.5" y="-32.1" font-family="Bitstream Vera Sans" font-size="8.00" fill="#000000">⚪ total</text>
<text text-anchor="start" x="60.5" y="-32.1" font-family="Bitstream Vera Sans" font-size="8.00" fill="#000000">INTEGER</text>
</g>
<!-- bridge_main_results&#45;&gt;main -->
<g id="edge1" class="edge">
<title>bridge_main_results&#45;&gt;main</title>
<path fill="none" stroke="#000000" d="M79.5285,-138.9443C75.8244,-127.0694 71.3147,-112.6117 67.0965,-99.0886"/>
<polygon fill="none" stroke="#000000" points="67.0655,-98.9893 61.4603,-94.4526 63.4922,-87.5337 69.0974,-92.0704 67.0655,-98.9893"/>
<text text-anchor="middle" x="91.5" y="-114.6" font-family="Bitstream Vera Sans" font-size="8.00" fill="#000000">main_id</text>
</g>
<!-- results -->
<g id="node5" class="node">
<title>results</title>
<polygon fill="#ffffe0" stroke="transparent" points="133.5,-21 133.5,-90 239.5,-90 239.5,-21 133.5,-21"/>
<polygon fill="#eee8aa" stroke="transparent" points="133.5,-72.5 133.5,-89.5 239.5,-89.5 239.5,-72.5 133.5,-72.5"/>
<text text-anchor="start" x="172.5" y="-79.1" font-family="Helvetica Bold" font-size="8.00" fill="#000000">results</text>
<text text-anchor="start" x="135.5" y="-64.1" font-family="Bitstream Vera Sans" font-size="8.00" fill="#000000">★ _id</text>
<text text-anchor="start" x="194.5" y="-64.1" font-family="Bitstream Vera Sans" font-size="8.00" fill="#000000">INTEGER</text>
<text text-anchor="start" x="135.5" y="-51.1" font-family="Bitstream Vera Sans" font-size="8.00" fill="#000000">⚪ description</text>
<text text-anchor="start" x="194.5" y="-51.1" font-family="Bitstream Vera Sans" font-size="8.00" fill="#000000">VARCHAR</text>
<text text-anchor="start" x="135.5" y="-38.1" font-family="Bitstream Vera Sans" font-size="8.00" fill="#000000">⚪ latest</text>
<text text-anchor="start" x="194.5" y="-38.1" font-family="Bitstream Vera Sans" font-size="8.00" fill="#000000">VARCHAR</text>
<text text-anchor="start" x="135.5" y="-25.1" font-family="Bitstream Vera Sans" font-size="8.00" fill="#000000">⚪ name</text>
<text text-anchor="start" x="194.5" y="-25.1" font-family="Bitstream Vera Sans" font-size="8.00" fill="#000000">VARCHAR</text>
</g>
<!-- bridge_main_results&#45;&gt;results -->
<g id="edge2" class="edge">
<title>bridge_main_results&#45;&gt;results</title>
<path fill="none" stroke="#000000" d="M110.7111,-138.9443C120.3661,-128.3141 131.9008,-115.6142 143.0237,-103.3678"/>
<polygon fill="none" stroke="#000000" points="143.3432,-103.0161 144.4162,-95.8852 151.4112,-94.1331 150.3382,-101.2639 143.3432,-103.0161"/>
<text text-anchor="middle" x="155" y="-114.6" font-family="Bitstream Vera Sans" font-size="8.00" fill="#000000">results_id</text>
</g>
<!-- bridge_results_keywords -->
<g id="node2" class="node">
<title>bridge_results_keywords</title>
<polygon fill="#ffffe0" stroke="transparent" points="215,-143 215,-186 324,-186 324,-143 215,-143"/>
<polygon fill="#eee8aa" stroke="transparent" points="215.5,-168.5 215.5,-185.5 324.5,-185.5 324.5,-168.5 215.5,-168.5"/>
<text text-anchor="start" x="220" y="-175.1" font-family="Helvetica Bold" font-size="8.00" fill="#000000">bridge_results_keywords</text>
<text text-anchor="start" x="217.5" y="-160.1" font-family="Bitstream Vera Sans" font-size="8.00" fill="#000000">☆ keywords_id</text>
<text text-anchor="start" x="285.5" y="-160.1" font-family="Bitstream Vera Sans" font-size="8.00" fill="#000000">INTEGER</text>
<text text-anchor="start" x="217.5" y="-147.1" font-family="Bitstream Vera Sans" font-size="8.00" fill="#000000">☆ results_id</text>
<text text-anchor="start" x="285.5" y="-147.1" font-family="Bitstream Vera Sans" font-size="8.00" fill="#000000">INTEGER</text>
</g>
<!-- keywords -->
<g id="node3" class="node">
<title>keywords</title>
<polygon fill="#ffffe0" stroke="transparent" points="273.5,-34 273.5,-77 355.5,-77 355.5,-34 273.5,-34"/>
<polygon fill="#eee8aa" stroke="transparent" points="273.5,-59.5 273.5,-76.5 355.5,-76.5 355.5,-59.5 273.5,-59.5"/>
<text text-anchor="start" x="295" y="-66.1" font-family="Helvetica Bold" font-size="8.00" fill="#000000">keywords</text>
<text text-anchor="start" x="275.5" y="-51.1" font-family="Bitstream Vera Sans" font-size="8.00" fill="#000000">★ _id</text>
<text text-anchor="start" x="310.5" y="-51.1" font-family="Bitstream Vera Sans" font-size="8.00" fill="#000000">INTEGER</text>
<text text-anchor="start" x="275.5" y="-38.1" font-family="Bitstream Vera Sans" font-size="8.00" fill="#000000">⚪ value</text>
<text text-anchor="start" x="310.5" y="-38.1" font-family="Bitstream Vera Sans" font-size="8.00" fill="#000000">VARCHAR</text>
</g>
<!-- bridge_results_keywords&#45;&gt;keywords -->
<g id="edge4" class="edge">
<title>bridge_results_keywords&#45;&gt;keywords</title>
<path fill="none" stroke="#000000" d="M280.0505,-138.9443C285.764,-125.105 292.9257,-107.7578 299.2371,-92.4701"/>
<polygon fill="none" stroke="#000000" points="299.2804,-92.3651 297.8727,-85.2928 303.8597,-81.2732 305.2673,-88.3456 299.2804,-92.3651"/>
<text text-anchor="middle" x="317" y="-114.6" font-family="Bitstream Vera Sans" font-size="8.00" fill="#000000">keywords_id</text>
</g>
<!-- bridge_results_keywords&#45;&gt;results -->
<g id="edge3" class="edge">
<title>bridge_results_keywords&#45;&gt;results</title>
<path fill="none" stroke="#000000" d="M250.0402,-138.9443C242.025,-128.4183 232.4645,-115.863 223.2242,-103.7281"/>
<polygon fill="none" stroke="#000000" points="223.1878,-103.6803 216.3704,-101.33 215.9178,-94.1331 222.7352,-96.4834 223.1878,-103.6803"/>
<text text-anchor="middle" x="256" y="-114.6" font-family="Bitstream Vera Sans" font-size="8.00" fill="#000000">results_id</text>
</g>
</g>
</svg>
