<?xml version="1.0" encoding="UTF-8" standalone="no"?>
<!DOCTYPE svg PUBLIC "-//W3C//DTD SVG 1.1//EN"
 "http://www.w3.org/Graphics/SVG/1.1/DTD/svg11.dtd">
<!-- Generated by graphviz version 2.40.1 (20161225.0304)
 -->
<!-- Title: G Pages: 1 -->
<svg width="800" height="193pt"
 viewBox="0.00 0.00 1949.00 471.00" xmlns="http://www.w3.org/2000/svg" xmlns:xlink="http://www.w3.org/1999/xlink">
<g id="graph0" class="graph" transform="scale(1 1) rotate(0) translate(4 467)">
<title>G</title>
<polygon fill="#ffffff" stroke="transparent" points="-4,4 -4,-467 1945,-467 1945,4 -4,4"/>
<text text-anchor="middle" x="970.5" y="-6.6" font-family="Bitstream Vera Sans" font-size="8.00" fill="#000000">generated by sadisplay v0.4.9</text>
<!-- altSpellings -->
<g id="node1" class="node">
<title>altSpellings</title>
<polygon fill="#ffffe0" stroke="transparent" points="28.5,-105.5 28.5,-148.5 110.5,-148.5 110.5,-105.5 28.5,-105.5"/>
<polygon fill="#eee8aa" stroke="transparent" points="28.5,-131 28.5,-148 110.5,-148 110.5,-131 28.5,-131"/>
<text text-anchor="start" x="46" y="-137.6" font-family="Helvetica Bold" font-size="8.00" fill="#000000">altSpellings</text>
<text text-anchor="start" x="30.5" y="-122.6" font-family="Bitstream Vera Sans" font-size="8.00" fill="#000000">★ _id</text>
<text text-anchor="start" x="65.5" y="-122.6" font-family="Bitstream Vera Sans" font-size="8.00" fill="#000000">INTEGER</text>
<text text-anchor="start" x="30.5" y="-109.6" font-family="Bitstream Vera Sans" font-size="8.00" fill="#000000">⚪ value</text>
<text text-anchor="start" x="65.5" y="-109.6" font-family="Bitstream Vera Sans" font-size="8.00" fill="#000000">VARCHAR</text>
</g>
<!-- borders -->
<g id="node2" class="node">
<title>borders</title>
<polygon fill="#ffffe0" stroke="transparent" points="187.5,-105.5 187.5,-148.5 269.5,-148.5 269.5,-105.5 187.5,-105.5"/>
<polygon fill="#eee8aa" stroke="transparent" points="187.5,-131 187.5,-148 269.5,-148 269.5,-131 187.5,-131"/>
<text text-anchor="start" x="213" y="-137.6" font-family="Helvetica Bold" font-size="8.00" fill="#000000">borders</text>
<text text-anchor="start" x="189.5" y="-122.6" font-family="Bitstream Vera Sans" font-size="8.00" fill="#000000">★ _id</text>
<text text-anchor="start" x="224.5" y="-122.6" font-family="Bitstream Vera Sans" font-size="8.00" fill="#000000">INTEGER</text>
<text text-anchor="start" x="189.5" y="-109.6" font-family="Bitstream Vera Sans" font-size="8.00" fill="#000000">⚪ value</text>
<text text-anchor="start" x="224.5" y="-109.6" font-family="Bitstream Vera Sans" font-size="8.00" fill="#000000">VARCHAR</text>
</g>
<!-- bridge_countries_altSpellings -->
<g id="node3" class="node">
<title>bridge_countries_altSpellings</title>
<polygon fill="#ffffe0" stroke="transparent" points="8,-351 8,-394 135,-394 135,-351 8,-351"/>
<polygon fill="#eee8aa" stroke="transparent" points="8.5,-376.5 8.5,-393.5 135.5,-393.5 135.5,-376.5 8.5,-376.5"/>
<text text-anchor="start" x="12.5" y="-383.1" font-family="Helvetica Bold" font-size="8.00" fill="#000000">bridge_countries_altSpellings</text>
<text text-anchor="start" x="10.5" y="-368.1" font-family="Bitstream Vera Sans" font-size="8.00" fill="#000000">☆ altSpellings_id</text>
<text text-anchor="start" x="90.5" y="-368.1" font-family="Bitstream Vera Sans" font-size="8.00" fill="#000000">INTEGER</text>
<text text-anchor="start" x="10.5" y="-355.1" font-family="Bitstream Vera Sans" font-size="8.00" fill="#000000">☆ countries_id</text>
<text text-anchor="start" x="90.5" y="-355.1" font-family="Bitstream Vera Sans" font-size="8.00" fill="#000000">INTEGER</text>
</g>
<!-- bridge_countries_altSpellings&#45;&gt;altSpellings -->
<g id="edge2" class="edge">
<title>bridge_countries_altSpellings&#45;&gt;altSpellings</title>
<path fill="none" stroke="#000000" d="M71.2476,-346.6316C71.0366,-324.6496 70.7333,-292.2554 70.5,-264 70.2228,-230.429 69.9473,-192.2302 69.7558,-164.7121"/>
<polygon fill="none" stroke="#000000" points="69.7545,-164.502 65.7131,-158.5298 69.6715,-152.5023 73.7129,-158.4745 69.7545,-164.502"/>
<text text-anchor="middle" x="101" y="-257.6" font-family="Bitstream Vera Sans" font-size="8.00" fill="#000000">altSpellings_id</text>
</g>
<!-- countries -->
<g id="node15" class="node">
<title>countries</title>
<polygon fill="#ffffe0" stroke="transparent" points="661,-21 661,-233 776,-233 776,-21 661,-21"/>
<polygon fill="#eee8aa" stroke="transparent" points="661.5,-216 661.5,-233 776.5,-233 776.5,-216 661.5,-216"/>
<text text-anchor="start" x="700" y="-222.6" font-family="Helvetica Bold" font-size="8.00" fill="#000000">countries</text>
<text text-anchor="start" x="663.5" y="-207.6" font-family="Bitstream Vera Sans" font-size="8.00" fill="#000000">★ _id</text>
<text text-anchor="start" x="731.5" y="-207.6" font-family="Bitstream Vera Sans" font-size="8.00" fill="#000000">INTEGER</text>
<text text-anchor="start" x="663.5" y="-194.6" font-family="Bitstream Vera Sans" font-size="8.00" fill="#000000">⚪ alpha2Code</text>
<text text-anchor="start" x="731.5" y="-194.6" font-family="Bitstream Vera Sans" font-size="8.00" fill="#000000">VARCHAR</text>
<text text-anchor="start" x="663.5" y="-181.6" font-family="Bitstream Vera Sans" font-size="8.00" fill="#000000">⚪ alpha3Code</text>
<text text-anchor="start" x="731.5" y="-181.6" font-family="Bitstream Vera Sans" font-size="8.00" fill="#000000">VARCHAR</text>
<text text-anchor="start" x="663.5" y="-168.6" font-family="Bitstream Vera Sans" font-size="8.00" fill="#000000">⚪ area</text>
<text text-anchor="start" x="731.5" y="-168.6" font-family="Bitstream Vera Sans" font-size="8.00" fill="#000000">FLOAT</text>
<text text-anchor="start" x="663.5" y="-155.6" font-family="Bitstream Vera Sans" font-size="8.00" fill="#000000">⚪ capital</text>
<text text-anchor="start" x="731.5" y="-155.6" font-family="Bitstream Vera Sans" font-size="8.00" fill="#000000">VARCHAR</text>
<text text-anchor="start" x="663.5" y="-142.6" font-family="Bitstream Vera Sans" font-size="8.00" fill="#000000">⚪ cioc</text>
<text text-anchor="start" x="731.5" y="-142.6" font-family="Bitstream Vera Sans" font-size="8.00" fill="#000000">VARCHAR</text>
<text text-anchor="start" x="663.5" y="-129.6" font-family="Bitstream Vera Sans" font-size="8.00" fill="#000000">⚪ demonym</text>
<text text-anchor="start" x="731.5" y="-129.6" font-family="Bitstream Vera Sans" font-size="8.00" fill="#000000">VARCHAR</text>
<text text-anchor="start" x="663.5" y="-116.6" font-family="Bitstream Vera Sans" font-size="8.00" fill="#000000">⚪ flag</text>
<text text-anchor="start" x="731.5" y="-116.6" font-family="Bitstream Vera Sans" font-size="8.00" fill="#000000">VARCHAR</text>
<text text-anchor="start" x="663.5" y="-103.6" font-family="Bitstream Vera Sans" font-size="8.00" fill="#000000">⚪ gini</text>
<text text-anchor="start" x="731.5" y="-103.6" font-family="Bitstream Vera Sans" font-size="8.00" fill="#000000">FLOAT</text>
<text text-anchor="start" x="663.5" y="-90.6" font-family="Bitstream Vera Sans" font-size="8.00" fill="#000000">⚪ name</text>
<text text-anchor="start" x="731.5" y="-90.6" font-family="Bitstream Vera Sans" font-size="8.00" fill="#000000">VARCHAR</text>
<text text-anchor="start" x="663.5" y="-77.6" font-family="Bitstream Vera Sans" font-size="8.00" fill="#000000">⚪ nativeName</text>
<text text-anchor="start" x="731.5" y="-77.6" font-family="Bitstream Vera Sans" font-size="8.00" fill="#000000">VARCHAR</text>
<text text-anchor="start" x="663.5" y="-64.6" font-family="Bitstream Vera Sans" font-size="8.00" fill="#000000">⚪ numericCode</text>
<text text-anchor="start" x="731.5" y="-64.6" font-family="Bitstream Vera Sans" font-size="8.00" fill="#000000">VARCHAR</text>
<text text-anchor="start" x="663.5" y="-51.6" font-family="Bitstream Vera Sans" font-size="8.00" fill="#000000">⚪ population</text>
<text text-anchor="start" x="731.5" y="-51.6" font-family="Bitstream Vera Sans" font-size="8.00" fill="#000000">INTEGER</text>
<text text-anchor="start" x="663.5" y="-38.6" font-family="Bitstream Vera Sans" font-size="8.00" fill="#000000">⚪ region</text>
<text text-anchor="start" x="731.5" y="-38.6" font-family="Bitstream Vera Sans" font-size="8.00" fill="#000000">VARCHAR</text>
<text text-anchor="start" x="663.5" y="-25.6" font-family="Bitstream Vera Sans" font-size="8.00" fill="#000000">⚪ subregion</text>
<text text-anchor="start" x="731.5" y="-25.6" font-family="Bitstream Vera Sans" font-size="8.00" fill="#000000">VARCHAR</text>
</g>
<!-- bridge_countries_altSpellings&#45;&gt;countries -->
<g id="edge1" class="edge">
<title>bridge_countries_altSpellings&#45;&gt;countries</title>
<path fill="none" stroke="#000000" d="M84.7634,-346.8528C100.9628,-318.5849 131.2563,-274.5344 171.5,-255 262.701,-210.7308 532.3415,-282.5752 641.8639,-236.4009"/>
<polygon fill="none" stroke="#000000" points="642.0839,-236.2939 645.7298,-230.0724 652.875,-231.0449 649.2292,-237.2664 642.0839,-236.2939"/>
<text text-anchor="middle" x="197.5" y="-257.6" font-family="Bitstream Vera Sans" font-size="8.00" fill="#000000">countries_id</text>
</g>
<!-- bridge_countries_borders -->
<g id="node4" class="node">
<title>bridge_countries_borders</title>
<polygon fill="#ffffe0" stroke="transparent" points="171,-351 171,-394 282,-394 282,-351 171,-351"/>
<polygon fill="#eee8aa" stroke="transparent" points="171.5,-376.5 171.5,-393.5 282.5,-393.5 282.5,-376.5 171.5,-376.5"/>
<text text-anchor="start" x="175.5" y="-383.1" font-family="Helvetica Bold" font-size="8.00" fill="#000000">bridge_countries_borders</text>
<text text-anchor="start" x="173.5" y="-368.1" font-family="Bitstream Vera Sans" font-size="8.00" fill="#000000">☆ borders_id</text>
<text text-anchor="start" x="241.5" y="-368.1" font-family="Bitstream Vera Sans" font-size="8.00" fill="#000000">INTEGER</text>
<text text-anchor="start" x="173.5" y="-355.1" font-family="Bitstream Vera Sans" font-size="8.00" fill="#000000">☆ countries_id</text>
<text text-anchor="start" x="241.5" y="-355.1" font-family="Bitstream Vera Sans" font-size="8.00" fill="#000000">INTEGER</text>
</g>
<!-- bridge_countries_borders&#45;&gt;borders -->
<g id="edge4" class="edge">
<title>bridge_countries_borders&#45;&gt;borders</title>
<path fill="none" stroke="#000000" d="M226.7103,-346.6912C227.0636,-303.3166 227.7782,-215.6048 228.1895,-165.1163"/>
<polygon fill="none" stroke="#000000" points="228.1917,-164.831 224.2408,-158.7986 228.2896,-152.8314 232.2405,-158.8638 228.1917,-164.831"/>
<text text-anchor="middle" x="250.5" y="-257.6" font-family="Bitstream Vera Sans" font-size="8.00" fill="#000000">borders_id</text>
</g>
<!-- bridge_countries_borders&#45;&gt;countries -->
<g id="edge3" class="edge">
<title>bridge_countries_borders&#45;&gt;countries</title>
<path fill="none" stroke="#000000" d="M238.7572,-346.7634C253.7029,-318.636 281.8363,-274.9259 320.5,-255 381.4067,-223.6109 562.7705,-267.8159 641.9232,-236.2026"/>
<polygon fill="none" stroke="#000000" points="642.0133,-236.1594 645.6935,-229.9581 652.8333,-230.9702 649.153,-237.1715 642.0133,-236.1594"/>
<text text-anchor="middle" x="346.5" y="-257.6" font-family="Bitstream Vera Sans" font-size="8.00" fill="#000000">countries_id</text>
</g>
<!-- bridge_countries_callingCodes -->
<g id="node5" class="node">
<title>bridge_countries_callingCodes</title>
<polygon fill="#ffffe0" stroke="transparent" points="316.5,-351 316.5,-394 448.5,-394 448.5,-351 316.5,-351"/>
<polygon fill="#eee8aa" stroke="transparent" points="316.5,-376.5 316.5,-393.5 448.5,-393.5 448.5,-376.5 316.5,-376.5"/>
<text text-anchor="start" x="320.5" y="-383.1" font-family="Helvetica Bold" font-size="8.00" fill="#000000">bridge_countries_callingCodes</text>
<text text-anchor="start" x="318.5" y="-368.1" font-family="Bitstream Vera Sans" font-size="8.00" fill="#000000">☆ callingCodes_id</text>
<text text-anchor="start" x="403.5" y="-368.1" font-family="Bitstream Vera Sans" font-size="8.00" fill="#000000">INTEGER</text>
<text text-anchor="start" x="318.5" y="-355.1" font-family="Bitstream Vera Sans" font-size="8.00" fill="#000000">☆ countries_id</text>
<text text-anchor="start" x="403.5" y="-355.1" font-family="Bitstream Vera Sans" font-size="8.00" fill="#000000">INTEGER</text>
</g>
<!-- callingCodes -->
<g id="node14" class="node">
<title>callingCodes</title>
<polygon fill="#ffffe0" stroke="transparent" points="334.5,-105.5 334.5,-148.5 416.5,-148.5 416.5,-105.5 334.5,-105.5"/>
<polygon fill="#eee8aa" stroke="transparent" points="334.5,-131 334.5,-148 416.5,-148 416.5,-131 334.5,-131"/>
<text text-anchor="start" x="349.5" y="-137.6" font-family="Helvetica Bold" font-size="8.00" fill="#000000">callingCodes</text>
<text text-anchor="start" x="336.5" y="-122.6" font-family="Bitstream Vera Sans" font-size="8.00" fill="#000000">★ _id</text>
<text text-anchor="start" x="371.5" y="-122.6" font-family="Bitstream Vera Sans" font-size="8.00" fill="#000000">INTEGER</text>
<text text-anchor="start" x="336.5" y="-109.6" font-family="Bitstream Vera Sans" font-size="8.00" fill="#000000">⚪ value</text>
<text text-anchor="start" x="371.5" y="-109.6" font-family="Bitstream Vera Sans" font-size="8.00" fill="#000000">VARCHAR</text>
</g>
<!-- bridge_countries_callingCodes&#45;&gt;callingCodes -->
<g id="edge6" class="edge">
<title>bridge_countries_callingCodes&#45;&gt;callingCodes</title>
<path fill="none" stroke="#000000" d="M380.7209,-346.6466C379.2926,-324.6737 377.3848,-292.2845 376.5,-264 375.4503,-230.4442 375.2541,-192.2439 375.2894,-164.7213"/>
<polygon fill="none" stroke="#000000" points="375.2898,-164.5092 371.3055,-158.4988 375.3211,-152.5092 379.3055,-158.5196 375.2898,-164.5092"/>
<text text-anchor="middle" x="409.5" y="-257.6" font-family="Bitstream Vera Sans" font-size="8.00" fill="#000000">callingCodes_id</text>
</g>
<!-- bridge_countries_callingCodes&#45;&gt;countries -->
<g id="edge5" class="edge">
<title>bridge_countries_callingCodes&#45;&gt;countries</title>
<path fill="none" stroke="#000000" d="M401.9001,-346.7615C417.5297,-327.2546 440.8888,-300.705 465.5,-282 486.5472,-266.0037 493.3007,-262.9913 518.5,-255 568.5543,-239.1266 592.6757,-263.1987 642.263,-236.6302"/>
<polygon fill="none" stroke="#000000" points="642.5437,-236.4654 645.6917,-229.9777 652.8912,-230.3883 649.7431,-236.876 642.5437,-236.4654"/>
<text text-anchor="middle" x="544.5" y="-257.6" font-family="Bitstream Vera Sans" font-size="8.00" fill="#000000">countries_id</text>
</g>
<!-- bridge_countries_currencies -->
<g id="node6" class="node">
<title>bridge_countries_currencies</title>
<polygon fill="#ffffe0" stroke="transparent" points="630.5,-351 630.5,-394 752.5,-394 752.5,-351 630.5,-351"/>
<polygon fill="#eee8aa" stroke="transparent" points="630.5,-376.5 630.5,-393.5 752.5,-393.5 752.5,-376.5 630.5,-376.5"/>
<text text-anchor="start" x="634.5" y="-383.1" font-family="Helvetica Bold" font-size="8.00" fill="#000000">bridge_countries_currencies</text>
<text text-anchor="start" x="632.5" y="-368.1" font-family="Bitstream Vera Sans" font-size="8.00" fill="#000000">☆ countries_id</text>
<text text-anchor="start" x="708.5" y="-368.1" font-family="Bitstream Vera Sans" font-size="8.00" fill="#000000">INTEGER</text>
<text text-anchor="start" x="632.5" y="-355.1" font-family="Bitstream Vera Sans" font-size="8.00" fill="#000000">☆ currencies_id</text>
<text text-anchor="start" x="708.5" y="-355.1" font-family="Bitstream Vera Sans" font-size="8.00" fill="#000000">INTEGER</text>
</g>
<!-- bridge_countries_currencies&#45;&gt;countries -->
<g id="edge7" class="edge">
<title>bridge_countries_currencies&#45;&gt;countries</title>
<path fill="none" stroke="#000000" d="M694.012,-346.8165C696.3673,-323.0043 700.0357,-286.594 703.5,-255 703.7081,-253.1026 703.9189,-251.1894 704.1321,-249.2638"/>
<polygon fill="none" stroke="#000000" points="704.1358,-249.23 700.8267,-242.8229 705.4682,-237.3041 708.7773,-243.7112 704.1358,-249.23"/>
<text text-anchor="middle" x="729.5" y="-257.6" font-family="Bitstream Vera Sans" font-size="8.00" fill="#000000">countries_id</text>
</g>
<!-- currencies -->
<g id="node16" class="node">
<title>currencies</title>
<polygon fill="#ffffe0" stroke="transparent" points="536.5,-92.5 536.5,-161.5 626.5,-161.5 626.5,-92.5 536.5,-92.5"/>
<polygon fill="#eee8aa" stroke="transparent" points="536.5,-144 536.5,-161 626.5,-161 626.5,-144 536.5,-144"/>
<text text-anchor="start" x="560.5" y="-150.6" font-family="Helvetica Bold" font-size="8.00" fill="#000000">currencies</text>
<text text-anchor="start" x="538.5" y="-135.6" font-family="Bitstream Vera Sans" font-size="8.00" fill="#000000">★ _id</text>
<text text-anchor="start" x="581.5" y="-135.6" font-family="Bitstream Vera Sans" font-size="8.00" fill="#000000">INTEGER</text>
<text text-anchor="start" x="538.5" y="-122.6" font-family="Bitstream Vera Sans" font-size="8.00" fill="#000000">⚪ code</text>
<text text-anchor="start" x="581.5" y="-122.6" font-family="Bitstream Vera Sans" font-size="8.00" fill="#000000">VARCHAR</text>
<text text-anchor="start" x="538.5" y="-109.6" font-family="Bitstream Vera Sans" font-size="8.00" fill="#000000">⚪ name</text>
<text text-anchor="start" x="581.5" y="-109.6" font-family="Bitstream Vera Sans" font-size="8.00" fill="#000000">VARCHAR</text>
<text text-anchor="start" x="538.5" y="-96.6" font-family="Bitstream Vera Sans" font-size="8.00" fill="#000000">⚪ symbol</text>
<text text-anchor="start" x="581.5" y="-96.6" font-family="Bitstream Vera Sans" font-size="8.00" fill="#000000">VARCHAR</text>
</g>
<!-- bridge_countries_currencies&#45;&gt;currencies -->
<g id="edge8" class="edge">
<title>bridge_countries_currencies&#45;&gt;currencies</title>
<path fill="none" stroke="#000000" d="M679.4404,-346.6945C669.2259,-324.7509 654.2514,-292.3778 641.5,-264 628.5675,-235.2191 614.3934,-202.8928 603.0703,-176.8718"/>
<polygon fill="none" stroke="#000000" points="603.0269,-176.7718 596.9669,-172.8632 598.2441,-165.7661 604.3041,-169.6746 603.0269,-176.7718"/>
<text text-anchor="middle" x="670" y="-257.6" font-family="Bitstream Vera Sans" font-size="8.00" fill="#000000">currencies_id</text>
</g>
<!-- bridge_countries_languages -->
<g id="node7" class="node">
<title>bridge_countries_languages</title>
<polygon fill="#ffffe0" stroke="transparent" points="786.5,-351 786.5,-394 908.5,-394 908.5,-351 786.5,-351"/>
<polygon fill="#eee8aa" stroke="transparent" points="786.5,-376.5 786.5,-393.5 908.5,-393.5 908.5,-376.5 786.5,-376.5"/>
<text text-anchor="start" x="790.5" y="-383.1" font-family="Helvetica Bold" font-size="8.00" fill="#000000">bridge_countries_languages</text>
<text text-anchor="start" x="788.5" y="-368.1" font-family="Bitstream Vera Sans" font-size="8.00" fill="#000000">☆ countries_id</text>
<text text-anchor="start" x="864.5" y="-368.1" font-family="Bitstream Vera Sans" font-size="8.00" fill="#000000">INTEGER</text>
<text text-anchor="start" x="788.5" y="-355.1" font-family="Bitstream Vera Sans" font-size="8.00" fill="#000000">☆ languages_id</text>
<text text-anchor="start" x="864.5" y="-355.1" font-family="Bitstream Vera Sans" font-size="8.00" fill="#000000">INTEGER</text>
</g>
<!-- bridge_countries_languages&#45;&gt;countries -->
<g id="edge9" class="edge">
<title>bridge_countries_languages&#45;&gt;countries</title>
<path fill="none" stroke="#000000" d="M833.9386,-346.6912C821.3685,-322.7691 801.7119,-285.3606 782.1584,-248.1483"/>
<polygon fill="none" stroke="#000000" points="781.9597,-247.7701 775.6278,-244.3193 776.3778,-237.1473 782.7097,-240.598 781.9597,-247.7701"/>
<text text-anchor="middle" x="812.5" y="-257.6" font-family="Bitstream Vera Sans" font-size="8.00" fill="#000000">countries_id</text>
</g>
<!-- languages -->
<g id="node17" class="node">
<title>languages</title>
<polygon fill="#ffffe0" stroke="transparent" points="810.5,-86 810.5,-168 920.5,-168 920.5,-86 810.5,-86"/>
<polygon fill="#eee8aa" stroke="transparent" points="810.5,-151 810.5,-168 920.5,-168 920.5,-151 810.5,-151"/>
<text text-anchor="start" x="844.5" y="-157.6" font-family="Helvetica Bold" font-size="8.00" fill="#000000">languages</text>
<text text-anchor="start" x="812.5" y="-142.6" font-family="Bitstream Vera Sans" font-size="8.00" fill="#000000">★ _id</text>
<text text-anchor="start" x="875.5" y="-142.6" font-family="Bitstream Vera Sans" font-size="8.00" fill="#000000">INTEGER</text>
<text text-anchor="start" x="812.5" y="-129.6" font-family="Bitstream Vera Sans" font-size="8.00" fill="#000000">⚪ iso639_1</text>
<text text-anchor="start" x="875.5" y="-129.6" font-family="Bitstream Vera Sans" font-size="8.00" fill="#000000">VARCHAR</text>
<text text-anchor="start" x="812.5" y="-116.6" font-family="Bitstream Vera Sans" font-size="8.00" fill="#000000">⚪ iso639_2</text>
<text text-anchor="start" x="875.5" y="-116.6" font-family="Bitstream Vera Sans" font-size="8.00" fill="#000000">VARCHAR</text>
<text text-anchor="start" x="812.5" y="-103.6" font-family="Bitstream Vera Sans" font-size="8.00" fill="#000000">⚪ name</text>
<text text-anchor="start" x="875.5" y="-103.6" font-family="Bitstream Vera Sans" font-size="8.00" fill="#000000">VARCHAR</text>
<text text-anchor="start" x="812.5" y="-90.6" font-family="Bitstream Vera Sans" font-size="8.00" fill="#000000">⚪ nativeName</text>
<text text-anchor="start" x="875.5" y="-90.6" font-family="Bitstream Vera Sans" font-size="8.00" fill="#000000">VARCHAR</text>
</g>
<!-- bridge_countries_languages&#45;&gt;languages -->
<g id="edge10" class="edge">
<title>bridge_countries_languages&#45;&gt;languages</title>
<path fill="none" stroke="#000000" d="M848.8359,-346.8153C850.1205,-323.0023 852.2019,-286.5915 854.5,-255 856.1784,-231.927 858.3025,-206.5387 860.2355,-184.4989"/>
<polygon fill="none" stroke="#000000" points="860.2577,-184.2478 856.8025,-177.9184 861.3162,-172.2946 864.7713,-178.6241 860.2577,-184.2478"/>
<text text-anchor="middle" x="882.5" y="-257.6" font-family="Bitstream Vera Sans" font-size="8.00" fill="#000000">languages_id</text>
</g>
<!-- bridge_countries_latlng -->
<g id="node8" class="node">
<title>bridge_countries_latlng</title>
<polygon fill="#ffffe0" stroke="transparent" points="1277,-351 1277,-394 1384,-394 1384,-351 1277,-351"/>
<polygon fill="#eee8aa" stroke="transparent" points="1277.5,-376.5 1277.5,-393.5 1384.5,-393.5 1384.5,-376.5 1277.5,-376.5"/>
<text text-anchor="start" x="1283.5" y="-383.1" font-family="Helvetica Bold" font-size="8.00" fill="#000000">bridge_countries_latlng</text>
<text text-anchor="start" x="1279.5" y="-368.1" font-family="Bitstream Vera Sans" font-size="8.00" fill="#000000">☆ countries_id</text>
<text text-anchor="start" x="1345.5" y="-368.1" font-family="Bitstream Vera Sans" font-size="8.00" fill="#000000">INTEGER</text>
<text text-anchor="start" x="1279.5" y="-355.1" font-family="Bitstream Vera Sans" font-size="8.00" fill="#000000">☆ latlng_id</text>
<text text-anchor="start" x="1345.5" y="-355.1" font-family="Bitstream Vera Sans" font-size="8.00" fill="#000000">INTEGER</text>
</g>
<!-- bridge_countries_latlng&#45;&gt;countries -->
<g id="edge11" class="edge">
<title>bridge_countries_latlng&#45;&gt;countries</title>
<path fill="none" stroke="#000000" d="M1319.8507,-346.9586C1306.5738,-318.7878 1280.9662,-274.8262 1243.5,-255 1158.1518,-209.8358 900.0674,-280.2386 794.9903,-236.3058"/>
<polygon fill="none" stroke="#000000" points="794.926,-236.2747 787.7818,-237.2547 784.1293,-231.0369 791.2736,-230.0569 794.926,-236.2747"/>
<text text-anchor="middle" x="1282.5" y="-257.6" font-family="Bitstream Vera Sans" font-size="8.00" fill="#000000">countries_id</text>
</g>
<!-- latlng -->
<g id="node18" class="node">
<title>latlng</title>
<polygon fill="#ffffe0" stroke="transparent" points="1302.5,-105.5 1302.5,-148.5 1378.5,-148.5 1378.5,-105.5 1302.5,-105.5"/>
<polygon fill="#eee8aa" stroke="transparent" points="1302.5,-131 1302.5,-148 1378.5,-148 1378.5,-131 1302.5,-131"/>
<text text-anchor="start" x="1329" y="-137.6" font-family="Helvetica Bold" font-size="8.00" fill="#000000">latlng</text>
<text text-anchor="start" x="1304.5" y="-122.6" font-family="Bitstream Vera Sans" font-size="8.00" fill="#000000">★ _id</text>
<text text-anchor="start" x="1339.5" y="-122.6" font-family="Bitstream Vera Sans" font-size="8.00" fill="#000000">INTEGER</text>
<text text-anchor="start" x="1304.5" y="-109.6" font-family="Bitstream Vera Sans" font-size="8.00" fill="#000000">⚪ value</text>
<text text-anchor="start" x="1339.5" y="-109.6" font-family="Bitstream Vera Sans" font-size="8.00" fill="#000000">FLOAT</text>
</g>
<!-- bridge_countries_latlng&#45;&gt;latlng -->
<g id="edge12" class="edge">
<title>bridge_countries_latlng&#45;&gt;latlng</title>
<path fill="none" stroke="#000000" d="M1331.5513,-346.6912C1333.3181,-303.3166 1336.8908,-215.6048 1338.9474,-165.1163"/>
<polygon fill="none" stroke="#000000" points="1338.9593,-164.8214 1335.2069,-158.6636 1339.4478,-152.8314 1343.2002,-158.9892 1338.9593,-164.8214"/>
<text text-anchor="middle" x="1352.5" y="-257.6" font-family="Bitstream Vera Sans" font-size="8.00" fill="#000000">latlng_id</text>
</g>
<!-- bridge_countries_regionalBlocs -->
<g id="node9" class="node">
<title>bridge_countries_regionalBlocs</title>
<polygon fill="#ffffe0" stroke="transparent" points="1418,-351 1418,-394 1553,-394 1553,-351 1418,-351"/>
<polygon fill="#eee8aa" stroke="transparent" points="1418.5,-376.5 1418.5,-393.5 1553.5,-393.5 1553.5,-376.5 1418.5,-376.5"/>
<text text-anchor="start" x="1422.5" y="-383.1" font-family="Helvetica Bold" font-size="8.00" fill="#000000">bridge_countries_regionalBlocs</text>
<text text-anchor="start" x="1420.5" y="-368.1" font-family="Bitstream Vera Sans" font-size="8.00" fill="#000000">☆ countries_id</text>
<text text-anchor="start" x="1509.5" y="-368.1" font-family="Bitstream Vera Sans" font-size="8.00" fill="#000000">INTEGER</text>
<text text-anchor="start" x="1420.5" y="-355.1" font-family="Bitstream Vera Sans" font-size="8.00" fill="#000000">☆ regionalBlocs_id</text>
<text text-anchor="start" x="1509.5" y="-355.1" font-family="Bitstream Vera Sans" font-size="8.00" fill="#000000">INTEGER</text>
</g>
<!-- bridge_countries_regionalBlocs&#45;&gt;countries -->
<g id="edge13" class="edge">
<title>bridge_countries_regionalBlocs&#45;&gt;countries</title>
<path fill="none" stroke="#000000" d="M1470.343,-346.7711C1451.8487,-318.2026 1417.6427,-273.6581 1374.5,-255 1317.8827,-230.5145 891.0947,-264.7125 795.3483,-235.6141"/>
<polygon fill="none" stroke="#000000" points="795.2353,-235.5685 788.174,-237.031 784.1081,-231.0754 791.1694,-229.6129 795.2353,-235.5685"/>
<text text-anchor="middle" x="1415.5" y="-257.6" font-family="Bitstream Vera Sans" font-size="8.00" fill="#000000">countries_id</text>
</g>
<!-- regionalBlocs -->
<g id="node21" class="node">
<title>regionalBlocs</title>
<polygon fill="#ffffe0" stroke="transparent" points="1499,-99 1499,-155 1596,-155 1596,-99 1499,-99"/>
<polygon fill="#eee8aa" stroke="transparent" points="1499.5,-138 1499.5,-155 1596.5,-155 1596.5,-138 1499.5,-138"/>
<text text-anchor="start" x="1520.5" y="-144.6" font-family="Helvetica Bold" font-size="8.00" fill="#000000">regionalBlocs</text>
<text text-anchor="start" x="1501.5" y="-129.6" font-family="Bitstream Vera Sans" font-size="8.00" fill="#000000">★ _id</text>
<text text-anchor="start" x="1551.5" y="-129.6" font-family="Bitstream Vera Sans" font-size="8.00" fill="#000000">INTEGER</text>
<text text-anchor="start" x="1501.5" y="-116.6" font-family="Bitstream Vera Sans" font-size="8.00" fill="#000000">⚪ acronym</text>
<text text-anchor="start" x="1551.5" y="-116.6" font-family="Bitstream Vera Sans" font-size="8.00" fill="#000000">VARCHAR</text>
<text text-anchor="start" x="1501.5" y="-103.6" font-family="Bitstream Vera Sans" font-size="8.00" fill="#000000">⚪ name</text>
<text text-anchor="start" x="1551.5" y="-103.6" font-family="Bitstream Vera Sans" font-size="8.00" fill="#000000">VARCHAR</text>
</g>
<!-- bridge_countries_regionalBlocs&#45;&gt;regionalBlocs -->
<g id="edge14" class="edge">
<title>bridge_countries_regionalBlocs&#45;&gt;regionalBlocs</title>
<path fill="none" stroke="#000000" d="M1482.5654,-346.9153C1480.5425,-322.8591 1479.3497,-286.0104 1486.5,-255 1493.4067,-225.0459 1508.0898,-193.858 1521.3194,-169.7673"/>
<polygon fill="none" stroke="#000000" points="1521.3681,-169.6807 1520.831,-162.4896 1527.2623,-159.228 1527.7995,-166.4191 1521.3681,-169.6807"/>
<text text-anchor="middle" x="1521.5" y="-257.6" font-family="Bitstream Vera Sans" font-size="8.00" fill="#000000">regionalBlocs_id</text>
</g>
<!-- bridge_countries_timezones -->
<g id="node10" class="node">
<title>bridge_countries_timezones</title>
<polygon fill="#ffffe0" stroke="transparent" points="1122.5,-351 1122.5,-394 1242.5,-394 1242.5,-351 1122.5,-351"/>
<polygon fill="#eee8aa" stroke="transparent" points="1122.5,-376.5 1122.5,-393.5 1242.5,-393.5 1242.5,-376.5 1122.5,-376.5"/>
<text text-anchor="start" x="1126.5" y="-383.1" font-family="Helvetica Bold" font-size="8.00" fill="#000000">bridge_countries_timezones</text>
<text text-anchor="start" x="1124.5" y="-368.1" font-family="Bitstream Vera Sans" font-size="8.00" fill="#000000">☆ countries_id</text>
<text text-anchor="start" x="1199.5" y="-368.1" font-family="Bitstream Vera Sans" font-size="8.00" fill="#000000">INTEGER</text>
<text text-anchor="start" x="1124.5" y="-355.1" font-family="Bitstream Vera Sans" font-size="8.00" fill="#000000">☆ timezones_id</text>
<text text-anchor="start" x="1199.5" y="-355.1" font-family="Bitstream Vera Sans" font-size="8.00" fill="#000000">INTEGER</text>
</g>
<!-- bridge_countries_timezones&#45;&gt;countries -->
<g id="edge15" class="edge">
<title>bridge_countries_timezones&#45;&gt;countries</title>
<path fill="none" stroke="#000000" d="M1170.4278,-346.8056C1155.6906,-318.7165 1127.9012,-275.041 1089.5,-255 1034.0449,-226.0589 868.7962,-265.1677 795.1768,-236.2027"/>
<polygon fill="none" stroke="#000000" points="795.0067,-236.1215 787.8685,-237.1444 784.1789,-230.9487 791.3171,-229.9258 795.0067,-236.1215"/>
<text text-anchor="middle" x="1128.5" y="-257.6" font-family="Bitstream Vera Sans" font-size="8.00" fill="#000000">countries_id</text>
</g>
<!-- timezones -->
<g id="node22" class="node">
<title>timezones</title>
<polygon fill="#ffffe0" stroke="transparent" points="1145.5,-105.5 1145.5,-148.5 1227.5,-148.5 1227.5,-105.5 1145.5,-105.5"/>
<polygon fill="#eee8aa" stroke="transparent" points="1145.5,-131 1145.5,-148 1227.5,-148 1227.5,-131 1145.5,-131"/>
<text text-anchor="start" x="1166.5" y="-137.6" font-family="Helvetica Bold" font-size="8.00" fill="#000000">timezones</text>
<text text-anchor="start" x="1147.5" y="-122.6" font-family="Bitstream Vera Sans" font-size="8.00" fill="#000000">★ _id</text>
<text text-anchor="start" x="1182.5" y="-122.6" font-family="Bitstream Vera Sans" font-size="8.00" fill="#000000">INTEGER</text>
<text text-anchor="start" x="1147.5" y="-109.6" font-family="Bitstream Vera Sans" font-size="8.00" fill="#000000">⚪ value</text>
<text text-anchor="start" x="1182.5" y="-109.6" font-family="Bitstream Vera Sans" font-size="8.00" fill="#000000">VARCHAR</text>
</g>
<!-- bridge_countries_timezones&#45;&gt;timezones -->
<g id="edge16" class="edge">
<title>bridge_countries_timezones&#45;&gt;timezones</title>
<path fill="none" stroke="#000000" d="M1182.9205,-346.6912C1183.6272,-303.3166 1185.0563,-215.6048 1185.879,-165.1163"/>
<polygon fill="none" stroke="#000000" points="1185.8835,-164.8298 1181.9819,-158.7654 1186.0791,-152.8314 1189.9808,-158.8958 1185.8835,-164.8298"/>
<text text-anchor="middle" x="1211.5" y="-257.6" font-family="Bitstream Vera Sans" font-size="8.00" fill="#000000">timezones_id</text>
</g>
<!-- bridge_countries_topLevelDomain -->
<g id="node11" class="node">
<title>bridge_countries_topLevelDomain</title>
<polygon fill="#ffffe0" stroke="transparent" points="943,-351 943,-394 1088,-394 1088,-351 943,-351"/>
<polygon fill="#eee8aa" stroke="transparent" points="943.5,-376.5 943.5,-393.5 1088.5,-393.5 1088.5,-376.5 943.5,-376.5"/>
<text text-anchor="start" x="947.5" y="-383.1" font-family="Helvetica Bold" font-size="8.00" fill="#000000">bridge_countries_topLevelDomain</text>
<text text-anchor="start" x="945.5" y="-368.1" font-family="Bitstream Vera Sans" font-size="8.00" fill="#000000">☆ countries_id</text>
<text text-anchor="start" x="1044.5" y="-368.1" font-family="Bitstream Vera Sans" font-size="8.00" fill="#000000">INTEGER</text>
<text text-anchor="start" x="945.5" y="-355.1" font-family="Bitstream Vera Sans" font-size="8.00" fill="#000000">☆ topLevelDomain_id</text>
<text text-anchor="start" x="1044.5" y="-355.1" font-family="Bitstream Vera Sans" font-size="8.00" fill="#000000">INTEGER</text>
</g>
<!-- bridge_countries_topLevelDomain&#45;&gt;countries -->
<g id="edge17" class="edge">
<title>bridge_countries_topLevelDomain&#45;&gt;countries</title>
<path fill="none" stroke="#000000" d="M1000.1701,-346.6739C982.327,-319.1153 950.1769,-276.5256 910.5,-255 867.3264,-231.5773 841.5798,-260.6562 794.5151,-236.3765"/>
<polygon fill="none" stroke="#000000" points="794.5113,-236.3743 787.3139,-236.8198 784.1345,-230.3474 791.3318,-229.9019 794.5113,-236.3743"/>
<text text-anchor="middle" x="950.5" y="-257.6" font-family="Bitstream Vera Sans" font-size="8.00" fill="#000000">countries_id</text>
</g>
<!-- topLevelDomain -->
<g id="node23" class="node">
<title>topLevelDomain</title>
<polygon fill="#ffffe0" stroke="transparent" points="966.5,-105.5 966.5,-148.5 1048.5,-148.5 1048.5,-105.5 966.5,-105.5"/>
<polygon fill="#eee8aa" stroke="transparent" points="966.5,-131 966.5,-148 1048.5,-148 1048.5,-131 966.5,-131"/>
<text text-anchor="start" x="975" y="-137.6" font-family="Helvetica Bold" font-size="8.00" fill="#000000">topLevelDomain</text>
<text text-anchor="start" x="968.5" y="-122.6" font-family="Bitstream Vera Sans" font-size="8.00" fill="#000000">★ _id</text>
<text text-anchor="start" x="1003.5" y="-122.6" font-family="Bitstream Vera Sans" font-size="8.00" fill="#000000">INTEGER</text>
<text text-anchor="start" x="968.5" y="-109.6" font-family="Bitstream Vera Sans" font-size="8.00" fill="#000000">⚪ value</text>
<text text-anchor="start" x="1003.5" y="-109.6" font-family="Bitstream Vera Sans" font-size="8.00" fill="#000000">VARCHAR</text>
</g>
<!-- bridge_countries_topLevelDomain&#45;&gt;topLevelDomain -->
<g id="edge18" class="edge">
<title>bridge_countries_topLevelDomain&#45;&gt;topLevelDomain</title>
<path fill="none" stroke="#000000" d="M1013.4156,-346.6523C1011.744,-324.6829 1009.5152,-292.2957 1008.5,-264 1007.2963,-230.4494 1007.1159,-192.2486 1007.1964,-164.7244"/>
<polygon fill="none" stroke="#000000" points="1007.1972,-164.5114 1003.2242,-158.4935 1007.2512,-152.5116 1011.2242,-158.5295 1007.1972,-164.5114"/>
<text text-anchor="middle" x="1049" y="-257.6" font-family="Bitstream Vera Sans" font-size="8.00" fill="#000000">topLevelDomain_id</text>
</g>
<!-- bridge_regionalBlocs_otherAcronyms -->
<g id="node12" class="node">
<title>bridge_regionalBlocs_otherAcronyms</title>
<polygon fill="#ffffe0" stroke="transparent" points="1590,-351 1590,-394 1749,-394 1749,-351 1590,-351"/>
<polygon fill="#eee8aa" stroke="transparent" points="1590.5,-376.5 1590.5,-393.5 1749.5,-393.5 1749.5,-376.5 1590.5,-376.5"/>
<text text-anchor="start" x="1594.5" y="-383.1" font-family="Helvetica Bold" font-size="8.00" fill="#000000">bridge_regionalBlocs_otherAcronyms</text>
<text text-anchor="start" x="1592.5" y="-368.1" font-family="Bitstream Vera Sans" font-size="8.00" fill="#000000">☆ otherAcronyms_id</text>
<text text-anchor="start" x="1697.5" y="-368.1" font-family="Bitstream Vera Sans" font-size="8.00" fill="#000000">INTEGER</text>
<text text-anchor="start" x="1592.5" y="-355.1" font-family="Bitstream Vera Sans" font-size="8.00" fill="#000000">☆ regionalBlocs_id</text>
<text text-anchor="start" x="1697.5" y="-355.1" font-family="Bitstream Vera Sans" font-size="8.00" fill="#000000">INTEGER</text>
</g>
<!-- otherAcronyms -->
<g id="node19" class="node">
<title>otherAcronyms</title>
<polygon fill="#ffffe0" stroke="transparent" points="1630.5,-105.5 1630.5,-148.5 1712.5,-148.5 1712.5,-105.5 1630.5,-105.5"/>
<polygon fill="#eee8aa" stroke="transparent" points="1630.5,-131 1630.5,-148 1712.5,-148 1712.5,-131 1630.5,-131"/>
<text text-anchor="start" x="1641" y="-137.6" font-family="Helvetica Bold" font-size="8.00" fill="#000000">otherAcronyms</text>
<text text-anchor="start" x="1632.5" y="-122.6" font-family="Bitstream Vera Sans" font-size="8.00" fill="#000000">★ _id</text>
<text text-anchor="start" x="1667.5" y="-122.6" font-family="Bitstream Vera Sans" font-size="8.00" fill="#000000">INTEGER</text>
<text text-anchor="start" x="1632.5" y="-109.6" font-family="Bitstream Vera Sans" font-size="8.00" fill="#000000">⚪ value</text>
<text text-anchor="start" x="1667.5" y="-109.6" font-family="Bitstream Vera Sans" font-size="8.00" fill="#000000">VARCHAR</text>
</g>
<!-- bridge_regionalBlocs_otherAcronyms&#45;&gt;otherAcronyms -->
<g id="edge20" class="edge">
<title>bridge_regionalBlocs_otherAcronyms&#45;&gt;otherAcronyms</title>
<path fill="none" stroke="#000000" d="M1669.7103,-346.6912C1670.0636,-303.3166 1670.7782,-215.6048 1671.1895,-165.1163"/>
<polygon fill="none" stroke="#000000" points="1671.1917,-164.831 1667.2408,-158.7986 1671.2896,-152.8314 1675.2405,-158.8638 1671.1917,-164.831"/>
<text text-anchor="middle" x="1708.5" y="-257.6" font-family="Bitstream Vera Sans" font-size="8.00" fill="#000000">otherAcronyms_id</text>
</g>
<!-- bridge_regionalBlocs_otherAcronyms&#45;&gt;regionalBlocs -->
<g id="edge19" class="edge">
<title>bridge_regionalBlocs_otherAcronyms&#45;&gt;regionalBlocs</title>
<path fill="none" stroke="#000000" d="M1649.2256,-346.9435C1633.0713,-325.6775 1610.7159,-294.12 1595.5,-264 1580.404,-234.1174 1568.05,-198.3576 1559.6572,-170.8667"/>
<polygon fill="none" stroke="#000000" points="1559.6229,-170.7514 1554.0758,-166.1438 1556.1955,-159.2513 1561.7426,-163.8588 1559.6229,-170.7514"/>
<text text-anchor="middle" x="1630.5" y="-257.6" font-family="Bitstream Vera Sans" font-size="8.00" fill="#000000">regionalBlocs_id</text>
</g>
<!-- bridge_regionalBlocs_otherNames -->
<g id="node13" class="node">
<title>bridge_regionalBlocs_otherNames</title>
<polygon fill="#ffffe0" stroke="transparent" points="1788,-351 1788,-394 1933,-394 1933,-351 1788,-351"/>
<polygon fill="#eee8aa" stroke="transparent" points="1788.5,-376.5 1788.5,-393.5 1933.5,-393.5 1933.5,-376.5 1788.5,-376.5"/>
<text text-anchor="start" x="1792.5" y="-383.1" font-family="Helvetica Bold" font-size="8.00" fill="#000000">bridge_regionalBlocs_otherNames</text>
<text text-anchor="start" x="1790.5" y="-368.1" font-family="Bitstream Vera Sans" font-size="8.00" fill="#000000">☆ otherNames_id</text>
<text text-anchor="start" x="1884.5" y="-368.1" font-family="Bitstream Vera Sans" font-size="8.00" fill="#000000">INTEGER</text>
<text text-anchor="start" x="1790.5" y="-355.1" font-family="Bitstream Vera Sans" font-size="8.00" fill="#000000">☆ regionalBlocs_id</text>
<text text-anchor="start" x="1884.5" y="-355.1" font-family="Bitstream Vera Sans" font-size="8.00" fill="#000000">INTEGER</text>
</g>
<!-- otherNames -->
<g id="node20" class="node">
<title>otherNames</title>
<polygon fill="#ffffe0" stroke="transparent" points="1824.5,-105.5 1824.5,-148.5 1906.5,-148.5 1906.5,-105.5 1824.5,-105.5"/>
<polygon fill="#eee8aa" stroke="transparent" points="1824.5,-131 1824.5,-148 1906.5,-148 1906.5,-131 1824.5,-131"/>
<text text-anchor="start" x="1841.5" y="-137.6" font-family="Helvetica Bold" font-size="8.00" fill="#000000">otherNames</text>
<text text-anchor="start" x="1826.5" y="-122.6" font-family="Bitstream Vera Sans" font-size="8.00" fill="#000000">★ _id</text>
<text text-anchor="start" x="1861.5" y="-122.6" font-family="Bitstream Vera Sans" font-size="8.00" fill="#000000">INTEGER</text>
<text text-anchor="start" x="1826.5" y="-109.6" font-family="Bitstream Vera Sans" font-size="8.00" fill="#000000">⚪ value</text>
<text text-anchor="start" x="1861.5" y="-109.6" font-family="Bitstream Vera Sans" font-size="8.00" fill="#000000">VARCHAR</text>
</g>
<!-- bridge_regionalBlocs_otherNames&#45;&gt;otherNames -->
<g id="edge22" class="edge">
<title>bridge_regionalBlocs_otherNames&#45;&gt;otherNames</title>
<path fill="none" stroke="#000000" d="M1861.0256,-346.6912C1861.909,-303.3166 1863.6954,-215.6048 1864.7237,-165.1163"/>
<polygon fill="none" stroke="#000000" points="1864.7295,-164.8289 1860.8525,-158.7486 1864.9739,-152.8314 1868.8509,-158.9116 1864.7295,-164.8289"/>
<text text-anchor="middle" x="1894.5" y="-257.6" font-family="Bitstream Vera Sans" font-size="8.00" fill="#000000">otherNames_id</text>
</g>
<!-- bridge_regionalBlocs_otherNames&#45;&gt;regionalBlocs -->
<g id="edge21" class="edge">
<title>bridge_regionalBlocs_otherNames&#45;&gt;regionalBlocs</title>
<path fill="none" stroke="#000000" d="M1844.4016,-346.7511C1825.5589,-319.0474 1791.6372,-276.1295 1750.5,-255 1695.8724,-226.9414 1664.8519,-270.6814 1613.5,-237 1589.6543,-221.3597 1573.1509,-193.8453 1562.6107,-170.2482"/>
<polygon fill="none" stroke="#000000" points="1562.5539,-170.1128 1556.5434,-166.1286 1557.9093,-159.048 1563.9199,-163.0322 1562.5539,-170.1128"/>
<text text-anchor="middle" x="1799.5" y="-257.6" font-family="Bitstream Vera Sans" font-size="8.00" fill="#000000">regionalBlocs_id</text>
</g>
<!-- translations -->
<g id="node24" class="node">
<title>translations</title>
<polygon fill="#ffffe0" stroke="transparent" points="483,-286 483,-459 596,-459 596,-286 483,-286"/>
<polygon fill="#eee8aa" stroke="transparent" points="483.5,-441.5 483.5,-458.5 596.5,-458.5 596.5,-441.5 483.5,-441.5"/>
<text text-anchor="start" x="516" y="-448.1" font-family="Helvetica Bold" font-size="8.00" fill="#000000">translations</text>
<text text-anchor="start" x="485.5" y="-433.1" font-family="Bitstream Vera Sans" font-size="8.00" fill="#000000">★ _id</text>
<text text-anchor="start" x="551.5" y="-433.1" font-family="Bitstream Vera Sans" font-size="8.00" fill="#000000">INTEGER</text>
<text text-anchor="start" x="485.5" y="-420.1" font-family="Bitstream Vera Sans" font-size="8.00" fill="#000000">☆ countries_id</text>
<text text-anchor="start" x="551.5" y="-420.1" font-family="Bitstream Vera Sans" font-size="8.00" fill="#000000">INTEGER</text>
<text text-anchor="start" x="485.5" y="-407.1" font-family="Bitstream Vera Sans" font-size="8.00" fill="#000000">⚪ br</text>
<text text-anchor="start" x="551.5" y="-407.1" font-family="Bitstream Vera Sans" font-size="8.00" fill="#000000">VARCHAR</text>
<text text-anchor="start" x="485.5" y="-394.1" font-family="Bitstream Vera Sans" font-size="8.00" fill="#000000">⚪ de</text>
<text text-anchor="start" x="551.5" y="-394.1" font-family="Bitstream Vera Sans" font-size="8.00" fill="#000000">VARCHAR</text>
<text text-anchor="start" x="485.5" y="-381.1" font-family="Bitstream Vera Sans" font-size="8.00" fill="#000000">⚪ es</text>
<text text-anchor="start" x="551.5" y="-381.1" font-family="Bitstream Vera Sans" font-size="8.00" fill="#000000">VARCHAR</text>
<text text-anchor="start" x="485.5" y="-368.1" font-family="Bitstream Vera Sans" font-size="8.00" fill="#000000">⚪ fa</text>
<text text-anchor="start" x="551.5" y="-368.1" font-family="Bitstream Vera Sans" font-size="8.00" fill="#000000">VARCHAR</text>
<text text-anchor="start" x="485.5" y="-355.1" font-family="Bitstream Vera Sans" font-size="8.00" fill="#000000">⚪ fr</text>
<text text-anchor="start" x="551.5" y="-355.1" font-family="Bitstream Vera Sans" font-size="8.00" fill="#000000">VARCHAR</text>
<text text-anchor="start" x="485.5" y="-342.1" font-family="Bitstream Vera Sans" font-size="8.00" fill="#000000">⚪ hr</text>
<text text-anchor="start" x="551.5" y="-342.1" font-family="Bitstream Vera Sans" font-size="8.00" fill="#000000">VARCHAR</text>
<text text-anchor="start" x="485.5" y="-329.1" font-family="Bitstream Vera Sans" font-size="8.00" fill="#000000">⚪ it</text>
<text text-anchor="start" x="551.5" y="-329.1" font-family="Bitstream Vera Sans" font-size="8.00" fill="#000000">VARCHAR</text>
<text text-anchor="start" x="485.5" y="-316.1" font-family="Bitstream Vera Sans" font-size="8.00" fill="#000000">⚪ ja</text>
<text text-anchor="start" x="551.5" y="-316.1" font-family="Bitstream Vera Sans" font-size="8.00" fill="#000000">VARCHAR</text>
<text text-anchor="start" x="485.5" y="-303.1" font-family="Bitstream Vera Sans" font-size="8.00" fill="#000000">⚪ nl</text>
<text text-anchor="start" x="551.5" y="-303.1" font-family="Bitstream Vera Sans" font-size="8.00" fill="#000000">VARCHAR</text>
<text text-anchor="start" x="485.5" y="-290.1" font-family="Bitstream Vera Sans" font-size="8.00" fill="#000000">⚪ pt</text>
<text text-anchor="start" x="551.5" y="-290.1" font-family="Bitstream Vera Sans" font-size="8.00" fill="#000000">VARCHAR</text>
</g>
<!-- translations&#45;&gt;countries -->
<g id="edge23" class="edge">
<title>translations&#45;&gt;countries</title>
<path fill="none" stroke="#000000" d="M561.5306,-281.9893C566.8196,-271.9705 573.3752,-262.6457 581.5,-255 600.1105,-237.4869 616.3257,-250.2534 642.6052,-236.1109"/>
<polygon fill="none" stroke="#000000" points="642.6724,-236.0678 645.5554,-229.4581 652.7656,-229.5771 649.8825,-236.1869 642.6724,-236.0678"/>
<text text-anchor="middle" x="607.5" y="-257.6" font-family="Bitstream Vera Sans" font-size="8.00" fill="#000000">countries_id</text>
</g>
</g>
</svg>
