<?xml version="1.0" encoding="UTF-8" standalone="no"?>
<!DOCTYPE svg PUBLIC "-//W3C//DTD SVG 1.1//EN"
 "http://www.w3.org/Graphics/SVG/1.1/DTD/svg11.dtd">
<!-- Generated by graphviz version 2.40.1 (20161225.0304)
 -->
<!-- Title: G Pages: 1 -->
<svg width="800pt" height="193pt"
 viewBox="0.00 0.00 1775.00 936.00" xmlns="http://www.w3.org/2000/svg" xmlns:xlink="http://www.w3.org/1999/xlink">
<g id="graph0" class="graph" transform="scale(1 1) rotate(0) translate(4 932)">
<title>G</title>
<polygon fill="#ffffff" stroke="transparent" points="-4,4 -4,-932 1771,-932 1771,4 -4,4"/>
<text text-anchor="middle" x="883.5" y="-6.6" font-family="Bitstream Vera Sans" font-size="8.00" fill="#000000">generated by sadisplay v0.4.9</text>
<!-- acquiring_company -->
<g id="node1" class="node">
<title>acquiring_company</title>
<polygon fill="#ffffe0" stroke="transparent" points="39.5,-136.5 39.5,-192.5 140.5,-192.5 140.5,-136.5 39.5,-136.5"/>
<polygon fill="#eee8aa" stroke="transparent" points="40,-175.5 40,-192.5 141,-192.5 141,-175.5 40,-175.5"/>
<text text-anchor="start" x="51" y="-182.1" font-family="Helvetica Bold" font-size="8.00" fill="#000000">acquiring_company</text>
<text text-anchor="start" x="42" y="-167.1" font-family="Bitstream Vera Sans" font-size="8.00" fill="#000000">★ _id</text>
<text text-anchor="start" x="96" y="-167.1" font-family="Bitstream Vera Sans" font-size="8.00" fill="#000000">INTEGER</text>
<text text-anchor="start" x="42" y="-154.1" font-family="Bitstream Vera Sans" font-size="8.00" fill="#000000">⚪ name</text>
<text text-anchor="start" x="96" y="-154.1" font-family="Bitstream Vera Sans" font-size="8.00" fill="#000000">VARCHAR</text>
<text text-anchor="start" x="42" y="-141.1" font-family="Bitstream Vera Sans" font-size="8.00" fill="#000000">⚪ permalink</text>
<text text-anchor="start" x="96" y="-141.1" font-family="Bitstream Vera Sans" font-size="8.00" fill="#000000">VARCHAR</text>
</g>
<!-- acquisition -->
<g id="node2" class="node">
<title>acquisition</title>
<polygon fill="#ffffe0" stroke="transparent" points="8,-258.5 8,-405.5 172,-405.5 172,-258.5 8,-258.5"/>
<polygon fill="#eee8aa" stroke="transparent" points="8,-388 8,-405 172,-405 172,-388 8,-388"/>
<text text-anchor="start" x="67.5" y="-394.6" font-family="Helvetica Bold" font-size="8.00" fill="#000000">acquisition</text>
<text text-anchor="start" x="10" y="-379.6" font-family="Bitstream Vera Sans" font-size="8.00" fill="#000000">★ _id</text>
<text text-anchor="start" x="127" y="-379.6" font-family="Bitstream Vera Sans" font-size="8.00" fill="#000000">INTEGER</text>
<text text-anchor="start" x="10" y="-366.6" font-family="Bitstream Vera Sans" font-size="8.00" fill="#000000">☆ acquiring_company_key</text>
<text text-anchor="start" x="127" y="-366.6" font-family="Bitstream Vera Sans" font-size="8.00" fill="#000000">INTEGER</text>
<text text-anchor="start" x="10" y="-353.6" font-family="Bitstream Vera Sans" font-size="8.00" fill="#000000">⚪ acquired_day</text>
<text text-anchor="start" x="127" y="-353.6" font-family="Bitstream Vera Sans" font-size="8.00" fill="#000000">INTEGER</text>
<text text-anchor="start" x="10" y="-340.6" font-family="Bitstream Vera Sans" font-size="8.00" fill="#000000">⚪ acquired_month</text>
<text text-anchor="start" x="127" y="-340.6" font-family="Bitstream Vera Sans" font-size="8.00" fill="#000000">INTEGER</text>
<text text-anchor="start" x="10" y="-327.6" font-family="Bitstream Vera Sans" font-size="8.00" fill="#000000">⚪ acquired_year</text>
<text text-anchor="start" x="127" y="-327.6" font-family="Bitstream Vera Sans" font-size="8.00" fill="#000000">INTEGER</text>
<text text-anchor="start" x="10" y="-314.6" font-family="Bitstream Vera Sans" font-size="8.00" fill="#000000">⚪ price_amount</text>
<text text-anchor="start" x="127" y="-314.6" font-family="Bitstream Vera Sans" font-size="8.00" fill="#000000">INTEGER</text>
<text text-anchor="start" x="10" y="-301.6" font-family="Bitstream Vera Sans" font-size="8.00" fill="#000000">⚪ price_currency_code</text>
<text text-anchor="start" x="127" y="-301.6" font-family="Bitstream Vera Sans" font-size="8.00" fill="#000000">VARCHAR</text>
<text text-anchor="start" x="10" y="-288.6" font-family="Bitstream Vera Sans" font-size="8.00" fill="#000000">⚪ source_description</text>
<text text-anchor="start" x="127" y="-288.6" font-family="Bitstream Vera Sans" font-size="8.00" fill="#000000">VARCHAR</text>
<text text-anchor="start" x="10" y="-275.6" font-family="Bitstream Vera Sans" font-size="8.00" fill="#000000">⚪ source_url</text>
<text text-anchor="start" x="127" y="-275.6" font-family="Bitstream Vera Sans" font-size="8.00" fill="#000000">VARCHAR</text>
<text text-anchor="start" x="10" y="-262.6" font-family="Bitstream Vera Sans" font-size="8.00" fill="#000000">⚪ term_code</text>
<text text-anchor="start" x="127" y="-262.6" font-family="Bitstream Vera Sans" font-size="8.00" fill="#000000">VARCHAR</text>
</g>
<!-- acquisition&#45;&gt;acquiring_company -->
<g id="edge1" class="edge">
<title>acquisition&#45;&gt;acquiring_company</title>
<path fill="none" stroke="#000000" d="M90,-254.1344C90,-238.5669 90,-222.727 90,-208.7803"/>
<polygon fill="none" stroke="#000000" points="90.0001,-208.5666 86,-202.5666 90,-196.5666 94,-202.5665 90.0001,-208.5666"/>
<text text-anchor="middle" x="141.5" y="-223.6" font-family="Bitstream Vera Sans" font-size="8.00" fill="#000000">acquiring_company_key</text>
</g>
<!-- available_sizes -->
<g id="node3" class="node">
<title>available_sizes</title>
<polygon fill="#ffffe0" stroke="transparent" points="933.5,-143 933.5,-186 1032.5,-186 1032.5,-143 933.5,-143"/>
<polygon fill="#eee8aa" stroke="transparent" points="934,-168.5 934,-185.5 1033,-185.5 1033,-168.5 934,-168.5"/>
<text text-anchor="start" x="953.5" y="-175.1" font-family="Helvetica Bold" font-size="8.00" fill="#000000">available_sizes</text>
<text text-anchor="start" x="936" y="-160.1" font-family="Bitstream Vera Sans" font-size="8.00" fill="#000000">★ _id</text>
<text text-anchor="start" x="994" y="-160.1" font-family="Bitstream Vera Sans" font-size="8.00" fill="#000000">INTEGER</text>
<text text-anchor="start" x="936" y="-147.1" font-family="Bitstream Vera Sans" font-size="8.00" fill="#000000">☆ value_key</text>
<text text-anchor="start" x="994" y="-147.1" font-family="Bitstream Vera Sans" font-size="8.00" fill="#000000">INTEGER</text>
</g>
<!-- value -->
<g id="node21" class="node">
<title>value</title>
<polygon fill="#ffffe0" stroke="transparent" points="949,-34 949,-64 1017,-64 1017,-34 949,-34"/>
<polygon fill="#eee8aa" stroke="transparent" points="949,-47 949,-64 1017,-64 1017,-47 949,-47"/>
<text text-anchor="start" x="972" y="-53.6" font-family="Helvetica Bold" font-size="8.00" fill="#000000">value</text>
<text text-anchor="start" x="951" y="-38.6" font-family="Bitstream Vera Sans" font-size="8.00" fill="#000000">★ _id</text>
<text text-anchor="start" x="978" y="-38.6" font-family="Bitstream Vera Sans" font-size="8.00" fill="#000000">INTEGER</text>
</g>
<!-- available_sizes&#45;&gt;value -->
<g id="edge2" class="edge">
<title>available_sizes&#45;&gt;value</title>
<path fill="none" stroke="#000000" d="M983,-138.8668C983,-121.5629 983,-98.6184 983,-80.2448"/>
<polygon fill="none" stroke="#000000" points="983.0001,-80.1008 979,-74.1008 983,-68.1008 987,-74.1008 983.0001,-80.1008"/>
<text text-anchor="middle" x="1004.5" y="-101.6" font-family="Bitstream Vera Sans" font-size="8.00" fill="#000000">value_key</text>
</g>
<!-- competitions -->
<g id="node4" class="node">
<title>competitions</title>
<polygon fill="#ffffe0" stroke="transparent" points="206.5,-310.5 206.5,-353.5 327.5,-353.5 327.5,-310.5 206.5,-310.5"/>
<polygon fill="#eee8aa" stroke="transparent" points="207,-336 207,-353 328,-353 328,-336 207,-336"/>
<text text-anchor="start" x="241" y="-342.6" font-family="Helvetica Bold" font-size="8.00" fill="#000000">competitions</text>
<text text-anchor="start" x="209" y="-327.6" font-family="Bitstream Vera Sans" font-size="8.00" fill="#000000">★ _id</text>
<text text-anchor="start" x="289" y="-327.6" font-family="Bitstream Vera Sans" font-size="8.00" fill="#000000">INTEGER</text>
<text text-anchor="start" x="209" y="-314.6" font-family="Bitstream Vera Sans" font-size="8.00" fill="#000000">☆ competitor_key</text>
<text text-anchor="start" x="289" y="-314.6" font-family="Bitstream Vera Sans" font-size="8.00" fill="#000000">INTEGER</text>
</g>
<!-- competitor -->
<g id="node5" class="node">
<title>competitor</title>
<polygon fill="#ffffe0" stroke="transparent" points="216.5,-136.5 216.5,-192.5 317.5,-192.5 317.5,-136.5 216.5,-136.5"/>
<polygon fill="#eee8aa" stroke="transparent" points="217,-175.5 217,-192.5 318,-192.5 318,-175.5 217,-175.5"/>
<text text-anchor="start" x="245.5" y="-182.1" font-family="Helvetica Bold" font-size="8.00" fill="#000000">competitor</text>
<text text-anchor="start" x="219" y="-167.1" font-family="Bitstream Vera Sans" font-size="8.00" fill="#000000">★ _id</text>
<text text-anchor="start" x="273" y="-167.1" font-family="Bitstream Vera Sans" font-size="8.00" fill="#000000">INTEGER</text>
<text text-anchor="start" x="219" y="-154.1" font-family="Bitstream Vera Sans" font-size="8.00" fill="#000000">⚪ name</text>
<text text-anchor="start" x="273" y="-154.1" font-family="Bitstream Vera Sans" font-size="8.00" fill="#000000">VARCHAR</text>
<text text-anchor="start" x="219" y="-141.1" font-family="Bitstream Vera Sans" font-size="8.00" fill="#000000">⚪ permalink</text>
<text text-anchor="start" x="273" y="-141.1" font-family="Bitstream Vera Sans" font-size="8.00" fill="#000000">VARCHAR</text>
</g>
<!-- competitions&#45;&gt;competitor -->
<g id="edge3" class="edge">
<title>competitions&#45;&gt;competitor</title>
<path fill="none" stroke="#000000" d="M267,-306.1952C267,-280.3049 267,-239.9234 267,-208.8823"/>
<polygon fill="none" stroke="#000000" points="267.0001,-208.6462 263,-202.6463 267,-196.6462 271,-202.6462 267.0001,-208.6462"/>
<text text-anchor="middle" x="300" y="-223.6" font-family="Bitstream Vera Sans" font-size="8.00" fill="#000000">competitor_key</text>
</g>
<!-- created_at -->
<g id="node6" class="node">
<title>created_at</title>
<polygon fill="#ffffe0" stroke="transparent" points="361.5,-310.5 361.5,-353.5 438.5,-353.5 438.5,-310.5 361.5,-310.5"/>
<polygon fill="#eee8aa" stroke="transparent" points="362,-336 362,-353 439,-353 439,-336 362,-336"/>
<text text-anchor="start" x="379.5" y="-342.6" font-family="Helvetica Bold" font-size="8.00" fill="#000000">created_at</text>
<text text-anchor="start" x="364" y="-327.6" font-family="Bitstream Vera Sans" font-size="8.00" fill="#000000">★ _id</text>
<text text-anchor="start" x="400" y="-327.6" font-family="Bitstream Vera Sans" font-size="8.00" fill="#000000">INTEGER</text>
<text text-anchor="start" x="364" y="-314.6" font-family="Bitstream Vera Sans" font-size="8.00" fill="#000000">⚪ $date</text>
<text text-anchor="start" x="400" y="-314.6" font-family="Bitstream Vera Sans" font-size="8.00" fill="#000000">INTEGER</text>
</g>
<!-- external_links -->
<g id="node7" class="node">
<title>external_links</title>
<polygon fill="#ffffe0" stroke="transparent" points="473,-304 473,-360 583,-360 583,-304 473,-304"/>
<polygon fill="#eee8aa" stroke="transparent" points="473,-343 473,-360 583,-360 583,-343 473,-343"/>
<text text-anchor="start" x="500.5" y="-349.6" font-family="Helvetica Bold" font-size="8.00" fill="#000000">external_links</text>
<text text-anchor="start" x="475" y="-334.6" font-family="Bitstream Vera Sans" font-size="8.00" fill="#000000">★ _id</text>
<text text-anchor="start" x="538" y="-334.6" font-family="Bitstream Vera Sans" font-size="8.00" fill="#000000">INTEGER</text>
<text text-anchor="start" x="475" y="-321.6" font-family="Bitstream Vera Sans" font-size="8.00" fill="#000000">⚪ external_url</text>
<text text-anchor="start" x="538" y="-321.6" font-family="Bitstream Vera Sans" font-size="8.00" fill="#000000">VARCHAR</text>
<text text-anchor="start" x="475" y="-308.6" font-family="Bitstream Vera Sans" font-size="8.00" fill="#000000">⚪ title</text>
<text text-anchor="start" x="538" y="-308.6" font-family="Bitstream Vera Sans" font-size="8.00" fill="#000000">VARCHAR</text>
</g>
<!-- financial_org -->
<g id="node8" class="node">
<title>financial_org</title>
<polygon fill="#ffffe0" stroke="transparent" points="642.5,-21 642.5,-77 743.5,-77 743.5,-21 642.5,-21"/>
<polygon fill="#eee8aa" stroke="transparent" points="643,-60 643,-77 744,-77 744,-60 643,-60"/>
<text text-anchor="start" x="667.5" y="-66.6" font-family="Helvetica Bold" font-size="8.00" fill="#000000">financial_org</text>
<text text-anchor="start" x="645" y="-51.6" font-family="Bitstream Vera Sans" font-size="8.00" fill="#000000">★ _id</text>
<text text-anchor="start" x="699" y="-51.6" font-family="Bitstream Vera Sans" font-size="8.00" fill="#000000">INTEGER</text>
<text text-anchor="start" x="645" y="-38.6" font-family="Bitstream Vera Sans" font-size="8.00" fill="#000000">⚪ name</text>
<text text-anchor="start" x="699" y="-38.6" font-family="Bitstream Vera Sans" font-size="8.00" fill="#000000">VARCHAR</text>
<text text-anchor="start" x="645" y="-25.6" font-family="Bitstream Vera Sans" font-size="8.00" fill="#000000">⚪ permalink</text>
<text text-anchor="start" x="699" y="-25.6" font-family="Bitstream Vera Sans" font-size="8.00" fill="#000000">VARCHAR</text>
</g>
<!-- funding_rounds -->
<g id="node9" class="node">
<title>funding_rounds</title>
<polygon fill="#ffffe0" stroke="transparent" points="617,-252 617,-412 769,-412 769,-252 617,-252"/>
<polygon fill="#eee8aa" stroke="transparent" points="617,-395 617,-412 769,-412 769,-395 617,-395"/>
<text text-anchor="start" x="660.5" y="-401.6" font-family="Helvetica Bold" font-size="8.00" fill="#000000">funding_rounds</text>
<text text-anchor="start" x="619" y="-386.6" font-family="Bitstream Vera Sans" font-size="8.00" fill="#000000">★ _id</text>
<text text-anchor="start" x="724" y="-386.6" font-family="Bitstream Vera Sans" font-size="8.00" fill="#000000">INTEGER</text>
<text text-anchor="start" x="619" y="-373.6" font-family="Bitstream Vera Sans" font-size="8.00" fill="#000000">☆ investments_key</text>
<text text-anchor="start" x="724" y="-373.6" font-family="Bitstream Vera Sans" font-size="8.00" fill="#000000">INTEGER</text>
<text text-anchor="start" x="619" y="-360.6" font-family="Bitstream Vera Sans" font-size="8.00" fill="#000000">⚪ funded_day</text>
<text text-anchor="start" x="724" y="-360.6" font-family="Bitstream Vera Sans" font-size="8.00" fill="#000000">INTEGER</text>
<text text-anchor="start" x="619" y="-347.6" font-family="Bitstream Vera Sans" font-size="8.00" fill="#000000">⚪ funded_month</text>
<text text-anchor="start" x="724" y="-347.6" font-family="Bitstream Vera Sans" font-size="8.00" fill="#000000">INTEGER</text>
<text text-anchor="start" x="619" y="-334.6" font-family="Bitstream Vera Sans" font-size="8.00" fill="#000000">⚪ funded_year</text>
<text text-anchor="start" x="724" y="-334.6" font-family="Bitstream Vera Sans" font-size="8.00" fill="#000000">INTEGER</text>
<text text-anchor="start" x="619" y="-321.6" font-family="Bitstream Vera Sans" font-size="8.00" fill="#000000">⚪ id</text>
<text text-anchor="start" x="724" y="-321.6" font-family="Bitstream Vera Sans" font-size="8.00" fill="#000000">INTEGER</text>
<text text-anchor="start" x="619" y="-308.6" font-family="Bitstream Vera Sans" font-size="8.00" fill="#000000">⚪ raised_amount</text>
<text text-anchor="start" x="724" y="-308.6" font-family="Bitstream Vera Sans" font-size="8.00" fill="#000000">INTEGER</text>
<text text-anchor="start" x="619" y="-295.6" font-family="Bitstream Vera Sans" font-size="8.00" fill="#000000">⚪ raised_currency_code</text>
<text text-anchor="start" x="724" y="-295.6" font-family="Bitstream Vera Sans" font-size="8.00" fill="#000000">VARCHAR</text>
<text text-anchor="start" x="619" y="-282.6" font-family="Bitstream Vera Sans" font-size="8.00" fill="#000000">⚪ round_code</text>
<text text-anchor="start" x="724" y="-282.6" font-family="Bitstream Vera Sans" font-size="8.00" fill="#000000">VARCHAR</text>
<text text-anchor="start" x="619" y="-269.6" font-family="Bitstream Vera Sans" font-size="8.00" fill="#000000">⚪ source_description</text>
<text text-anchor="start" x="724" y="-269.6" font-family="Bitstream Vera Sans" font-size="8.00" fill="#000000">VARCHAR</text>
<text text-anchor="start" x="619" y="-256.6" font-family="Bitstream Vera Sans" font-size="8.00" fill="#000000">⚪ source_url</text>
<text text-anchor="start" x="724" y="-256.6" font-family="Bitstream Vera Sans" font-size="8.00" fill="#000000">VARCHAR</text>
</g>
<!-- investments -->
<g id="node12" class="node">
<title>investments</title>
<polygon fill="#ffffe0" stroke="transparent" points="628,-143 628,-186 758,-186 758,-143 628,-143"/>
<polygon fill="#eee8aa" stroke="transparent" points="628,-168.5 628,-185.5 758,-185.5 758,-168.5 628,-168.5"/>
<text text-anchor="start" x="668.5" y="-175.1" font-family="Helvetica Bold" font-size="8.00" fill="#000000">investments</text>
<text text-anchor="start" x="630" y="-160.1" font-family="Bitstream Vera Sans" font-size="8.00" fill="#000000">★ _id</text>
<text text-anchor="start" x="719" y="-160.1" font-family="Bitstream Vera Sans" font-size="8.00" fill="#000000">INTEGER</text>
<text text-anchor="start" x="630" y="-147.1" font-family="Bitstream Vera Sans" font-size="8.00" fill="#000000">☆ financial_org_key</text>
<text text-anchor="start" x="719" y="-147.1" font-family="Bitstream Vera Sans" font-size="8.00" fill="#000000">INTEGER</text>
</g>
<!-- funding_rounds&#45;&gt;investments -->
<g id="edge4" class="edge">
<title>funding_rounds&#45;&gt;investments</title>
<path fill="none" stroke="#000000" d="M693,-247.7593C693,-231.8313 693,-215.927 693,-202.351"/>
<polygon fill="none" stroke="#000000" points="693.0001,-202.1234 689,-196.1234 693,-190.1234 697,-196.1234 693.0001,-202.1234"/>
<text text-anchor="middle" x="729" y="-223.6" font-family="Bitstream Vera Sans" font-size="8.00" fill="#000000">investments_key</text>
</g>
<!-- id -->
<g id="node10" class="node">
<title>id</title>
<polygon fill="#ffffe0" stroke="transparent" points="802.5,-310.5 802.5,-353.5 879.5,-353.5 879.5,-310.5 802.5,-310.5"/>
<polygon fill="#eee8aa" stroke="transparent" points="803,-336 803,-353 880,-353 880,-336 803,-336"/>
<text text-anchor="start" x="837.5" y="-342.6" font-family="Helvetica Bold" font-size="8.00" fill="#000000">id</text>
<text text-anchor="start" x="805" y="-327.6" font-family="Bitstream Vera Sans" font-size="8.00" fill="#000000">★ _id</text>
<text text-anchor="start" x="835" y="-327.6" font-family="Bitstream Vera Sans" font-size="8.00" fill="#000000">INTEGER</text>
<text text-anchor="start" x="805" y="-314.6" font-family="Bitstream Vera Sans" font-size="8.00" fill="#000000">⚪ $oid</text>
<text text-anchor="start" x="835" y="-314.6" font-family="Bitstream Vera Sans" font-size="8.00" fill="#000000">VARCHAR</text>
</g>
<!-- image -->
<g id="node11" class="node">
<title>image</title>
<polygon fill="#ffffe0" stroke="transparent" points="913.5,-310.5 913.5,-353.5 1052.5,-353.5 1052.5,-310.5 913.5,-310.5"/>
<polygon fill="#eee8aa" stroke="transparent" points="914,-336 914,-353 1053,-353 1053,-336 914,-336"/>
<text text-anchor="start" x="971" y="-342.6" font-family="Helvetica Bold" font-size="8.00" fill="#000000">image</text>
<text text-anchor="start" x="916" y="-327.6" font-family="Bitstream Vera Sans" font-size="8.00" fill="#000000">★ _id</text>
<text text-anchor="start" x="1014" y="-327.6" font-family="Bitstream Vera Sans" font-size="8.00" fill="#000000">INTEGER</text>
<text text-anchor="start" x="916" y="-314.6" font-family="Bitstream Vera Sans" font-size="8.00" fill="#000000">☆ available_sizes_key</text>
<text text-anchor="start" x="1014" y="-314.6" font-family="Bitstream Vera Sans" font-size="8.00" fill="#000000">INTEGER</text>
</g>
<!-- image&#45;&gt;available_sizes -->
<g id="edge5" class="edge">
<title>image&#45;&gt;available_sizes</title>
<path fill="none" stroke="#000000" d="M983,-306.1952C983,-278.4498 983,-234.0623 983,-202.3625"/>
<polygon fill="none" stroke="#000000" points="983.0001,-202.0592 979,-196.0593 983,-190.0592 987,-196.0592 983.0001,-202.0592"/>
<text text-anchor="middle" x="1025" y="-223.6" font-family="Bitstream Vera Sans" font-size="8.00" fill="#000000">available_sizes_key</text>
</g>
<!-- investments&#45;&gt;financial_org -->
<g id="edge6" class="edge">
<title>investments&#45;&gt;financial_org</title>
<path fill="none" stroke="#000000" d="M693,-138.8668C693,-125.442 693,-108.622 693,-93.1755"/>
<polygon fill="none" stroke="#000000" points="693.0001,-93.1732 689,-87.1732 693,-81.1732 697,-87.1732 693.0001,-93.1732"/>
<text text-anchor="middle" x="730" y="-101.6" font-family="Bitstream Vera Sans" font-size="8.00" fill="#000000">financial_org_key</text>
</g>
<!-- main -->
<g id="node13" class="node">
<title>main</title>
<polygon fill="#ffffe0" stroke="transparent" points="811,-465 811,-924 967,-924 967,-465 811,-465"/>
<polygon fill="#eee8aa" stroke="transparent" points="811,-906.5 811,-923.5 967,-923.5 967,-906.5 811,-906.5"/>
<text text-anchor="start" x="879" y="-913.1" font-family="Helvetica Bold" font-size="8.00" fill="#000000">main</text>
<text text-anchor="start" x="813" y="-898.1" font-family="Bitstream Vera Sans" font-size="8.00" fill="#000000">★ _id</text>
<text text-anchor="start" x="922" y="-898.1" font-family="Bitstream Vera Sans" font-size="8.00" fill="#000000">INTEGER</text>
<text text-anchor="start" x="813" y="-885.1" font-family="Bitstream Vera Sans" font-size="8.00" fill="#000000">☆ acquisition_key</text>
<text text-anchor="start" x="922" y="-885.1" font-family="Bitstream Vera Sans" font-size="8.00" fill="#000000">INTEGER</text>
<text text-anchor="start" x="813" y="-872.1" font-family="Bitstream Vera Sans" font-size="8.00" fill="#000000">☆ competitions_key</text>
<text text-anchor="start" x="922" y="-872.1" font-family="Bitstream Vera Sans" font-size="8.00" fill="#000000">INTEGER</text>
<text text-anchor="start" x="813" y="-859.1" font-family="Bitstream Vera Sans" font-size="8.00" fill="#000000">☆ created_at_key</text>
<text text-anchor="start" x="922" y="-859.1" font-family="Bitstream Vera Sans" font-size="8.00" fill="#000000">INTEGER</text>
<text text-anchor="start" x="813" y="-846.1" font-family="Bitstream Vera Sans" font-size="8.00" fill="#000000">☆ external_links_key</text>
<text text-anchor="start" x="922" y="-846.1" font-family="Bitstream Vera Sans" font-size="8.00" fill="#000000">INTEGER</text>
<text text-anchor="start" x="813" y="-833.1" font-family="Bitstream Vera Sans" font-size="8.00" fill="#000000">☆ funding_rounds_key</text>
<text text-anchor="start" x="922" y="-833.1" font-family="Bitstream Vera Sans" font-size="8.00" fill="#000000">INTEGER</text>
<text text-anchor="start" x="813" y="-820.1" font-family="Bitstream Vera Sans" font-size="8.00" fill="#000000">☆ id_key</text>
<text text-anchor="start" x="922" y="-820.1" font-family="Bitstream Vera Sans" font-size="8.00" fill="#000000">INTEGER</text>
<text text-anchor="start" x="813" y="-807.1" font-family="Bitstream Vera Sans" font-size="8.00" fill="#000000">☆ image_key</text>
<text text-anchor="start" x="922" y="-807.1" font-family="Bitstream Vera Sans" font-size="8.00" fill="#000000">INTEGER</text>
<text text-anchor="start" x="813" y="-794.1" font-family="Bitstream Vera Sans" font-size="8.00" fill="#000000">☆ milestones_key</text>
<text text-anchor="start" x="922" y="-794.1" font-family="Bitstream Vera Sans" font-size="8.00" fill="#000000">INTEGER</text>
<text text-anchor="start" x="813" y="-781.1" font-family="Bitstream Vera Sans" font-size="8.00" fill="#000000">☆ offices_key</text>
<text text-anchor="start" x="922" y="-781.1" font-family="Bitstream Vera Sans" font-size="8.00" fill="#000000">INTEGER</text>
<text text-anchor="start" x="813" y="-768.1" font-family="Bitstream Vera Sans" font-size="8.00" fill="#000000">☆ products_key</text>
<text text-anchor="start" x="922" y="-768.1" font-family="Bitstream Vera Sans" font-size="8.00" fill="#000000">INTEGER</text>
<text text-anchor="start" x="813" y="-755.1" font-family="Bitstream Vera Sans" font-size="8.00" fill="#000000">☆ relationships_key</text>
<text text-anchor="start" x="922" y="-755.1" font-family="Bitstream Vera Sans" font-size="8.00" fill="#000000">INTEGER</text>
<text text-anchor="start" x="813" y="-742.1" font-family="Bitstream Vera Sans" font-size="8.00" fill="#000000">☆ screenshots_key</text>
<text text-anchor="start" x="922" y="-742.1" font-family="Bitstream Vera Sans" font-size="8.00" fill="#000000">INTEGER</text>
<text text-anchor="start" x="813" y="-729.1" font-family="Bitstream Vera Sans" font-size="8.00" fill="#000000">⚪ alias_list</text>
<text text-anchor="start" x="922" y="-729.1" font-family="Bitstream Vera Sans" font-size="8.00" fill="#000000">VARCHAR</text>
<text text-anchor="start" x="813" y="-716.1" font-family="Bitstream Vera Sans" font-size="8.00" fill="#000000">⚪ blog_feed_url</text>
<text text-anchor="start" x="922" y="-716.1" font-family="Bitstream Vera Sans" font-size="8.00" fill="#000000">VARCHAR</text>
<text text-anchor="start" x="813" y="-703.1" font-family="Bitstream Vera Sans" font-size="8.00" fill="#000000">⚪ blog_url</text>
<text text-anchor="start" x="922" y="-703.1" font-family="Bitstream Vera Sans" font-size="8.00" fill="#000000">VARCHAR</text>
<text text-anchor="start" x="813" y="-690.1" font-family="Bitstream Vera Sans" font-size="8.00" fill="#000000">⚪ category_code</text>
<text text-anchor="start" x="922" y="-690.1" font-family="Bitstream Vera Sans" font-size="8.00" fill="#000000">VARCHAR</text>
<text text-anchor="start" x="813" y="-677.1" font-family="Bitstream Vera Sans" font-size="8.00" fill="#000000">⚪ crunchbase_url</text>
<text text-anchor="start" x="922" y="-677.1" font-family="Bitstream Vera Sans" font-size="8.00" fill="#000000">VARCHAR</text>
<text text-anchor="start" x="813" y="-664.1" font-family="Bitstream Vera Sans" font-size="8.00" fill="#000000">⚪ deadpooled_year</text>
<text text-anchor="start" x="922" y="-664.1" font-family="Bitstream Vera Sans" font-size="8.00" fill="#000000">INTEGER</text>
<text text-anchor="start" x="813" y="-651.1" font-family="Bitstream Vera Sans" font-size="8.00" fill="#000000">⚪ description</text>
<text text-anchor="start" x="922" y="-651.1" font-family="Bitstream Vera Sans" font-size="8.00" fill="#000000">VARCHAR</text>
<text text-anchor="start" x="813" y="-638.1" font-family="Bitstream Vera Sans" font-size="8.00" fill="#000000">⚪ email_address</text>
<text text-anchor="start" x="922" y="-638.1" font-family="Bitstream Vera Sans" font-size="8.00" fill="#000000">VARCHAR</text>
<text text-anchor="start" x="813" y="-625.1" font-family="Bitstream Vera Sans" font-size="8.00" fill="#000000">⚪ founded_day</text>
<text text-anchor="start" x="922" y="-625.1" font-family="Bitstream Vera Sans" font-size="8.00" fill="#000000">INTEGER</text>
<text text-anchor="start" x="813" y="-612.1" font-family="Bitstream Vera Sans" font-size="8.00" fill="#000000">⚪ founded_month</text>
<text text-anchor="start" x="922" y="-612.1" font-family="Bitstream Vera Sans" font-size="8.00" fill="#000000">INTEGER</text>
<text text-anchor="start" x="813" y="-599.1" font-family="Bitstream Vera Sans" font-size="8.00" fill="#000000">⚪ founded_year</text>
<text text-anchor="start" x="922" y="-599.1" font-family="Bitstream Vera Sans" font-size="8.00" fill="#000000">INTEGER</text>
<text text-anchor="start" x="813" y="-586.1" font-family="Bitstream Vera Sans" font-size="8.00" fill="#000000">⚪ homepage_url</text>
<text text-anchor="start" x="922" y="-586.1" font-family="Bitstream Vera Sans" font-size="8.00" fill="#000000">VARCHAR</text>
<text text-anchor="start" x="813" y="-573.1" font-family="Bitstream Vera Sans" font-size="8.00" fill="#000000">⚪ name</text>
<text text-anchor="start" x="922" y="-573.1" font-family="Bitstream Vera Sans" font-size="8.00" fill="#000000">VARCHAR</text>
<text text-anchor="start" x="813" y="-560.1" font-family="Bitstream Vera Sans" font-size="8.00" fill="#000000">⚪ number_of_employees</text>
<text text-anchor="start" x="922" y="-560.1" font-family="Bitstream Vera Sans" font-size="8.00" fill="#000000">INTEGER</text>
<text text-anchor="start" x="813" y="-547.1" font-family="Bitstream Vera Sans" font-size="8.00" fill="#000000">⚪ overview</text>
<text text-anchor="start" x="922" y="-547.1" font-family="Bitstream Vera Sans" font-size="8.00" fill="#000000">VARCHAR</text>
<text text-anchor="start" x="813" y="-534.1" font-family="Bitstream Vera Sans" font-size="8.00" fill="#000000">⚪ permalink</text>
<text text-anchor="start" x="922" y="-534.1" font-family="Bitstream Vera Sans" font-size="8.00" fill="#000000">VARCHAR</text>
<text text-anchor="start" x="813" y="-521.1" font-family="Bitstream Vera Sans" font-size="8.00" fill="#000000">⚪ phone_number</text>
<text text-anchor="start" x="922" y="-521.1" font-family="Bitstream Vera Sans" font-size="8.00" fill="#000000">VARCHAR</text>
<text text-anchor="start" x="813" y="-508.1" font-family="Bitstream Vera Sans" font-size="8.00" fill="#000000">⚪ tag_list</text>
<text text-anchor="start" x="922" y="-508.1" font-family="Bitstream Vera Sans" font-size="8.00" fill="#000000">VARCHAR</text>
<text text-anchor="start" x="813" y="-495.1" font-family="Bitstream Vera Sans" font-size="8.00" fill="#000000">⚪ total_money_raised</text>
<text text-anchor="start" x="922" y="-495.1" font-family="Bitstream Vera Sans" font-size="8.00" fill="#000000">VARCHAR</text>
<text text-anchor="start" x="813" y="-482.1" font-family="Bitstream Vera Sans" font-size="8.00" fill="#000000">⚪ twitter_username</text>
<text text-anchor="start" x="922" y="-482.1" font-family="Bitstream Vera Sans" font-size="8.00" fill="#000000">VARCHAR</text>
<text text-anchor="start" x="813" y="-469.1" font-family="Bitstream Vera Sans" font-size="8.00" fill="#000000">⚪ updated_at</text>
<text text-anchor="start" x="922" y="-469.1" font-family="Bitstream Vera Sans" font-size="8.00" fill="#000000">VARCHAR</text>
</g>
<!-- main&#45;&gt;acquisition -->
<g id="edge14" class="edge">
<title>main&#45;&gt;acquisition</title>
<path fill="none" stroke="#000000" d="M802.9829,-670.2201C668.8473,-630.2588 403.9851,-542.8418 189.3745,-415.856"/>
<polygon fill="none" stroke="#000000" points="189.1749,-415.7369 181.9727,-416.0955 178.8716,-409.5852 186.0738,-409.2266 189.1749,-415.7369"/>
<text text-anchor="middle" x="257.5" y="-436.6" font-family="Bitstream Vera Sans" font-size="8.00" fill="#000000">acquisition_key</text>
</g>
<!-- main&#45;&gt;competitions -->
<g id="edge12" class="edge">
<title>main&#45;&gt;competitions</title>
<path fill="none" stroke="#000000" d="M802.836,-661.7458C690.5928,-616.6534 491.3251,-528.1443 344,-416 325.7496,-402.1077 308.2369,-383.5701 294.537,-367.4439"/>
<polygon fill="none" stroke="#000000" points="294.1838,-367.0177 287.2754,-364.95 286.527,-357.7779 293.4353,-359.8455 294.1838,-367.0177"/>
<text text-anchor="middle" x="408" y="-436.6" font-family="Bitstream Vera Sans" font-size="8.00" fill="#000000">competitions_key</text>
</g>
<!-- main&#45;&gt;created_at -->
<g id="edge8" class="edge">
<title>main&#45;&gt;created_at</title>
<path fill="none" stroke="#000000" d="M802.7658,-652.7142C709.7165,-604.7012 560.8171,-519.1088 456,-416 441.7871,-402.0187 429.1485,-383.8778 419.4912,-368.034"/>
<polygon fill="none" stroke="#000000" points="419.3852,-367.8538 412.8948,-364.7115 413.2991,-357.5117 419.7895,-360.654 419.3852,-367.8538"/>
<text text-anchor="middle" x="509.5" y="-436.6" font-family="Bitstream Vera Sans" font-size="8.00" fill="#000000">created_at_key</text>
</g>
<!-- main&#45;&gt;external_links -->
<g id="edge18" class="edge">
<title>main&#45;&gt;external_links</title>
<path fill="none" stroke="#000000" d="M802.8183,-615.5221C744.2378,-560.8629 665.7447,-485.6919 600,-416 587.2563,-402.4912 573.8683,-387.2043 562.1405,-373.4094"/>
<polygon fill="none" stroke="#000000" points="562.0549,-373.3078 555.1281,-371.3027 554.3149,-364.1376 561.2416,-366.1427 562.0549,-373.3078"/>
<text text-anchor="middle" x="662.5" y="-436.6" font-family="Bitstream Vera Sans" font-size="8.00" fill="#000000">external_links_key</text>
</g>
<!-- main&#45;&gt;funding_rounds -->
<g id="edge13" class="edge">
<title>main&#45;&gt;funding_rounds</title>
<path fill="none" stroke="#000000" d="M802.8889,-535.2385C782.8564,-498.1884 762.1511,-459.8943 744.1884,-426.6725"/>
<polygon fill="none" stroke="#000000" points="744.1645,-426.6282 737.7922,-423.2528 738.4571,-416.0724 744.8294,-419.4478 744.1645,-426.6282"/>
<text text-anchor="middle" x="793.5" y="-436.6" font-family="Bitstream Vera Sans" font-size="8.00" fill="#000000">funding_rounds_key</text>
</g>
<!-- main&#45;&gt;id -->
<g id="edge7" class="edge">
<title>main&#45;&gt;id</title>
<path fill="none" stroke="#000000" d="M858.0582,-460.8246C853.4051,-425.6847 849.133,-393.4212 846.0279,-369.9715"/>
<polygon fill="none" stroke="#000000" points="846.0033,-369.7845 841.2502,-364.3615 844.428,-357.8883 849.181,-363.3113 846.0033,-369.7845"/>
<text text-anchor="middle" x="870" y="-436.6" font-family="Bitstream Vera Sans" font-size="8.00" fill="#000000">id_key</text>
</g>
<!-- main&#45;&gt;image -->
<g id="edge9" class="edge">
<title>main&#45;&gt;image</title>
<path fill="none" stroke="#000000" d="M949.5944,-460.8246C958.7488,-425.522 967.1503,-393.1225 973.2379,-369.6464"/>
<polygon fill="none" stroke="#000000" points="973.2747,-369.5041 970.9089,-362.6922 976.2869,-357.8883 978.6527,-364.7003 973.2747,-369.5041"/>
<text text-anchor="middle" x="979" y="-436.6" font-family="Bitstream Vera Sans" font-size="8.00" fill="#000000">image_key</text>
</g>
<!-- milestones -->
<g id="node14" class="node">
<title>milestones</title>
<polygon fill="#ffffe0" stroke="transparent" points="1086.5,-258.5 1086.5,-405.5 1225.5,-405.5 1225.5,-258.5 1086.5,-258.5"/>
<polygon fill="#eee8aa" stroke="transparent" points="1087,-388 1087,-405 1226,-405 1226,-388 1087,-388"/>
<text text-anchor="start" x="1134.5" y="-394.6" font-family="Helvetica Bold" font-size="8.00" fill="#000000">milestones</text>
<text text-anchor="start" x="1089" y="-379.6" font-family="Bitstream Vera Sans" font-size="8.00" fill="#000000">★ _id</text>
<text text-anchor="start" x="1181" y="-379.6" font-family="Bitstream Vera Sans" font-size="8.00" fill="#000000">INTEGER</text>
<text text-anchor="start" x="1089" y="-366.6" font-family="Bitstream Vera Sans" font-size="8.00" fill="#000000">☆ stoneable_key</text>
<text text-anchor="start" x="1181" y="-366.6" font-family="Bitstream Vera Sans" font-size="8.00" fill="#000000">INTEGER</text>
<text text-anchor="start" x="1089" y="-353.6" font-family="Bitstream Vera Sans" font-size="8.00" fill="#000000">⚪ description</text>
<text text-anchor="start" x="1181" y="-353.6" font-family="Bitstream Vera Sans" font-size="8.00" fill="#000000">VARCHAR</text>
<text text-anchor="start" x="1089" y="-340.6" font-family="Bitstream Vera Sans" font-size="8.00" fill="#000000">⚪ id</text>
<text text-anchor="start" x="1181" y="-340.6" font-family="Bitstream Vera Sans" font-size="8.00" fill="#000000">INTEGER</text>
<text text-anchor="start" x="1089" y="-327.6" font-family="Bitstream Vera Sans" font-size="8.00" fill="#000000">⚪ source_description</text>
<text text-anchor="start" x="1181" y="-327.6" font-family="Bitstream Vera Sans" font-size="8.00" fill="#000000">VARCHAR</text>
<text text-anchor="start" x="1089" y="-314.6" font-family="Bitstream Vera Sans" font-size="8.00" fill="#000000">⚪ source_url</text>
<text text-anchor="start" x="1181" y="-314.6" font-family="Bitstream Vera Sans" font-size="8.00" fill="#000000">VARCHAR</text>
<text text-anchor="start" x="1089" y="-301.6" font-family="Bitstream Vera Sans" font-size="8.00" fill="#000000">⚪ stoneable_type</text>
<text text-anchor="start" x="1181" y="-301.6" font-family="Bitstream Vera Sans" font-size="8.00" fill="#000000">VARCHAR</text>
<text text-anchor="start" x="1089" y="-288.6" font-family="Bitstream Vera Sans" font-size="8.00" fill="#000000">⚪ stoned_day</text>
<text text-anchor="start" x="1181" y="-288.6" font-family="Bitstream Vera Sans" font-size="8.00" fill="#000000">INTEGER</text>
<text text-anchor="start" x="1089" y="-275.6" font-family="Bitstream Vera Sans" font-size="8.00" fill="#000000">⚪ stoned_month</text>
<text text-anchor="start" x="1181" y="-275.6" font-family="Bitstream Vera Sans" font-size="8.00" fill="#000000">INTEGER</text>
<text text-anchor="start" x="1089" y="-262.6" font-family="Bitstream Vera Sans" font-size="8.00" fill="#000000">⚪ stoned_year</text>
<text text-anchor="start" x="1181" y="-262.6" font-family="Bitstream Vera Sans" font-size="8.00" fill="#000000">INTEGER</text>
</g>
<!-- main&#45;&gt;milestones -->
<g id="edge16" class="edge">
<title>main&#45;&gt;milestones</title>
<path fill="none" stroke="#000000" d="M975.1343,-577.5574C1012.9103,-526.2697 1056.4999,-467.0891 1091.4205,-419.6781"/>
<polygon fill="none" stroke="#000000" points="1091.6188,-419.4089 1091.9564,-412.2057 1098.7354,-409.7469 1098.3978,-416.9501 1091.6188,-419.4089"/>
<text text-anchor="middle" x="1111" y="-436.6" font-family="Bitstream Vera Sans" font-size="8.00" fill="#000000">milestones_key</text>
</g>
<!-- offices -->
<g id="node15" class="node">
<title>offices</title>
<polygon fill="#ffffe0" stroke="transparent" points="1260,-258.5 1260,-405.5 1376,-405.5 1376,-258.5 1260,-258.5"/>
<polygon fill="#eee8aa" stroke="transparent" points="1260,-388 1260,-405 1376,-405 1376,-388 1260,-388"/>
<text text-anchor="start" x="1304" y="-394.6" font-family="Helvetica Bold" font-size="8.00" fill="#000000">offices</text>
<text text-anchor="start" x="1262" y="-379.6" font-family="Bitstream Vera Sans" font-size="8.00" fill="#000000">★ _id</text>
<text text-anchor="start" x="1331" y="-379.6" font-family="Bitstream Vera Sans" font-size="8.00" fill="#000000">INTEGER</text>
<text text-anchor="start" x="1262" y="-366.6" font-family="Bitstream Vera Sans" font-size="8.00" fill="#000000">⚪ address1</text>
<text text-anchor="start" x="1331" y="-366.6" font-family="Bitstream Vera Sans" font-size="8.00" fill="#000000">VARCHAR</text>
<text text-anchor="start" x="1262" y="-353.6" font-family="Bitstream Vera Sans" font-size="8.00" fill="#000000">⚪ address2</text>
<text text-anchor="start" x="1331" y="-353.6" font-family="Bitstream Vera Sans" font-size="8.00" fill="#000000">VARCHAR</text>
<text text-anchor="start" x="1262" y="-340.6" font-family="Bitstream Vera Sans" font-size="8.00" fill="#000000">⚪ city</text>
<text text-anchor="start" x="1331" y="-340.6" font-family="Bitstream Vera Sans" font-size="8.00" fill="#000000">VARCHAR</text>
<text text-anchor="start" x="1262" y="-327.6" font-family="Bitstream Vera Sans" font-size="8.00" fill="#000000">⚪ country_code</text>
<text text-anchor="start" x="1331" y="-327.6" font-family="Bitstream Vera Sans" font-size="8.00" fill="#000000">VARCHAR</text>
<text text-anchor="start" x="1262" y="-314.6" font-family="Bitstream Vera Sans" font-size="8.00" fill="#000000">⚪ description</text>
<text text-anchor="start" x="1331" y="-314.6" font-family="Bitstream Vera Sans" font-size="8.00" fill="#000000">VARCHAR</text>
<text text-anchor="start" x="1262" y="-301.6" font-family="Bitstream Vera Sans" font-size="8.00" fill="#000000">⚪ latitude</text>
<text text-anchor="start" x="1331" y="-301.6" font-family="Bitstream Vera Sans" font-size="8.00" fill="#000000">FLOAT</text>
<text text-anchor="start" x="1262" y="-288.6" font-family="Bitstream Vera Sans" font-size="8.00" fill="#000000">⚪ longitude</text>
<text text-anchor="start" x="1331" y="-288.6" font-family="Bitstream Vera Sans" font-size="8.00" fill="#000000">FLOAT</text>
<text text-anchor="start" x="1262" y="-275.6" font-family="Bitstream Vera Sans" font-size="8.00" fill="#000000">⚪ state_code</text>
<text text-anchor="start" x="1331" y="-275.6" font-family="Bitstream Vera Sans" font-size="8.00" fill="#000000">VARCHAR</text>
<text text-anchor="start" x="1262" y="-262.6" font-family="Bitstream Vera Sans" font-size="8.00" fill="#000000">⚪ zip_code</text>
<text text-anchor="start" x="1331" y="-262.6" font-family="Bitstream Vera Sans" font-size="8.00" fill="#000000">VARCHAR</text>
</g>
<!-- main&#45;&gt;offices -->
<g id="edge15" class="edge">
<title>main&#45;&gt;offices</title>
<path fill="none" stroke="#000000" d="M975.3457,-632.7315C1048.9019,-578.6485 1156.0299,-496.3568 1242,-416 1242.4131,-415.6139 1242.8264,-415.2259 1243.2401,-414.836"/>
<polygon fill="none" stroke="#000000" points="1243.3204,-414.7582 1244.8492,-407.711 1251.9423,-406.4117 1250.4136,-413.459 1243.3204,-414.7582"/>
<text text-anchor="middle" x="1240" y="-436.6" font-family="Bitstream Vera Sans" font-size="8.00" fill="#000000">offices_key</text>
</g>
<!-- products -->
<g id="node17" class="node">
<title>products</title>
<polygon fill="#ffffe0" stroke="transparent" points="1410.5,-304 1410.5,-360 1511.5,-360 1511.5,-304 1410.5,-304"/>
<polygon fill="#eee8aa" stroke="transparent" points="1411,-343 1411,-360 1512,-360 1512,-343 1411,-343"/>
<text text-anchor="start" x="1443" y="-349.6" font-family="Helvetica Bold" font-size="8.00" fill="#000000">products</text>
<text text-anchor="start" x="1413" y="-334.6" font-family="Bitstream Vera Sans" font-size="8.00" fill="#000000">★ _id</text>
<text text-anchor="start" x="1467" y="-334.6" font-family="Bitstream Vera Sans" font-size="8.00" fill="#000000">INTEGER</text>
<text text-anchor="start" x="1413" y="-321.6" font-family="Bitstream Vera Sans" font-size="8.00" fill="#000000">⚪ name</text>
<text text-anchor="start" x="1467" y="-321.6" font-family="Bitstream Vera Sans" font-size="8.00" fill="#000000">VARCHAR</text>
<text text-anchor="start" x="1413" y="-308.6" font-family="Bitstream Vera Sans" font-size="8.00" fill="#000000">⚪ permalink</text>
<text text-anchor="start" x="1467" y="-308.6" font-family="Bitstream Vera Sans" font-size="8.00" fill="#000000">VARCHAR</text>
</g>
<!-- main&#45;&gt;products -->
<g id="edge10" class="edge">
<title>main&#45;&gt;products</title>
<path fill="none" stroke="#000000" d="M975.4602,-659.0964C1081.1196,-613.1808 1261.9814,-525.8075 1393,-416 1407.4881,-403.8575 1421.1046,-388.2621 1432.2917,-373.8123"/>
<polygon fill="none" stroke="#000000" points="1432.4201,-373.6413 1432.827,-366.4417 1439.6293,-364.0481 1439.2224,-371.2478 1432.4201,-373.6413"/>
<text text-anchor="middle" x="1396.5" y="-436.6" font-family="Bitstream Vera Sans" font-size="8.00" fill="#000000">products_key</text>
</g>
<!-- relationships -->
<g id="node18" class="node">
<title>relationships</title>
<polygon fill="#ffffe0" stroke="transparent" points="1545.5,-304 1545.5,-360 1656.5,-360 1656.5,-304 1545.5,-304"/>
<polygon fill="#eee8aa" stroke="transparent" points="1546,-343 1546,-360 1657,-360 1657,-343 1546,-343"/>
<text text-anchor="start" x="1575.5" y="-349.6" font-family="Helvetica Bold" font-size="8.00" fill="#000000">relationships</text>
<text text-anchor="start" x="1548" y="-334.6" font-family="Bitstream Vera Sans" font-size="8.00" fill="#000000">★ _id</text>
<text text-anchor="start" x="1612" y="-334.6" font-family="Bitstream Vera Sans" font-size="8.00" fill="#000000">INTEGER</text>
<text text-anchor="start" x="1548" y="-321.6" font-family="Bitstream Vera Sans" font-size="8.00" fill="#000000">☆ person_key</text>
<text text-anchor="start" x="1612" y="-321.6" font-family="Bitstream Vera Sans" font-size="8.00" fill="#000000">INTEGER</text>
<text text-anchor="start" x="1548" y="-308.6" font-family="Bitstream Vera Sans" font-size="8.00" fill="#000000">⚪ title</text>
<text text-anchor="start" x="1612" y="-308.6" font-family="Bitstream Vera Sans" font-size="8.00" fill="#000000">VARCHAR</text>
</g>
<!-- main&#45;&gt;relationships -->
<g id="edge11" class="edge">
<title>main&#45;&gt;relationships</title>
<path fill="none" stroke="#000000" d="M975.115,-670.6739C1104.3419,-632.0565 1352.1084,-546.6906 1529,-416 1544.8407,-404.2966 1559.5429,-388.4921 1571.4773,-373.7495"/>
<polygon fill="none" stroke="#000000" points="1571.5042,-373.7152 1572.0554,-366.5252 1578.9044,-364.2686 1578.3531,-371.4586 1571.5042,-373.7152"/>
<text text-anchor="middle" x="1535" y="-436.6" font-family="Bitstream Vera Sans" font-size="8.00" fill="#000000">relationships_key</text>
</g>
<!-- screenshots -->
<g id="node19" class="node">
<title>screenshots</title>
<polygon fill="#ffffe0" stroke="transparent" points="1691,-317 1691,-347 1759,-347 1759,-317 1691,-317"/>
<polygon fill="#eee8aa" stroke="transparent" points="1691,-330 1691,-347 1759,-347 1759,-330 1691,-330"/>
<text text-anchor="start" x="1700.5" y="-336.6" font-family="Helvetica Bold" font-size="8.00" fill="#000000">screenshots</text>
<text text-anchor="start" x="1693" y="-321.6" font-family="Bitstream Vera Sans" font-size="8.00" fill="#000000">★ _id</text>
<text text-anchor="start" x="1720" y="-321.6" font-family="Bitstream Vera Sans" font-size="8.00" fill="#000000">INTEGER</text>
</g>
<!-- main&#45;&gt;screenshots -->
<g id="edge17" class="edge">
<title>main&#45;&gt;screenshots</title>
<path fill="none" stroke="#000000" d="M975.2119,-683.2329C1130.4008,-659.098 1460.463,-589.7529 1674,-416 1691.3688,-401.8672 1704.3335,-380.1461 1712.8445,-362.3325"/>
<polygon fill="none" stroke="#000000" points="1712.8787,-362.2562 1711.6885,-355.144 1717.7958,-351.3098 1718.9861,-358.422 1712.8787,-362.2562"/>
<text text-anchor="middle" x="1682.5" y="-436.6" font-family="Bitstream Vera Sans" font-size="8.00" fill="#000000">screenshots_key</text>
</g>
<!-- stoneable -->
<g id="node20" class="node">
<title>stoneable</title>
<polygon fill="#ffffe0" stroke="transparent" points="1105.5,-136.5 1105.5,-192.5 1206.5,-192.5 1206.5,-136.5 1105.5,-136.5"/>
<polygon fill="#eee8aa" stroke="transparent" points="1106,-175.5 1106,-192.5 1207,-192.5 1207,-175.5 1106,-175.5"/>
<text text-anchor="start" x="1136.5" y="-182.1" font-family="Helvetica Bold" font-size="8.00" fill="#000000">stoneable</text>
<text text-anchor="start" x="1108" y="-167.1" font-family="Bitstream Vera Sans" font-size="8.00" fill="#000000">★ _id</text>
<text text-anchor="start" x="1162" y="-167.1" font-family="Bitstream Vera Sans" font-size="8.00" fill="#000000">INTEGER</text>
<text text-anchor="start" x="1108" y="-154.1" font-family="Bitstream Vera Sans" font-size="8.00" fill="#000000">⚪ name</text>
<text text-anchor="start" x="1162" y="-154.1" font-family="Bitstream Vera Sans" font-size="8.00" fill="#000000">VARCHAR</text>
<text text-anchor="start" x="1108" y="-141.1" font-family="Bitstream Vera Sans" font-size="8.00" fill="#000000">⚪ permalink</text>
<text text-anchor="start" x="1162" y="-141.1" font-family="Bitstream Vera Sans" font-size="8.00" fill="#000000">VARCHAR</text>
</g>
<!-- milestones&#45;&gt;stoneable -->
<g id="edge19" class="edge">
<title>milestones&#45;&gt;stoneable</title>
<path fill="none" stroke="#000000" d="M1156,-254.1344C1156,-238.5669 1156,-222.727 1156,-208.7803"/>
<polygon fill="none" stroke="#000000" points="1156.0001,-208.5666 1152,-202.5666 1156,-196.5666 1160,-202.5665 1156.0001,-208.5666"/>
<text text-anchor="middle" x="1186.5" y="-223.6" font-family="Bitstream Vera Sans" font-size="8.00" fill="#000000">stoneable_key</text>
</g>
<!-- person -->
<g id="node16" class="node">
<title>person</title>
<polygon fill="#ffffe0" stroke="transparent" points="1549,-130 1549,-199 1653,-199 1653,-130 1549,-130"/>
<polygon fill="#eee8aa" stroke="transparent" points="1549,-181.5 1549,-198.5 1653,-198.5 1653,-181.5 1549,-181.5"/>
<text text-anchor="start" x="1587" y="-188.1" font-family="Helvetica Bold" font-size="8.00" fill="#000000">person</text>
<text text-anchor="start" x="1551" y="-173.1" font-family="Bitstream Vera Sans" font-size="8.00" fill="#000000">★ _id</text>
<text text-anchor="start" x="1608" y="-173.1" font-family="Bitstream Vera Sans" font-size="8.00" fill="#000000">INTEGER</text>
<text text-anchor="start" x="1551" y="-160.1" font-family="Bitstream Vera Sans" font-size="8.00" fill="#000000">⚪ first_name</text>
<text text-anchor="start" x="1608" y="-160.1" font-family="Bitstream Vera Sans" font-size="8.00" fill="#000000">VARCHAR</text>
<text text-anchor="start" x="1551" y="-147.1" font-family="Bitstream Vera Sans" font-size="8.00" fill="#000000">⚪ last_name</text>
<text text-anchor="start" x="1608" y="-147.1" font-family="Bitstream Vera Sans" font-size="8.00" fill="#000000">VARCHAR</text>
<text text-anchor="start" x="1551" y="-134.1" font-family="Bitstream Vera Sans" font-size="8.00" fill="#000000">⚪ permalink</text>
<text text-anchor="start" x="1608" y="-134.1" font-family="Bitstream Vera Sans" font-size="8.00" fill="#000000">VARCHAR</text>
</g>
<!-- relationships&#45;&gt;person -->
<g id="edge20" class="edge">
<title>relationships&#45;&gt;person</title>
<path fill="none" stroke="#000000" d="M1601,-299.7043C1601,-275.7968 1601,-242.756 1601,-215.3219"/>
<polygon fill="none" stroke="#000000" points="1601.0001,-215.1645 1597,-209.1645 1601,-203.1645 1605,-209.1645 1601.0001,-215.1645"/>
<text text-anchor="middle" x="1625.5" y="-223.6" font-family="Bitstream Vera Sans" font-size="8.00" fill="#000000">person_key</text>
</g>
</g>
</svg>
